<svg width="8" height="6" viewBox="0 0 8 6" fill="none" xmlns="http://www.w3.org/2000/svg">
<path d="M1.00003 0.666633L7.00003 0.666633C7.06078 0.666823 7.12032 0.683578 7.17225 0.715092C7.22419 0.746607 7.26654 0.791688 7.29476 0.845484C7.32298 0.89928 7.33599 0.959753 7.3324 1.02039C7.3288 1.08103 7.30874 1.13955 7.27436 1.18963L4.27436 5.52296C4.15003 5.70263 3.8507 5.70263 3.72603 5.52296L0.726028 1.18963C0.691303 1.13965 0.67094 1.08111 0.66715 1.02037C0.663361 0.959626 0.67629 0.899007 0.704533 0.845097C0.732776 0.791187 0.775254 0.746048 0.82735 0.714585C0.879446 0.683122 0.939168 0.666537 1.00003 0.666633Z" fill="#7C7C7B"/>
</svg>
