<svg width="22" height="21" viewBox="0 0 22 21" fill="none" xmlns="http://www.w3.org/2000/svg">
<path d="M12.0726 19.0992L11.032 20.1399C10.5914 20.5805 9.87888 20.5805 9.44294 20.1399L0.330445 11.0321C-0.11018 10.5914 -0.11018 9.87893 0.330445 9.44299L9.44294 0.330493C9.88357 -0.110132 10.5961 -0.110132 11.032 0.330493L12.0726 1.37112C12.5179 1.81643 12.5086 2.54299 12.0539 2.97893L6.40544 8.36018L19.8773 8.36018C20.5008 8.36018 21.0023 8.86174 21.0023 9.48518L21.0023 10.9852C21.0023 11.6086 20.5008 12.1102 19.8773 12.1102L6.40545 12.1102L12.0539 17.4914C12.5133 17.9274 12.5226 18.6539 12.0726 19.0992Z" fill="#7C7C7B"/>
</svg>
