<svg width="8" height="6" viewBox="0 0 8 6" fill="none" xmlns="http://www.w3.org/2000/svg">
<path d="M6.99973 5.33337H0.999727C0.93898 5.33318 0.879435 5.31642 0.827502 5.28491C0.775568 5.25339 0.733213 5.20831 0.704995 5.15452C0.676777 5.10072 0.663765 5.04025 0.667359 4.97961C0.670954 4.91897 0.691019 4.86045 0.725394 4.81037L3.72539 0.477035C3.84973 0.297368 4.14906 0.297368 4.27373 0.477035L7.27373 4.81037C7.30845 4.86035 7.32882 4.91889 7.33261 4.97963C7.3364 5.04037 7.32347 5.10099 7.29522 5.1549C7.26698 5.20881 7.2245 5.25395 7.17241 5.28542C7.12031 5.31688 7.06059 5.33346 6.99973 5.33337Z" fill="#7C7C7B"/>
</svg>
