<svg width="21" height="24" viewBox="0 0 21 24" fill="none" xmlns="http://www.w3.org/2000/svg">
<g clip-path="url(#clip0)">
<path d="M8.92969 3.13586L9.97031 2.09524C10.4109 1.65461 11.1234 1.65461 11.5594 2.09524L20.6719 11.2031C21.1125 11.6437 21.1125 12.3562 20.6719 12.7921L11.5594 21.9046C11.1187 22.3452 10.4062 22.3452 9.97031 21.9046L8.92969 20.864C8.48437 20.4187 8.49375 19.6921 8.94844 19.2562L14.5969 13.8749H1.125C0.501562 13.8749 0 13.3734 0 12.7499V11.2499C0 10.6265 0.501562 10.1249 1.125 10.1249H14.5969L8.94844 4.74368C8.48906 4.30774 8.47969 3.58118 8.92969 3.13586Z" fill="#7C7C7B"/>
</g>
<defs>
<clipPath id="clip0">
<rect width="21" height="24" fill="white"/>
</clipPath>
</defs>
</svg>
