<svg width="18" height="23" viewBox="0 0 18 23" fill="none" xmlns="http://www.w3.org/2000/svg">
<path d="M8.99992 0.333344C9.92818 0.333344 10.8184 0.702093 11.4748 1.35847C12.1312 2.01485 12.4999 2.90509 12.4999 3.83334V10.8333C12.4999 11.7616 12.1312 12.6518 11.4748 13.3082C10.8184 13.9646 9.92818 14.3333 8.99992 14.3333C8.07166 14.3333 7.18142 13.9646 6.52504 13.3082C5.86867 12.6518 5.49992 11.7616 5.49992 10.8333V3.83334C5.49992 2.90509 5.86867 2.01485 6.52504 1.35847C7.18142 0.702093 8.07166 0.333344 8.99992 0.333344ZM17.1666 10.8333C17.1666 14.9517 14.1216 18.3467 10.1666 18.9183V22.5H7.83325V18.9183C3.87825 18.3467 0.833252 14.9517 0.833252 10.8333H3.16659C3.16659 12.3804 3.78117 13.8642 4.87513 14.9581C5.96909 16.0521 7.45282 16.6667 8.99992 16.6667C10.547 16.6667 12.0307 16.0521 13.1247 14.9581C14.2187 13.8642 14.8333 12.3804 14.8333 10.8333H17.1666Z" fill="#7C7C7B"/>
</svg>
