<svg width="23" height="21" viewBox="0 0 23 21" fill="none" xmlns="http://www.w3.org/2000/svg">
<path d="M2.4 2.4H5.8125L8.0875 0.125H14.9125L17.1875 2.4H20.6C21.2034 2.4 21.782 2.63969 22.2087 3.06633C22.6353 3.49298 22.875 4.07163 22.875 4.675V18.325C22.875 18.9284 22.6353 19.507 22.2087 19.9337C21.782 20.3603 21.2034 20.6 20.6 20.6H2.4C1.79663 20.6 1.21798 20.3603 0.791332 19.9337C0.364687 19.507 0.125 18.9284 0.125 18.325V4.675C0.125 4.07163 0.364687 3.49298 0.791332 3.06633C1.21798 2.63969 1.79663 2.4 2.4 2.4ZM11.5 5.8125C9.99158 5.8125 8.54494 6.41172 7.47833 7.47833C6.41172 8.54494 5.8125 9.99158 5.8125 11.5C5.8125 13.0084 6.41172 14.4551 7.47833 15.5217C8.54494 16.5883 9.99158 17.1875 11.5 17.1875C13.0084 17.1875 14.4551 16.5883 15.5217 15.5217C16.5883 14.4551 17.1875 13.0084 17.1875 11.5C17.1875 9.99158 16.5883 8.54494 15.5217 7.47833C14.4551 6.41172 13.0084 5.8125 11.5 5.8125ZM11.5 8.0875C12.4051 8.0875 13.273 8.44703 13.913 9.087C14.553 9.72696 14.9125 10.5949 14.9125 11.5C14.9125 12.4051 14.553 13.273 13.913 13.913C13.273 14.553 12.4051 14.9125 11.5 14.9125C10.5949 14.9125 9.72697 14.553 9.087 13.913C8.44703 13.273 8.0875 12.4051 8.0875 11.5C8.0875 10.5949 8.44703 9.72696 9.087 9.087C9.72697 8.44703 10.5949 8.0875 11.5 8.0875Z" fill="#D8D8D7"/>
</svg>
