<svg width="35" height="35" viewBox="0 0 35 35" fill="none" xmlns="http://www.w3.org/2000/svg">
<path d="M2.1875 30.625H32.8125V32.8125H2.1875V30.625Z" fill="#7C7C7B"/>
<path d="M29.5312 12.0312C29.8213 12.0312 30.0995 11.916 30.3046 11.7109C30.5098 11.5058 30.625 11.2276 30.625 10.9375V7.65625C30.6249 7.43147 30.5556 7.21218 30.4264 7.02821C30.2972 6.84425 30.1145 6.70455 29.9031 6.62813L17.8719 2.25313C17.6316 2.16625 17.3684 2.16625 17.1281 2.25313L5.09687 6.62813C4.88549 6.70455 4.70278 6.84425 4.57361 7.02821C4.44444 7.21218 4.3751 7.43147 4.375 7.65625V10.9375C4.375 11.2276 4.49023 11.5058 4.69535 11.7109C4.90047 11.916 5.17867 12.0312 5.46875 12.0312H6.5625V26.25H4.375V28.4375H30.625V26.25H28.4375V12.0312H29.5312ZM6.5625 8.42188L17.5 4.44063L28.4375 8.42188V9.84375H6.5625V8.42188ZM19.6875 26.25H15.3125V12.0312H19.6875V26.25ZM8.75 12.0312H13.125V26.25H8.75V12.0312ZM26.25 26.25H21.875V12.0312H26.25V26.25Z" fill="#7C7C7B"/>
</svg>
