<svg width="14" height="24" viewBox="0 0 14 24" fill="none" xmlns="http://www.w3.org/2000/svg">
<path d="M7 23.6667C5.1906 23.7106 3.43762 23.0352 2.12542 21.7886C0.813221 20.542 0.0488855 18.826 0 17.0167V5.15169C0.0336397 3.84375 0.584086 2.6024 1.53085 1.69936C2.47762 0.796323 3.74359 0.305151 5.05167 0.333356C6.36173 0.302018 7.63071 0.791794 8.58001 1.69517C9.52932 2.59854 10.0814 3.84168 10.115 5.15169V17.0284C10.0665 17.82 9.71779 18.5634 9.14004 19.1068C8.56229 19.6502 7.799 19.9528 7.00583 19.9528C6.21267 19.9528 5.44938 19.6502 4.87163 19.1068C4.29388 18.5634 3.94518 17.82 3.89667 17.0284V6.07336C3.89667 5.76394 4.01958 5.46719 4.23838 5.2484C4.45717 5.02961 4.75391 4.90669 5.06333 4.90669C5.37275 4.90669 5.6695 5.02961 5.88829 5.2484C6.10708 5.46719 6.23 5.76394 6.23 6.07336V17.0284C6.25327 17.2177 6.345 17.3921 6.48791 17.5185C6.63081 17.6449 6.81503 17.7147 7.00583 17.7147C7.19664 17.7147 7.38085 17.6449 7.52376 17.5185C7.66667 17.3921 7.7584 17.2177 7.78167 17.0284V5.15169C7.7454 4.4615 7.43839 3.81346 6.92729 3.34823C6.41618 2.88299 5.74222 2.63809 5.05167 2.66669C4.36309 2.64123 3.69212 2.88754 3.18355 3.35245C2.67499 3.81737 2.36961 4.4636 2.33333 5.15169V17.0167C2.3819 18.2072 2.90029 19.3299 3.77497 20.139C4.64965 20.9481 5.80932 21.3776 7 21.3334C8.19068 21.3776 9.35035 20.9481 10.225 20.139C11.0997 19.3299 11.6181 18.2072 11.6667 17.0167V5.15169C11.6667 4.84227 11.7896 4.54552 12.0084 4.32673C12.2272 4.10794 12.5239 3.98502 12.8333 3.98502C13.1428 3.98502 13.4395 4.10794 13.6583 4.32673C13.8771 4.54552 14 4.84227 14 5.15169V17.0167C13.9511 18.826 13.1868 20.542 11.8746 21.7886C10.5624 23.0352 8.8094 23.7106 7 23.6667Z" fill="#7C7C7B"/>
</svg>
