<svg width="35" height="35" viewBox="0 0 35 35" fill="none" xmlns="http://www.w3.org/2000/svg">
<path d="M11.1027 3.3347C10.0296 2.48242 8.68167 2.05243 7.31327 2.12586C5.94487 2.1993 4.65068 2.77108 3.67495 3.73331C2.70727 4.70739 2.13416 6.00502 2.06595 7.37636C1.99775 8.74769 2.43926 10.0958 3.3055 11.1611C4.86546 7.69028 7.63777 4.9076 11.1027 3.3347Z" fill="#7C7C7B"/>
<path d="M18.3359 9.23621C18.3359 9.00414 18.2438 8.78158 18.0797 8.61749C17.9156 8.45339 17.693 8.36121 17.4609 8.36121C17.2289 8.36121 17.0063 8.45339 16.8422 8.61749C16.6781 8.78158 16.5859 9.00414 16.5859 9.23621V17.9862L23.4498 21.389C23.6587 21.4908 23.8994 21.5055 24.1192 21.4299C24.3389 21.3542 24.5195 21.1944 24.6214 20.9855C24.7232 20.7767 24.7379 20.5359 24.6623 20.3162C24.5866 20.0965 24.4267 19.9158 24.2179 19.814L18.3262 16.8973L18.3359 9.23621Z" fill="#7C7C7B"/>
<path d="M27.2223 27.0084C28.765 25.4508 29.9049 23.5408 30.5436 21.4436C31.1822 19.3465 31.3003 17.1253 30.8876 14.9723H28.9432C29.5089 17.4716 29.2409 20.0875 28.1801 22.4202C27.1194 24.7529 25.3242 26.6743 23.0688 27.8909C20.8134 29.1074 18.2217 29.5522 15.6897 29.1573C13.1578 28.7625 10.8246 27.5496 9.04676 25.7041C7.26889 23.8585 6.14401 21.4818 5.84395 18.9368C5.5439 16.3918 6.08516 13.8186 7.38506 11.6102C8.68497 9.40177 10.672 7.67957 13.0428 6.70666C15.4135 5.73375 18.0375 5.56362 20.514 6.22226L21.4862 4.47226C18.5847 3.58873 15.4713 3.69963 12.64 4.78735C9.80872 5.87507 7.42187 7.87729 5.85827 10.4762C4.29467 13.0751 3.64392 16.1219 4.00931 19.1328C4.37469 22.1437 5.73528 24.9464 7.87512 27.0959L5.40567 29.5848C5.22389 29.7704 5.1233 30.0207 5.12603 30.2805C5.12877 30.5403 5.2346 30.7884 5.42025 30.9702C5.60591 31.152 5.85617 31.2525 6.11598 31.2498C6.3758 31.2471 6.62389 31.1412 6.80567 30.9556L9.39178 28.3695C11.7567 30.1591 14.6448 31.1211 17.6105 31.107C20.5762 31.093 23.455 30.1037 25.8029 28.2917L28.4668 30.9556C28.6528 31.1149 28.892 31.1981 29.1367 31.1886C29.3814 31.1792 29.6135 31.0778 29.7866 30.9046C29.9598 30.7315 30.0612 30.4994 30.0707 30.2547C30.0801 30.01 29.9969 29.7707 29.8376 29.5848L27.2223 27.0084Z" fill="#7C7C7B"/>
<path d="M26.1043 1.10841L20.5431 10.6945C20.4138 10.8844 20.3395 11.1064 20.3286 11.336C20.3176 11.5655 20.3705 11.7936 20.4812 11.9949C20.5919 12.1963 20.7563 12.363 20.956 12.4767C21.1557 12.5904 21.3829 12.6465 21.6126 12.639H32.7445C32.9742 12.6465 33.2015 12.5904 33.4012 12.4767C33.6009 12.363 33.7652 12.1963 33.8759 11.9949C33.9867 11.7936 34.0395 11.5655 34.0286 11.336C34.0176 11.1064 33.9434 10.8844 33.814 10.6945L28.2529 1.10841C28.1432 0.920825 27.9863 0.765226 27.7978 0.657094C27.6094 0.548962 27.3959 0.492065 27.1786 0.492065C26.9613 0.492065 26.7478 0.548962 26.5593 0.657094C26.3708 0.765226 26.2139 0.920825 26.1043 1.10841Z" fill="#7C7C7B"/>
</svg>
