<svg width="240" height="229" viewBox="0 0 240 229" fill="none" xmlns="http://www.w3.org/2000/svg">
<path fill-rule="evenodd" clip-rule="evenodd" d="M1.4984 104.082C-0.351681 100.946 -0.35168 97.0534 1.4984 93.918L53.5977 5.62414C55.3961 2.57638 58.6714 0.706059 62.2102 0.706059L166.789 0.706055C170.328 0.706055 173.603 2.57638 175.402 5.62414L227.501 93.918C229.351 97.0534 229.351 100.946 227.501 104.082L175.402 192.376C173.603 195.423 170.328 197.294 166.789 197.294H83.7885L74.8097 215.394C72.9904 219.061 67.7757 219.107 65.8916 215.473L54.7164 193.916C54.2996 193.444 53.9243 192.929 53.5977 192.376L1.4984 104.082ZM191 23L224.352 79.9762L225.215 79.471L191.863 22.4948L191 23ZM65.5588 228.497L11.9997 137L12.8627 136.495L66.4218 227.992L65.5588 228.497ZM209 41L238.31 91.0721L239.173 90.5669L209.863 40.4948L209 41ZM20.6911 163.223L2.99973 133L3.86275 132.495L21.5541 162.718L20.6911 163.223ZM200.283 159L191 174.817L191.862 175.323L201.146 159.506L200.283 159Z" fill="#BDBDBD"/>
</svg>
