<svg width="28" height="26" viewBox="0 0 28 26" fill="none" xmlns="http://www.w3.org/2000/svg">
<path d="M26.7754 10.0368C26.711 9.76621 26.5875 9.51326 26.4135 9.2962C26.2396 9.07914 26.0197 8.90339 25.7697 8.78161L24.0699 7.94114L23.4163 6.80899L23.5382 4.91653C23.5577 4.6391 23.5155 4.36079 23.4145 4.10166C23.3135 3.84254 23.1563 3.60905 22.9541 3.41805C21.5003 2.0401 19.7418 1.02483 17.8215 0.454849C17.555 0.375263 17.2742 0.355803 16.9992 0.397872C16.7243 0.439941 16.4621 0.542492 16.2315 0.69813L14.6538 1.75H13.3465L11.7688 0.698247C11.5383 0.542501 11.2761 0.439869 11.0012 0.397757C10.7262 0.355645 10.4453 0.375105 10.1788 0.454731C8.2586 1.02474 6.50009 2.04001 5.04634 3.41793C4.84411 3.60892 4.68681 3.84241 4.58576 4.10156C4.48472 4.36071 4.44246 4.63906 4.46204 4.91653L4.58403 6.80887L3.93036 7.94102L2.23056 8.78149C1.98049 8.90326 1.76057 9.07901 1.58665 9.29607C1.41274 9.51313 1.28917 9.76608 1.22485 10.0367C0.758382 11.9847 0.758382 14.0153 1.22485 15.9633C1.28918 16.2339 1.41276 16.4869 1.58667 16.7039C1.76058 16.921 1.9805 17.0967 2.23056 17.2185L3.93036 18.059L4.58392 19.1911L4.46204 21.0835C4.44245 21.3609 4.48468 21.6393 4.58568 21.8984C4.68668 22.1576 4.84394 22.3911 5.0461 22.5821C6.49988 23.96 8.25844 24.9753 10.1787 25.5453C10.4452 25.6249 10.726 25.6444 11.001 25.6023C11.2759 25.5603 11.5381 25.4577 11.7686 25.302L13.3464 24.25H14.6537L16.2314 25.3018C16.5432 25.5112 16.9101 25.6235 17.2858 25.6244C17.4672 25.6244 17.6476 25.5977 17.8213 25.5453C19.7415 24.9753 21.5001 23.96 22.9539 22.5821C23.1561 22.3911 23.3134 22.1575 23.4144 21.8984C23.5154 21.6392 23.5577 21.3608 23.5381 21.0834L23.4162 19.1911L24.0699 18.059L25.7695 17.2185C26.0196 17.0968 26.2395 16.921 26.4134 16.7039C26.5874 16.4869 26.7109 16.2339 26.7752 15.9633C27.2417 14.0153 27.2417 11.9847 26.7752 10.0367L26.7754 10.0368ZM19.6252 13C19.6252 14.1125 19.2953 15.2001 18.6772 16.1251C18.0591 17.0501 17.1806 17.7711 16.1528 18.1968C15.1249 18.6226 13.9939 18.734 12.9028 18.5169C11.8116 18.2999 10.8094 17.7642 10.0227 16.9775C9.23602 16.1908 8.70029 15.1885 8.48325 14.0974C8.26621 13.0062 8.3776 11.8752 8.80334 10.8474C9.22909 9.81958 9.95006 8.94107 10.8751 8.32299C11.8001 7.70491 12.8876 7.375 14.0002 7.375C15.4915 7.37668 16.9213 7.96985 17.9758 9.02438C19.0303 10.0789 19.6235 11.5087 19.6252 13Z" fill="#7C7C7B"/>
</svg>
