<svg width="41" height="41" viewBox="0 0 41 41" fill="none" xmlns="http://www.w3.org/2000/svg">
<path d="M38.5172 2.45354C37.8986 1.82989 37.1627 1.33488 36.3519 0.997077C35.541 0.659272 34.6713 0.485352 33.793 0.485352C32.9146 0.485352 32.0449 0.659272 31.2341 0.997077C30.4232 1.33488 29.6873 1.82989 29.0688 2.45354L20.4854 11.1035L11.9019 2.45354C10.649 1.2006 8.94966 0.49671 7.17774 0.49671C5.40582 0.49671 3.70647 1.2006 2.45354 2.45354C1.2006 3.70647 0.49671 5.40582 0.49671 7.17774C0.49671 8.94966 1.2006 10.649 2.45354 11.9019L11.1035 20.4854L2.45354 29.0688C1.82989 29.6873 1.33488 30.4232 0.997077 31.2341C0.659272 32.0449 0.485352 32.9146 0.485352 33.793C0.485352 34.6713 0.659272 35.541 0.997077 36.3519C1.33488 37.1627 1.82989 37.8986 2.45354 38.5172C3.07209 39.1408 3.80801 39.6358 4.61884 39.9736C5.42967 40.3114 6.29936 40.4854 7.17774 40.4854C8.05612 40.4854 8.92581 40.3114 9.73664 39.9736C10.5475 39.6358 11.2834 39.1408 11.9019 38.5172L20.4854 29.8672L29.0688 38.5172C29.6873 39.1408 30.4232 39.6358 31.2341 39.9736C32.0449 40.3114 32.9146 40.4854 33.793 40.4854C34.6713 40.4854 35.541 40.3114 36.3519 39.9736C37.1627 39.6358 37.8986 39.1408 38.5172 38.5172C39.1408 37.8986 39.6358 37.1627 39.9736 36.3519C40.3114 35.541 40.4854 34.6713 40.4854 33.793C40.4854 32.9146 40.3114 32.0449 39.9736 31.2341C39.6358 30.4232 39.1408 29.6873 38.5172 29.0688L29.8672 20.4854L38.5172 11.9019C39.1408 11.2834 39.6358 10.5475 39.9736 9.73664C40.3114 8.92581 40.4854 8.05612 40.4854 7.17774C40.4854 6.29936 40.3114 5.42967 39.9736 4.61884C39.6358 3.80801 39.1408 3.07209 38.5172 2.45354V2.45354Z" fill="#B5143F"/>
</svg>
