<svg width="39" height="15" viewBox="0 0 39 15" fill="none" xmlns="http://www.w3.org/2000/svg">
<path d="M19.5 3.62497C16.9 3.62497 14.3813 4.03122 12.025 4.79497V9.83247C12.025 10.4825 11.6512 11.035 11.115 11.295C9.5225 12.0912 8.07625 13.115 6.77625 14.3012C6.5 14.5937 6.09375 14.7725 5.6875 14.7725C5.2 14.7725 4.79375 14.5775 4.50125 14.285L0.47125 10.255C0.169544 9.9533 3.07827e-05 9.54413 0 9.11747C0 8.66247 0.17875 8.25622 0.47125 7.96372C5.4275 3.25122 12.1225 0.374969 19.5 0.374969C26.8775 0.374969 33.5725 3.25122 38.5287 7.96372C38.8212 8.25622 39 8.66247 39 9.11747C39 9.55622 38.8212 9.96247 38.5287 10.255L34.4987 14.285C34.2062 14.5775 33.8 14.7725 33.3125 14.7725C32.8968 14.7657 32.5002 14.5965 32.2075 14.3012C30.9237 13.115 29.4775 12.0912 27.885 11.295C27.611 11.1616 27.3803 10.9536 27.2193 10.6948C27.0583 10.4361 26.9736 10.1372 26.975 9.83247V4.79497C24.6187 4.03122 22.1 3.62497 19.5 3.62497Z" fill="#B5143F"/>
</svg>
