<svg width="22" height="22" viewBox="0 0 22 22" fill="none" xmlns="http://www.w3.org/2000/svg">
<path d="M8.9876 12.1314C9.30668 11.4303 9.76077 10.7989 10.3239 10.2732C10.8871 9.74757 11.5483 9.33803 12.2697 9.06796C12.9912 8.7979 13.7588 8.67262 14.5287 8.69926C15.2986 8.72591 16.0557 8.90396 16.7567 9.22326C17.4579 9.54234 18.0893 9.99642 18.615 10.5596C19.1406 11.1227 19.5502 11.7839 19.8202 12.5054C20.0903 13.2269 20.2156 13.9945 20.1889 14.7643C20.1623 15.5342 19.9842 16.2913 19.6649 16.9924C19.2002 18.0183 18.4493 18.8882 17.5023 19.4977C16.5553 20.1073 15.4525 20.4305 14.3263 20.4286C12.0634 20.4286 9.99331 19.1212 9.02112 17.0762H0.916748V15.4C0.967034 14.4446 1.62075 13.6652 2.87789 13.0366C4.13503 12.408 5.71065 12.0812 7.62151 12.0476C8.09922 12.0476 8.55179 12.0895 8.9876 12.1314ZM7.62151 3.66669C8.56017 3.69183 9.34798 4.01869 9.97655 4.64726C10.6051 5.27583 10.9152 6.06364 10.9152 7.01907C10.9152 7.97449 10.6051 8.7623 9.97655 9.39087C9.34798 10.0194 8.56017 10.3295 7.62151 10.3295C6.68284 10.3295 5.89503 10.0194 5.26646 9.39087C4.63789 8.7623 4.32779 7.97449 4.32779 7.01907C4.32779 6.06364 4.63789 5.27583 5.26646 4.64726C5.89503 4.01869 6.68284 3.69183 7.62151 3.66669ZM14.3263 18.7524C15.4376 18.7524 16.5035 18.3109 17.2894 17.525C18.0752 16.7392 18.5167 15.6733 18.5167 14.5619C18.5167 13.4505 18.0752 12.3847 17.2894 11.5988C16.5035 10.8129 15.4376 10.3714 14.3263 10.3714C13.2149 10.3714 12.149 10.8129 11.3632 11.5988C10.5773 12.3847 10.1358 13.4505 10.1358 14.5619C10.1358 15.6733 10.5773 16.7392 11.3632 17.525C12.149 18.3109 13.2149 18.7524 14.3263 18.7524ZM13.4882 12.0476H14.7453V14.4111L16.7903 15.5928L16.1617 16.6823L13.4882 15.1402V12.0476Z" fill="#7C7C7B"/>
</svg>
