<svg width="20" height="28" viewBox="0 0 20 28" fill="none" xmlns="http://www.w3.org/2000/svg">
<path d="M8.44131 15.645C8.76812 16.1 8.76812 16.8467 8.44131 17.3017C8.13043 17.7567 7.62028 17.7567 7.3094 17.3017C6.56281 16.2073 6.14347 14.724 6.14347 13.1775C6.14347 11.631 6.56281 10.1477 7.3094 9.05334L10.1312 4.92334C10.8789 3.83061 11.8924 3.21686 12.949 3.21686C14.0056 3.21686 15.0191 3.83061 15.7668 4.92334C16.5134 6.0177 16.9327 7.501 16.9327 9.0475C16.9327 10.594 16.5134 12.0773 15.7668 13.1717L14.5791 14.91C14.5871 13.9533 14.4834 12.9967 14.2602 12.0867L14.6349 11.5267C14.8583 11.2031 15.0357 10.818 15.1568 10.3934C15.2779 9.96886 15.3402 9.51338 15.3402 9.05334C15.3402 8.59329 15.2779 8.13781 15.1568 7.71327C15.0357 7.28872 14.8583 6.90353 14.6349 6.58C14.4138 6.25294 14.1507 5.9933 13.8606 5.81609C13.5705 5.63889 13.2593 5.54765 12.945 5.54765C12.6307 5.54765 12.3195 5.63889 12.0294 5.81609C11.7393 5.9933 11.4762 6.25294 11.2551 6.58L8.44131 10.6983C8.21784 11.0219 8.04044 11.4071 7.91937 11.8316C7.7983 12.2561 7.73596 12.7116 7.73596 13.1717C7.73596 13.6317 7.7983 14.0872 7.91937 14.5117C8.04044 14.9363 8.21784 15.3215 8.44131 15.645ZM10.6892 10.6983C11 10.2433 11.5102 10.2433 11.8211 10.6983C12.5677 11.7927 12.987 13.276 12.987 14.8225C12.987 16.369 12.5677 17.8523 11.8211 18.9467L8.99929 23.0767C8.25157 24.1694 7.23812 24.7831 6.18149 24.7831C5.12485 24.7831 4.1114 24.1694 3.36369 23.0767C2.61709 21.9823 2.19775 20.499 2.19775 18.9525C2.19775 17.406 2.61709 15.9227 3.36369 14.8283L4.55139 13.09C4.54342 14.0467 4.64704 15.0033 4.87023 15.925L4.49559 16.4733C4.27213 16.7969 4.09473 17.1821 3.97365 17.6066C3.85258 18.0311 3.79024 18.4866 3.79024 18.9467C3.79024 19.4067 3.85258 19.8622 3.97365 20.2867C4.09473 20.7113 4.27213 21.0965 4.49559 21.42C4.71664 21.7471 4.97981 22.0067 5.26988 22.1839C5.55995 22.3611 5.87115 22.4524 6.18547 22.4524C6.49979 22.4524 6.81099 22.3611 7.10106 22.1839C7.39113 22.0067 7.6543 21.7471 7.87535 21.42L10.6892 17.3017C10.9126 16.9781 11.09 16.593 11.2111 16.1684C11.3322 15.7439 11.3945 15.2884 11.3945 14.8283C11.3945 14.3683 11.3322 13.9128 11.2111 13.4883C11.09 13.0637 10.9126 12.6785 10.6892 12.355C10.6118 12.2488 10.55 12.1205 10.5079 11.9781C10.4657 11.8356 10.4439 11.6819 10.4439 11.5267C10.4439 11.3714 10.4657 11.2178 10.5079 11.0753C10.55 10.9328 10.6118 10.8045 10.6892 10.6983Z" fill="#A3A3A3"/>
</svg>
