<svg width="24" height="25" viewBox="0 0 24 25" fill="none" xmlns="http://www.w3.org/2000/svg">
<path d="M22.2223 0H1.77167C0.793667 0 0 0.807292 0 1.80139V23.1962C0 24.1917 0.793667 25 1.77167 25H22.2223C23.201 25 24 24.1917 24 23.1962V1.80139C24 0.807292 23.201 0 22.2223 0ZM7.118 21.3035H3.55667V9.37326H7.118V21.3035ZM5.33733 7.74201C5.06626 7.74201 4.79784 7.68637 4.54742 7.57827C4.297 7.47018 4.06948 7.31173 3.87786 7.11201C3.68625 6.91228 3.53429 6.67518 3.43068 6.41425C3.32707 6.15332 3.27383 5.87369 3.274 5.59132C3.274 5.02133 3.49137 4.47469 3.87829 4.07165C4.26521 3.66861 4.78998 3.44219 5.33717 3.44219C5.88435 3.44219 6.40913 3.66861 6.79605 4.07165C7.18296 4.47469 7.40033 5.02133 7.40033 5.59132C7.40033 6.16142 7.18304 6.70819 6.7962 7.11148C6.40936 7.51476 5.88463 7.74155 5.33733 7.74201ZM20.45 21.3035H16.8943V15.5021C16.8943 14.1181 16.8683 12.3385 15.044 12.3385C13.1913 12.3385 12.909 13.8458 12.909 15.4017V21.3038H9.35067V9.37326H12.7657V11.0024H12.8143C13.2897 10.0649 14.451 9.07569 16.183 9.07569C19.785 9.07569 20.4503 11.5458 20.4503 14.7594V21.3035H20.45Z" fill="white"/>
</svg>
