<svg width="16" height="17" viewBox="0 0 16 17" fill="none" xmlns="http://www.w3.org/2000/svg">
<path d="M14.2125 13.9337L10.1547 9.87587C10.7844 9.06181 11.125 8.0665 11.125 7.01962C11.125 5.7665 10.6359 4.5915 9.75156 3.70556C8.86719 2.81962 7.68906 2.33212 6.4375 2.33212C5.18594 2.33212 4.00781 2.82119 3.12344 3.70556C2.2375 4.58994 1.75 5.7665 1.75 7.01962C1.75 8.27119 2.23906 9.44931 3.12344 10.3337C4.00781 11.2196 5.18438 11.7071 6.4375 11.7071C7.48438 11.7071 8.47813 11.3665 9.29219 10.7384L13.35 14.7946C13.3619 14.8065 13.376 14.816 13.3916 14.8224C13.4071 14.8289 13.4238 14.8322 13.4406 14.8322C13.4575 14.8322 13.4741 14.8289 13.4897 14.8224C13.5052 14.816 13.5194 14.8065 13.5312 14.7946L14.2125 14.1149C14.2244 14.103 14.2338 14.0889 14.2403 14.0734C14.2467 14.0578 14.2501 14.0411 14.2501 14.0243C14.2501 14.0075 14.2467 13.9908 14.2403 13.9753C14.2338 13.9597 14.2244 13.9456 14.2125 13.9337ZM8.9125 9.49462C8.25 10.1556 7.37187 10.5196 6.4375 10.5196C5.50312 10.5196 4.625 10.1556 3.9625 9.49462C3.30156 8.83212 2.9375 7.954 2.9375 7.01962C2.9375 6.08525 3.30156 5.20556 3.9625 4.54462C4.625 3.88369 5.50312 3.51962 6.4375 3.51962C7.37187 3.51962 8.25156 3.88212 8.9125 4.54462C9.57344 5.20712 9.9375 6.08525 9.9375 7.01962C9.9375 7.954 9.57344 8.83369 8.9125 9.49462Z" fill="white"/>
</svg>
