<svg width="92" height="92" viewBox="0 0 92 92" fill="none" xmlns="http://www.w3.org/2000/svg">
<path d="M46 0C20.5887 0 0 20.5887 0 46C0 71.4113 20.5887 92 46 92C71.4113 92 92 71.4113 92 46C92 20.5887 71.4113 0 46 0ZM46 83.0968C25.504 83.0968 8.90323 66.496 8.90323 46C8.90323 25.504 25.504 8.90323 46 8.90323C66.496 8.90323 83.0968 25.504 83.0968 46C83.0968 66.496 66.496 83.0968 46 83.0968ZM57.4629 63.7323L41.7153 52.2879C41.1403 51.8613 40.8065 51.1936 40.8065 50.4887V20.0323C40.8065 18.8081 41.8081 17.8065 43.0323 17.8065H48.9677C50.1919 17.8065 51.1936 18.8081 51.1936 20.0323V46.3153L63.5839 55.3298C64.5855 56.0532 64.7895 57.4444 64.0661 58.446L60.579 63.25C59.8556 64.2331 58.4645 64.4557 57.4629 63.7323Z" fill="#F2F2F2"/>
</svg>
