<svg width="35" height="35" viewBox="0 0 35 35" fill="none" xmlns="http://www.w3.org/2000/svg">
<path d="M6.5771 22.5749L9.49377 20.2562C10.1938 19.702 10.6021 18.8562 10.6021 17.9666V14.1749C15.0063 12.7458 19.775 12.7312 24.1938 14.1749V17.9812C24.1938 18.8708 24.6021 19.7166 25.3021 20.2708L28.2042 22.5749C29.3709 23.4937 31.0334 23.4062 32.0834 22.3562L33.8625 20.577C35.0292 19.4104 35.0292 17.4708 33.7896 16.377C24.4417 8.12286 10.3542 8.12286 1.00627 16.377C-0.233313 17.4708 -0.233313 19.4104 0.933353 20.577L2.71252 22.3562C3.74794 23.4062 5.41044 23.4937 6.5771 22.5749Z" fill="#7C7C7B"/>
</svg>
