<svg width="8" height="11" viewBox="0 0 8 11" fill="none" xmlns="http://www.w3.org/2000/svg">
<path d="M8 0.550331L8 10.4506C7.99969 10.5508 7.97284 10.6491 7.92233 10.7348C7.87181 10.8205 7.79955 10.8904 7.71333 10.9369C7.6271 10.9835 7.53017 11.005 7.43297 10.999C7.33577 10.9931 7.24198 10.96 7.1617 10.9033L0.215985 5.95314C-0.071995 5.74798 -0.071995 5.25407 0.215985 5.04836L7.1617 0.0982182C7.24182 0.0409203 7.33565 0.00731946 7.43301 0.00106635C7.53037 -0.00518676 7.62754 0.0161471 7.71395 0.0627499C7.80036 0.109353 7.87271 0.179442 7.92314 0.265403C7.97357 0.351364 8.00015 0.449909 8 0.550331Z" fill="#7C7C7B"/>
</svg>
