<svg width="23" height="23" viewBox="0 0 23 23" fill="none" xmlns="http://www.w3.org/2000/svg">
<path d="M2.2999 1.1499H20.6999C21.3324 1.1499 21.8499 1.6674 21.8499 2.2999V20.6999L1.1499 20.6769V2.2999C1.1499 1.6674 1.6674 1.1499 2.2999 1.1499ZM6.8999 2.2999L4.5999 5.7499H5.7499L8.0499 2.2999H6.8999ZM11.4999 2.2999H10.3499L8.0499 5.7499H9.1999L11.4999 2.2999ZM14.9499 2.2999H13.7999L11.4999 5.7499H12.6499L14.9499 2.2999ZM18.3999 2.2999H17.2499L14.9499 5.7499H16.0999L18.3999 2.2999ZM19.5499 18.3999V6.8999H3.4499V18.3999H19.5499ZM9.1999 8.0499L16.0999 12.6499L9.1999 17.2499V8.0499Z" fill="#7C7C7B"/>
</svg>
