<svg width="35" height="35" viewBox="0 0 35 35" fill="none" xmlns="http://www.w3.org/2000/svg">
<path d="M18.7891 3.69261C18.2846 2.73886 16.7154 2.73886 16.2108 3.69261L3.08581 28.4843C2.96766 28.7065 2.90909 28.9555 2.9158 29.2071C2.92251 29.4586 2.99427 29.7042 3.1241 29.9198C3.25393 30.1354 3.43738 30.3137 3.6566 30.4373C3.87582 30.5609 4.12332 30.6256 4.37498 30.6251H30.625C30.8765 30.6256 31.1238 30.561 31.3429 30.4374C31.5619 30.3139 31.7453 30.1357 31.875 29.9202C32.0046 29.7048 32.0763 29.4594 32.0829 29.208C32.0895 28.9566 32.0309 28.7077 31.9127 28.4857L18.7891 3.69261ZM18.9583 26.2501H16.0416V23.3334H18.9583V26.2501ZM16.0416 20.4168V13.1251H18.9583L18.9598 20.4168H16.0416Z" fill="#7C7C7B"/>
</svg>
