<svg width="357" height="207" viewBox="0 0 357 207" fill="none" xmlns="http://www.w3.org/2000/svg">
<path d="M6.5 195C15.5 90.5 40 64.1001 76 66.5C113.5 69 114.067 116.5 123 150C131 180 153 181.5 163.5 181C193.776 179.558 199 113.5 200 83C201.35 41.8221 222 32.5 234 32.5C259.6 32.5 266 74.8333 266 96C266 130.4 283.52 133.599 292.5 133C315 131.5 303.5 43 326.5 14C339.5 -4.00001 345.5 1 347.5 5.99997" stroke="#D8D8D7" stroke-dasharray="7 3"/>
<path d="M5.875 204.25H7.125V203H5.875V204.25ZM6.5 194.25C5.67924 194.25 4.86651 194.412 4.10823 194.726C3.34994 195.04 2.66095 195.5 2.08058 196.081C0.90848 197.253 0.25 198.842 0.25 200.5C0.25 202.158 0.90848 203.747 2.08058 204.919C2.66095 205.5 3.34994 205.96 4.10823 206.274C4.86651 206.588 5.67924 206.75 6.5 206.75C8.1576 206.75 9.74732 206.092 10.9194 204.919C12.0915 203.747 12.75 202.158 12.75 200.5C12.75 199.679 12.5883 198.867 12.2742 198.108C11.9602 197.35 11.4998 196.661 10.9194 196.081C10.3391 195.5 9.65006 195.04 8.89177 194.726C8.13349 194.412 7.32076 194.25 6.5 194.25ZM6.5 205.5C3.74375 205.5 1.5 203.256 1.5 200.5C1.5 197.744 3.74375 195.5 6.5 195.5C9.25625 195.5 11.5 197.744 11.5 200.5C11.5 203.256 9.25625 205.5 6.5 205.5ZM6.5 196.75C5.83696 196.75 5.20107 197.013 4.73223 197.482C4.26339 197.951 4 198.587 4 199.25H5.25C5.25 198.918 5.3817 198.601 5.61612 198.366C5.85054 198.132 6.16848 198 6.5 198C6.83152 198 7.14946 198.132 7.38388 198.366C7.6183 198.601 7.75 198.918 7.75 199.25C7.75 200.5 5.875 200.344 5.875 202.375H7.125C7.125 200.969 9 200.812 9 199.25C9 198.587 8.73661 197.951 8.26777 197.482C7.79893 197.013 7.16304 196.75 6.5 196.75Z" fill="#A3A3A3"/>
<path d="M355.806 6.45001L351.839 5.87344L350.065 2.27813C350.017 2.17969 349.937 2.10001 349.839 2.05157C349.592 1.92969 349.292 2.03126 349.168 2.27813L347.395 5.87344L343.428 6.45001C343.318 6.46563 343.218 6.51719 343.142 6.59532C343.049 6.69045 342.998 6.81844 343 6.95117C343.002 7.08389 343.056 7.21048 343.151 7.30313L346.022 10.1016L345.343 14.0531C345.328 14.1451 345.338 14.2396 345.373 14.326C345.408 14.4125 345.466 14.4873 345.542 14.5422C345.617 14.597 345.707 14.6296 345.8 14.6362C345.893 14.6428 345.986 14.6233 346.068 14.5797L349.617 12.7141L353.165 14.5797C353.262 14.6313 353.375 14.6484 353.482 14.6297C353.754 14.5828 353.937 14.325 353.89 14.0531L353.212 10.1016L356.082 7.30313C356.161 7.22657 356.212 7.12657 356.228 7.01719C356.27 6.74376 356.079 6.49063 355.806 6.45001Z" fill="#A3A3A3"/>
</svg>
