<svg width="169" height="75" viewBox="0 0 169 75" fill="none" xmlns="http://www.w3.org/2000/svg">
<path d="M161.5 20.5821C161.5 56.9821 137 74.0821 124 74.0821C94 74.0821 86.5 41.0821 82 28.5821C75 3.58212 59.1912 -4.8895 46.5 5.08215C39.5 10.5821 31.3333 33.0821 29.5 45.0821C23.1 68.2821 11.5 62.4155 6.5 56.5821" stroke="#D8D8D7" stroke-dasharray="5 2"/>
<circle cx="161.5" cy="8.5" r="7.5" fill="#00F7FF"/>
<path d="M164.282 12.5821H158.868V11.4596C159.244 11.1373 159.62 10.815 159.996 10.4928C160.376 10.1705 160.728 9.85003 161.054 9.53134C161.742 8.86533 162.213 8.33717 162.467 7.94687C162.721 7.55299 162.848 7.12867 162.848 6.67392C162.848 6.25856 162.71 5.9345 162.435 5.70175C162.162 5.46542 161.781 5.34726 161.291 5.34726C160.965 5.34726 160.612 5.40455 160.232 5.51913C159.853 5.63372 159.482 5.80917 159.121 6.0455H159.067V4.91757C159.321 4.79225 159.66 4.67766 160.082 4.57382C160.508 4.46998 160.92 4.41806 161.317 4.41806C162.137 4.41806 162.78 4.61679 163.246 5.01425C163.711 5.40813 163.944 5.94345 163.944 6.62021C163.944 6.92457 163.904 7.20924 163.826 7.47421C163.75 7.73561 163.638 7.98447 163.487 8.22079C163.348 8.4428 163.183 8.66122 162.993 8.87607C162.807 9.09091 162.58 9.32903 162.311 9.59042C161.928 9.9664 161.532 10.3316 161.124 10.6861C160.716 11.037 160.334 11.3629 159.98 11.6637H164.282V12.5821Z" fill="#F2F2F2"/>
<path d="M3.92663 53.5693C3.65049 53.5703 3.42747 53.795 3.4285 54.0712L3.4453 58.5711C3.44633 58.8473 3.67103 59.0703 3.94717 59.0693C4.22331 59.0682 4.44633 58.8436 4.4453 58.5674L4.43036 54.5674L8.43033 54.5525C8.70647 54.5515 8.92949 54.3268 8.92846 54.0506C8.92743 53.7745 8.70274 53.5515 8.4266 53.5525L3.92663 53.5693ZM7.89972 57.3065L4.28073 53.7144L3.57627 54.4242L7.19525 58.0162L7.89972 57.3065Z" fill="#D8D8D7"/>
</svg>
