<svg width="782" height="1037" viewBox="0 0 782 1037" fill="none" xmlns="http://www.w3.org/2000/svg">
<path d="M234.105 766.799C301.448 736.246 367.821 680.438 421.805 608.991C442.497 581.606 461.615 551.558 474.819 518.943C488.014 486.324 494.909 450.849 490.31 421.507C484.967 387.48 465.09 365.131 443.108 349.057C421.134 332.986 396.341 321.649 376.523 302.105C356.705 282.561 341.928 252.554 345.633 214.556C348.606 184.043 363.542 151.571 383.367 126.801C403.201 102.033 427.496 84.5686 451.544 74.0683C508.1 49.3852 563.192 62.9598 598.851 102.42C634.509 141.88 651.703 205.057 652.956 273.985C654.21 342.913 640.321 417.434 619.141 490.433C593.338 579.404 555.949 668.543 504.139 745.422C452.329 822.301 385.25 886.217 316.296 914.166C230.781 948.841 152.018 926.334 80.7836 897.142C60.6191 888.881 39.8174 879.237 29.3086 856.73C22.6647 842.496 20.6855 817.956 29.1163 797.824C38.0442 776.505 49.8405 784.509 61.2428 787.49C94.5909 796.227 131.252 796.358 168.717 788.489C190.323 783.952 212.253 776.714 234.105 766.799Z" fill="#FFFBE5"/>
</svg>
