<svg width="56" height="38" viewBox="0 0 56 38" fill="none" xmlns="http://www.w3.org/2000/svg">
<path d="M51.3333 0.25H4.66667C2.08931 0.25 0 2.34863 0 4.9375V33.0625C0 35.6514 2.08931 37.75 4.66667 37.75H51.3333C53.9107 37.75 56 35.6514 56 33.0625V4.9375C56 2.34863 53.9107 0.25 51.3333 0.25ZM52.1111 33.0625C52.1111 33.4933 51.7622 33.8438 51.3333 33.8438H4.66667C4.23782 33.8438 3.88889 33.4933 3.88889 33.0625V4.9375C3.88889 4.50674 4.23782 4.15625 4.66667 4.15625H51.3333C51.7622 4.15625 52.1111 4.50674 52.1111 4.9375V33.0625ZM16.5278 20.3672V17.6328C16.5278 16.9856 16.0054 16.4609 15.3611 16.4609H12.6389C11.9946 16.4609 11.4722 16.9856 11.4722 17.6328V20.3672C11.4722 21.0144 11.9946 21.5391 12.6389 21.5391H15.3611C16.0054 21.5391 16.5278 21.0144 16.5278 20.3672ZM25.8611 20.3672V17.6328C25.8611 16.9856 25.3387 16.4609 24.6944 16.4609H21.9722C21.3279 16.4609 20.8056 16.9856 20.8056 17.6328V20.3672C20.8056 21.0144 21.3279 21.5391 21.9722 21.5391H24.6944C25.3387 21.5391 25.8611 21.0144 25.8611 20.3672ZM35.1944 20.3672V17.6328C35.1944 16.9856 34.6721 16.4609 34.0278 16.4609H31.3056C30.6613 16.4609 30.1389 16.9856 30.1389 17.6328V20.3672C30.1389 21.0144 30.6613 21.5391 31.3056 21.5391H34.0278C34.6721 21.5391 35.1944 21.0144 35.1944 20.3672ZM44.5278 20.3672V17.6328C44.5278 16.9856 44.0054 16.4609 43.3611 16.4609H40.6389C39.9946 16.4609 39.4722 16.9856 39.4722 17.6328V20.3672C39.4722 21.0144 39.9946 21.5391 40.6389 21.5391H43.3611C44.0054 21.5391 44.5278 21.0144 44.5278 20.3672ZM11.8611 28.375V25.6406C11.8611 24.9935 11.3387 24.4688 10.6944 24.4688H7.97222C7.32793 24.4688 6.80556 24.9935 6.80556 25.6406V28.375C6.80556 29.0222 7.32793 29.5469 7.97222 29.5469H10.6944C11.3387 29.5469 11.8611 29.0222 11.8611 28.375ZM49.1944 28.375V25.6406C49.1944 24.9935 48.6721 24.4688 48.0278 24.4688H45.3056C44.6613 24.4688 44.1389 24.9935 44.1389 25.6406V28.375C44.1389 29.0222 44.6613 29.5469 45.3056 29.5469H48.0278C48.6721 29.5469 49.1944 29.0222 49.1944 28.375ZM11.8611 12.3594V9.625C11.8611 8.97783 11.3387 8.45312 10.6944 8.45312H7.97222C7.32793 8.45312 6.80556 8.97783 6.80556 9.625V12.3594C6.80556 13.0065 7.32793 13.5312 7.97222 13.5312H10.6944C11.3387 13.5312 11.8611 13.0065 11.8611 12.3594ZM21.1944 12.3594V9.625C21.1944 8.97783 20.6721 8.45312 20.0278 8.45312H17.3056C16.6613 8.45312 16.1389 8.97783 16.1389 9.625V12.3594C16.1389 13.0065 16.6613 13.5312 17.3056 13.5312H20.0278C20.6721 13.5312 21.1944 13.0065 21.1944 12.3594ZM30.5278 12.3594V9.625C30.5278 8.97783 30.0054 8.45312 29.3611 8.45312H26.6389C25.9946 8.45312 25.4722 8.97783 25.4722 9.625V12.3594C25.4722 13.0065 25.9946 13.5312 26.6389 13.5312H29.3611C30.0054 13.5312 30.5278 13.0065 30.5278 12.3594ZM39.8611 12.3594V9.625C39.8611 8.97783 39.3387 8.45312 38.6944 8.45312H35.9722C35.3279 8.45312 34.8056 8.97783 34.8056 9.625V12.3594C34.8056 13.0065 35.3279 13.5312 35.9722 13.5312H38.6944C39.3387 13.5312 39.8611 13.0065 39.8611 12.3594ZM49.1944 12.3594V9.625C49.1944 8.97783 48.6721 8.45312 48.0278 8.45312H45.3056C44.6613 8.45312 44.1389 8.97783 44.1389 9.625V12.3594C44.1389 13.0065 44.6613 13.5312 45.3056 13.5312H48.0278C48.6721 13.5312 49.1944 13.0065 49.1944 12.3594ZM39.6667 27.7891V26.2266C39.6667 25.5794 39.1443 25.0547 38.5 25.0547H17.5C16.8557 25.0547 16.3333 25.5794 16.3333 26.2266V27.7891C16.3333 28.4362 16.8557 28.9609 17.5 28.9609H38.5C39.1443 28.9609 39.6667 28.4362 39.6667 27.7891Z" fill="#7C7C7B"/>
</svg>
