<svg width="19" height="15" viewBox="0 0 19 15" fill="none" xmlns="http://www.w3.org/2000/svg">
<path fill-rule="evenodd" clip-rule="evenodd" d="M15.6926 0.871817C15.9988 0.568348 16.412 0.397558 16.8431 0.396369C17.2742 0.395179 17.6884 0.563687 17.9962 0.865461C18.304 1.16724 18.4807 1.57803 18.488 2.00903C18.4954 2.44003 18.3328 2.8566 18.0354 3.16869L9.30294 14.0843C9.15285 14.246 8.97171 14.3757 8.77035 14.4657C8.56898 14.5558 8.35153 14.6043 8.13099 14.6084C7.91044 14.6125 7.69134 14.572 7.48678 14.4895C7.28222 14.407 7.0964 14.2841 6.94044 14.1281L1.1545 8.33994C0.993309 8.18974 0.864023 8.00862 0.774353 7.80737C0.684683 7.60612 0.636466 7.38887 0.63258 7.16859C0.628693 6.9483 0.669216 6.72948 0.751731 6.5252C0.834245 6.32091 0.957062 6.13534 1.11285 5.97955C1.26864 5.82376 1.45422 5.70094 1.6585 5.61842C1.86279 5.53591 2.0816 5.49539 2.30189 5.49927C2.52218 5.50316 2.73943 5.55138 2.94068 5.64105C3.14192 5.73072 3.32305 5.86 3.47325 6.02119L8.05387 10.5996L15.6511 0.919942C15.6646 0.902997 15.6792 0.886923 15.6948 0.871817H15.6926Z" fill="#7C7C7B"/>
</svg>
