<svg width="8" height="11" viewBox="0 0 8 11" fill="none" xmlns="http://www.w3.org/2000/svg">
<path d="M1.43707e-06 10.4497L1.55513e-06 0.549387C0.000306732 0.449152 0.0271617 0.3509 0.077675 0.265207C0.128188 0.179515 0.200447 0.109627 0.286674 0.0630664C0.372901 0.0165052 0.469831 -0.00496587 0.56703 0.00096503C0.664229 0.00689593 0.758016 0.0400037 0.838297 0.0967244L7.78401 5.04686C8.072 5.25202 8.072 5.74593 7.78401 5.95164L0.838296 10.9018C0.758183 10.9591 0.664349 10.9927 0.566988 10.9989C0.469627 11.0052 0.372464 10.9839 0.286054 10.9372C0.199645 10.8906 0.127293 10.8206 0.0768614 10.7346C0.0264301 10.6486 -0.000152583 10.5501 1.43707e-06 10.4497Z" fill="#7C7C7B"/>
</svg>
