<svg width="10" height="10" viewBox="0 0 10 10" fill="none" xmlns="http://www.w3.org/2000/svg">
<path d="M9.64179 3.79308L6.6664 3.3967L5.33632 0.924919C5.29999 0.857243 5.24023 0.802458 5.1664 0.769157C4.98124 0.685368 4.75624 0.755192 4.66366 0.924919L3.33358 3.3967L0.358195 3.79308C0.276163 3.80382 0.201163 3.83927 0.143741 3.89298C0.0743216 3.95839 0.0360681 4.04638 0.0373865 4.13763C0.0387049 4.22888 0.0794874 4.31591 0.150773 4.37961L2.30351 6.30353L1.79491 9.02023C1.78299 9.08343 1.79062 9.14842 1.81694 9.20785C1.84325 9.26727 1.88721 9.31875 1.94382 9.35644C2.00043 9.39412 2.06743 9.41652 2.13722 9.42108C2.20701 9.42564 2.27679 9.41219 2.33866 9.38224L4.99999 8.09963L7.66132 9.38224C7.73398 9.41769 7.81835 9.42951 7.89921 9.41662C8.10312 9.38439 8.24023 9.20715 8.20507 9.02023L7.69648 6.30353L9.84921 4.37961C9.9078 4.32697 9.94648 4.25822 9.95819 4.18302C9.98983 3.99504 9.84687 3.82101 9.64179 3.79308Z" fill="#FFDB00"/>
</svg>
