<svg width="531" height="626" viewBox="0 0 531 626" fill="none" xmlns="http://www.w3.org/2000/svg">
<path d="M80.9818 531.587C119.442 539.757 162.462 534.797 199.182 550.367C227.462 562.367 244.652 586.907 268.832 604.077C294.242 622.117 329.332 628.827 359.782 623.947C403.452 616.937 442.412 585.677 458.712 544.557C475.012 503.437 468.042 453.967 441.032 418.947C429.402 403.867 414.332 391.247 405.622 374.317C389.752 343.487 398.772 304.957 417.252 275.617C435.742 246.277 462.502 223.287 485.622 197.437C508.742 171.587 529.122 140.447 530.062 105.787C531.392 56.2971 489.312 12.0171 440.752 2.38709C392.192 -7.25292 340.972 13.2171 305.112 47.3471C269.252 81.4771 247.052 127.707 232.472 175.007C218.632 219.907 209.632 269.137 177.032 302.967C157.172 323.567 130.592 336.087 104.482 347.797C78.3718 359.507 51.5618 371.207 30.6118 390.687C9.65184 410.167 -4.67818 439.367 1.41185 467.327C9.08184 502.567 45.6918 524.097 80.9818 531.587Z" fill="#F8E7EC"/>
</svg>
