<svg width="531" height="626" viewBox="0 0 531 626" fill="none" xmlns="http://www.w3.org/2000/svg">
<path d="M449.111 93.9035C410.651 85.7335 367.631 90.6935 330.911 75.1235C302.631 63.1235 285.441 38.5835 261.261 21.4135C235.851 3.37348 200.761 -3.33651 170.311 1.54349C126.641 8.55349 87.6807 39.8135 71.3807 80.9335C55.0807 122.053 62.0507 171.523 89.0607 206.543C100.691 221.623 115.761 234.243 124.471 251.173C140.341 282.003 131.321 320.534 112.841 349.874C94.3507 379.214 67.5907 402.203 44.4707 428.053C21.3507 453.904 0.970696 485.043 0.0306956 519.703C-1.2993 569.193 40.7807 613.473 89.3407 623.103C137.901 632.743 189.121 612.273 224.981 578.143C260.841 544.013 283.041 497.783 297.621 450.483C311.461 405.583 320.461 356.354 353.061 322.523C372.921 301.923 399.501 289.404 425.611 277.694C451.721 265.984 478.531 254.283 499.481 234.803C520.441 215.323 534.771 186.124 528.681 158.163C521.011 122.923 484.401 101.393 449.111 93.9035Z" fill="#E5FEFF"/>
</svg>
