<svg width="171" height="89" viewBox="0 0 171 89" fill="none" xmlns="http://www.w3.org/2000/svg">
<path d="M158.5 34.5821C158.5 70.9821 134 88.0821 121 88.0821C91 88.0821 83.5 55.0821 79 42.5821C72 17.5821 56.1912 9.1105 43.5 19.0821C36.5 24.5821 28.3333 47.0821 26.5 59.0821C20.1 82.2821 8.5 76.4155 3.5 70.5821" stroke="#D8D8D7" stroke-dasharray="5 2"/>
<circle cx="158.5" cy="22.5" r="7.5" fill="#00F7FF"/>
<path d="M161.282 26.5821H155.868V25.4596C156.244 25.1373 156.62 24.815 156.996 24.4928C157.376 24.1705 157.728 23.85 158.054 23.5313C158.742 22.8653 159.213 22.3372 159.467 21.9469C159.721 21.553 159.848 21.1287 159.848 20.6739C159.848 20.2586 159.71 19.9345 159.435 19.7018C159.162 19.4654 158.781 19.3473 158.291 19.3473C157.965 19.3473 157.612 19.4046 157.232 19.5191C156.853 19.6337 156.482 19.8092 156.121 20.0455H156.067V18.9176C156.321 18.7922 156.66 18.6777 157.082 18.5738C157.508 18.47 157.92 18.4181 158.317 18.4181C159.137 18.4181 159.78 18.6168 160.246 19.0143C160.711 19.4081 160.944 19.9435 160.944 20.6202C160.944 20.9246 160.904 21.2092 160.826 21.4742C160.75 21.7356 160.638 21.9845 160.487 22.2208C160.348 22.4428 160.183 22.6612 159.993 22.8761C159.807 23.0909 159.58 23.329 159.311 23.5904C158.928 23.9664 158.532 24.3316 158.124 24.6861C157.716 25.037 157.334 25.3629 156.98 25.6637H161.282V26.5821Z" fill="#F2F2F2"/>
<path d="M0.926629 67.5693C0.650489 67.5703 0.427468 67.795 0.4285 68.0712L0.445302 72.5711C0.446333 72.8473 0.671025 73.0703 0.947166 73.0693C1.22331 73.0682 1.44633 72.8436 1.4453 72.5674L1.43036 68.5674L5.43033 68.5525C5.70647 68.5515 5.92949 68.3268 5.92846 68.0506C5.92743 67.7745 5.70274 67.5515 5.4266 67.5525L0.926629 67.5693ZM4.89972 71.3065L1.28073 67.7144L0.576265 68.4242L4.19525 72.0162L4.89972 71.3065Z" fill="#D8D8D7"/>
<path d="M149.42 3.427C149.834 3.535 150.158 3.745 150.392 4.057C150.632 4.369 150.752 4.726 150.752 5.128C150.752 5.638 150.566 6.079 150.194 6.451C149.828 6.817 149.297 7 148.601 7H146.27V0.349H148.538C149.144 0.349 149.603 0.511 149.915 0.834999C150.239 1.159 150.401 1.546 150.401 1.996C150.401 2.326 150.311 2.623 150.131 2.887C149.951 3.151 149.714 3.331 149.42 3.427ZM148.511 0.682H146.63V3.283H148.691C149.075 3.283 149.396 3.16 149.654 2.914C149.912 2.662 150.041 2.347 150.041 1.969C150.041 1.579 149.906 1.267 149.636 1.033C149.372 0.799 148.997 0.682 148.511 0.682ZM146.63 6.667H148.61C149.132 6.667 149.558 6.523 149.888 6.235C150.224 5.935 150.392 5.563 150.392 5.119C150.392 4.675 150.224 4.312 149.888 4.03C149.558 3.754 149.141 3.616 148.637 3.616H146.63V6.667ZM153.833 7.117C153.257 7.117 152.792 6.94 152.438 6.586C152.096 6.226 151.925 5.749 151.925 5.155V2.185H152.285V5.146C152.285 5.65 152.423 6.049 152.699 6.343C152.981 6.637 153.359 6.784 153.833 6.784C154.319 6.784 154.697 6.64 154.967 6.352C155.243 6.058 155.381 5.653 155.381 5.137V2.185H155.741V5.155C155.741 5.755 155.57 6.232 155.228 6.586C154.892 6.94 154.427 7.117 153.833 7.117ZM158.423 7.108C158.057 7.108 157.727 7.021 157.433 6.847C157.139 6.667 156.911 6.406 156.749 6.064L157.055 5.893C157.343 6.481 157.793 6.775 158.405 6.775C158.765 6.775 159.062 6.673 159.296 6.469C159.53 6.265 159.647 6.016 159.647 5.722C159.647 5.518 159.587 5.35 159.467 5.218C159.353 5.08 159.173 4.954 158.927 4.84C158.861 4.804 158.669 4.726 158.351 4.606C158.129 4.522 157.946 4.444 157.802 4.372C157.268 4.108 157.001 3.739 157.001 3.265C157.001 2.905 157.13 2.608 157.388 2.374C157.652 2.14 158.003 2.023 158.441 2.023C159.077 2.023 159.548 2.272 159.854 2.77L159.593 2.95C159.359 2.554 158.981 2.356 158.459 2.356C158.117 2.356 157.847 2.44 157.649 2.608C157.451 2.77 157.352 2.986 157.352 3.256C157.352 3.604 157.559 3.88 157.973 4.084C158.105 4.144 158.291 4.222 158.531 4.318C158.777 4.414 158.981 4.501 159.143 4.579C159.443 4.717 159.662 4.87 159.8 5.038C159.938 5.206 160.007 5.422 160.007 5.686C160.007 6.082 159.857 6.421 159.557 6.703C159.257 6.973 158.879 7.108 158.423 7.108ZM163.234 7.108C162.538 7.108 161.959 6.874 161.497 6.406C161.047 5.926 160.822 5.323 160.822 4.597C160.822 3.859 161.053 3.253 161.515 2.779C161.983 2.305 162.574 2.068 163.288 2.068C163.768 2.068 164.197 2.179 164.575 2.401C164.959 2.617 165.244 2.917 165.43 3.301L165.133 3.463C164.977 3.139 164.734 2.881 164.404 2.689C164.074 2.497 163.702 2.401 163.288 2.401C162.676 2.401 162.172 2.605 161.776 3.013C161.38 3.415 161.182 3.943 161.182 4.597C161.182 5.245 161.374 5.77 161.758 6.172C162.142 6.574 162.634 6.775 163.234 6.775C163.642 6.775 164.014 6.679 164.35 6.487C164.692 6.289 164.947 6.028 165.115 5.704L165.403 5.884C165.205 6.262 164.911 6.562 164.521 6.784C164.131 7 163.702 7.108 163.234 7.108ZM170.549 3.265V2.185H170.909V7H170.549V5.893C170.357 6.271 170.081 6.571 169.721 6.793C169.367 7.009 168.968 7.117 168.524 7.117C167.846 7.117 167.279 6.874 166.823 6.388C166.373 5.896 166.148 5.29 166.148 4.57C166.148 3.862 166.373 3.268 166.823 2.788C167.273 2.308 167.84 2.068 168.524 2.068C168.974 2.068 169.376 2.173 169.73 2.383C170.084 2.593 170.357 2.887 170.549 3.265ZM168.515 6.784C169.115 6.784 169.607 6.568 169.991 6.136C170.387 5.704 170.585 5.179 170.585 4.561C170.585 3.967 170.387 3.457 169.991 3.031C169.607 2.611 169.115 2.401 168.515 2.401C167.933 2.401 167.453 2.608 167.075 3.022C166.697 3.436 166.508 3.955 166.508 4.579C166.508 5.209 166.697 5.734 167.075 6.154C167.453 6.574 167.933 6.784 168.515 6.784Z" fill="#BDBDBD"/>
</svg>
