<svg width="293" height="73" viewBox="0 0 293 73" fill="none" xmlns="http://www.w3.org/2000/svg">
<path d="M26 27.0456C53.6 -3.35441 90.5 2.04559 105.5 8.54559C142.3 29.3456 185.5 20.5456 202.5 13.5456C264.1 -14.4544 287.167 10.8789 291 27.0456C295.4 44.6456 280.167 59.7123 272 65.0456" stroke="#D8D8D7" stroke-dasharray="5 2"/>
<circle cx="23.5" cy="32.5" r="7.5" fill="#B5143F"/>
<path d="M25.5786 33.1489C25.7505 33.3029 25.8919 33.4963 26.0029 33.729C26.1139 33.9618 26.1694 34.2625 26.1694 34.6313C26.1694 34.9966 26.1032 35.3314 25.9707 35.6357C25.8382 35.9401 25.652 36.2051 25.4121 36.4307C25.1436 36.6813 24.8267 36.8675 24.4614 36.9893C24.0998 37.1074 23.7023 37.1665 23.269 37.1665C22.825 37.1665 22.3882 37.1128 21.9585 37.0054C21.5288 36.9015 21.1761 36.7869 20.9004 36.6616V35.5391H20.981C21.2853 35.7396 21.6434 35.9061 22.0552 36.0386C22.467 36.1711 22.8644 36.2373 23.2476 36.2373C23.4731 36.2373 23.7131 36.1997 23.9673 36.1245C24.2215 36.0493 24.4274 35.9383 24.585 35.7915C24.7497 35.634 24.8714 35.4603 24.9502 35.2705C25.0326 35.0807 25.0737 34.8408 25.0737 34.5508C25.0737 34.2643 25.0272 34.028 24.9341 33.8418C24.8446 33.652 24.7192 33.5034 24.5581 33.396C24.397 33.285 24.2018 33.2098 23.9727 33.1704C23.7435 33.1274 23.4964 33.106 23.2314 33.106H22.748V32.2144H23.124C23.6683 32.2144 24.1016 32.1016 24.4238 31.876C24.7497 31.6468 24.9126 31.3138 24.9126 30.877C24.9126 30.6836 24.8714 30.5153 24.7891 30.3721C24.7067 30.2253 24.5921 30.1053 24.4453 30.0122C24.2913 29.9191 24.1266 29.8547 23.9512 29.8188C23.7757 29.783 23.577 29.7651 23.355 29.7651C23.0148 29.7651 22.6532 29.826 22.27 29.9478C21.8869 30.0695 21.5252 30.2414 21.1851 30.4634H21.1313V29.3408C21.3856 29.2155 21.724 29.1009 22.1465 28.9971C22.5726 28.8896 22.9844 28.8359 23.3818 28.8359C23.7721 28.8359 24.1159 28.8717 24.4131 28.9434C24.7103 29.015 24.9788 29.1296 25.2188 29.2871C25.4766 29.459 25.6717 29.6667 25.8042 29.9102C25.9367 30.1536 26.0029 30.4383 26.0029 30.7642C26.0029 31.2082 25.8454 31.5967 25.5303 31.9297C25.2188 32.2591 24.8499 32.4668 24.4238 32.5527V32.6279C24.5957 32.6566 24.7926 32.7174 25.0146 32.8105C25.2367 32.9001 25.4246 33.0129 25.5786 33.1489Z" fill="#F2F2F2"/>
<path d="M266.503 68.9448C266.473 69.2192 266.67 69.4664 266.945 69.4969L271.417 69.9939C271.692 70.0244 271.939 69.8266 271.969 69.5522C272 69.2777 271.802 69.0305 271.528 69L267.552 68.5583L267.994 64.5827C268.024 64.3083 267.827 64.0611 267.552 64.0306C267.278 64.0001 267.03 64.1979 267 64.4723L266.503 68.9448ZM271.688 64.6096L266.688 68.6096L267.312 69.3904L272.312 65.3904L271.688 64.6096Z" fill="#D8D8D7"/>
<path d="M2.73553 52.108C2.25553 52.108 1.82353 51.991 1.43953 51.757C1.06153 51.517 0.773531 51.172 0.575531 50.722L0.881531 50.569C1.24153 51.373 1.85053 51.775 2.70853 51.775C3.20653 51.775 3.61153 51.64 3.92353 51.37C4.24753 51.088 4.40953 50.74 4.40953 50.326C4.40953 50.044 4.33153 49.804 4.17553 49.606C4.01953 49.408 3.76753 49.228 3.41953 49.066C3.22753 48.976 2.99053 48.874 2.70853 48.76L2.14153 48.526C1.32553 48.166 0.917531 47.632 0.917531 46.924C0.917531 46.432 1.08853 46.027 1.43053 45.709C1.77853 45.391 2.22853 45.232 2.78053 45.232C3.56653 45.232 4.18153 45.562 4.62553 46.222L4.34653 46.42C3.95653 45.85 3.43753 45.565 2.78953 45.565C2.34553 45.565 1.98253 45.691 1.70053 45.943C1.41853 46.195 1.27753 46.522 1.27753 46.924C1.27753 47.194 1.34953 47.428 1.49353 47.626C1.64353 47.824 1.89253 48.01 2.24053 48.184C2.34853 48.238 2.57353 48.337 2.91553 48.481C3.23353 48.607 3.46453 48.703 3.60853 48.769C4.38253 49.135 4.76953 49.654 4.76953 50.326C4.76953 50.848 4.57453 51.277 4.18453 51.613C3.80053 51.943 3.31753 52.108 2.73553 52.108ZM10.1954 49.291C10.1954 49.357 10.1864 49.498 10.1684 49.714H5.98341C6.01341 50.35 6.21441 50.854 6.58641 51.226C6.96441 51.592 7.46841 51.775 8.09841 51.775C8.42841 51.775 8.75541 51.721 9.07941 51.613C9.40941 51.505 9.68241 51.361 9.89841 51.181L10.0874 51.451C9.85941 51.643 9.56541 51.802 9.20541 51.928C8.84541 52.048 8.47341 52.108 8.08941 52.108C7.27941 52.108 6.66441 51.862 6.24441 51.37C5.83041 50.872 5.62341 50.275 5.62341 49.579C5.62341 48.853 5.83941 48.253 6.27141 47.779C6.70941 47.305 7.28541 47.068 7.99941 47.068C8.63541 47.068 9.15741 47.269 9.56541 47.671C9.98541 48.067 10.1954 48.607 10.1954 49.291ZM7.99941 47.401C7.43541 47.401 6.96741 47.581 6.59541 47.941C6.22941 48.301 6.02841 48.781 5.99241 49.381H9.83541C9.83541 48.775 9.66741 48.295 9.33141 47.941C8.99541 47.581 8.55141 47.401 7.99941 47.401ZM11.7217 45.223V52H11.3617V45.223H11.7217ZM17.4903 49.291C17.4903 49.357 17.4813 49.498 17.4633 49.714H13.2783C13.3083 50.35 13.5093 50.854 13.8813 51.226C14.2593 51.592 14.7633 51.775 15.3933 51.775C15.7233 51.775 16.0503 51.721 16.3743 51.613C16.7043 51.505 16.9773 51.361 17.1933 51.181L17.3823 51.451C17.1543 51.643 16.8603 51.802 16.5003 51.928C16.1403 52.048 15.7683 52.108 15.3843 52.108C14.5743 52.108 13.9593 51.862 13.5393 51.37C13.1253 50.872 12.9183 50.275 12.9183 49.579C12.9183 48.853 13.1343 48.253 13.5663 47.779C14.0043 47.305 14.5803 47.068 15.2943 47.068C15.9303 47.068 16.4523 47.269 16.8603 47.671C17.2803 48.067 17.4903 48.607 17.4903 49.291ZM15.2943 47.401C14.7303 47.401 14.2623 47.581 13.8903 47.941C13.5243 48.301 13.3233 48.781 13.2873 49.381H17.1303C17.1303 48.775 16.9623 48.295 16.6263 47.941C16.2903 47.581 15.8463 47.401 15.2943 47.401ZM20.7356 52.108C20.0396 52.108 19.4606 51.874 18.9986 51.406C18.5486 50.926 18.3236 50.323 18.3236 49.597C18.3236 48.859 18.5546 48.253 19.0166 47.779C19.4846 47.305 20.0756 47.068 20.7896 47.068C21.2696 47.068 21.6986 47.179 22.0766 47.401C22.4606 47.617 22.7456 47.917 22.9316 48.301L22.6346 48.463C22.4786 48.139 22.2356 47.881 21.9056 47.689C21.5756 47.497 21.2036 47.401 20.7896 47.401C20.1776 47.401 19.6736 47.605 19.2776 48.013C18.8816 48.415 18.6836 48.943 18.6836 49.597C18.6836 50.245 18.8756 50.77 19.2596 51.172C19.6436 51.574 20.1356 51.775 20.7356 51.775C21.1436 51.775 21.5156 51.679 21.8516 51.487C22.1936 51.289 22.4486 51.028 22.6166 50.704L22.9046 50.884C22.7066 51.262 22.4126 51.562 22.0226 51.784C21.6326 52 21.2036 52.108 20.7356 52.108ZM26.0706 52.108C25.3746 52.108 24.7956 51.874 24.3336 51.406C23.8836 50.926 23.6586 50.323 23.6586 49.597C23.6586 48.859 23.8896 48.253 24.3516 47.779C24.8196 47.305 25.4106 47.068 26.1246 47.068C26.6046 47.068 27.0336 47.179 27.4116 47.401C27.7956 47.617 28.0806 47.917 28.2666 48.301L27.9696 48.463C27.8136 48.139 27.5706 47.881 27.2406 47.689C26.9106 47.497 26.5386 47.401 26.1246 47.401C25.5126 47.401 25.0086 47.605 24.6126 48.013C24.2166 48.415 24.0186 48.943 24.0186 49.597C24.0186 50.245 24.2106 50.77 24.5946 51.172C24.9786 51.574 25.4706 51.775 26.0706 51.775C26.4786 51.775 26.8506 51.679 27.1866 51.487C27.5286 51.289 27.7836 51.028 27.9516 50.704L28.2396 50.884C28.0416 51.262 27.7476 51.562 27.3576 51.784C26.9676 52 26.5386 52.108 26.0706 52.108ZM29.0835 46.024C29.0835 45.916 29.1195 45.826 29.1915 45.754C29.2695 45.682 29.3595 45.646 29.4615 45.646C29.5635 45.646 29.6505 45.682 29.7225 45.754C29.7945 45.826 29.8305 45.916 29.8305 46.024C29.8305 46.126 29.7945 46.213 29.7225 46.285C29.6505 46.357 29.5635 46.393 29.4615 46.393C29.3595 46.393 29.2695 46.357 29.1915 46.285C29.1195 46.213 29.0835 46.126 29.0835 46.024ZM29.6325 47.185V52H29.2725V47.185H29.6325ZM30.8742 49.588C30.8742 48.874 31.1112 48.277 31.5852 47.797C32.0652 47.311 32.6592 47.068 33.3672 47.068C34.0752 47.068 34.6692 47.311 35.1492 47.797C35.6232 48.277 35.8602 48.874 35.8602 49.588C35.8602 50.308 35.6232 50.908 35.1492 51.388C34.6692 51.874 34.0752 52.117 33.3672 52.117C32.6592 52.117 32.0652 51.874 31.5852 51.388C31.1112 50.908 30.8742 50.308 30.8742 49.588ZM31.2342 49.588C31.2342 50.212 31.4352 50.734 31.8372 51.154C32.2392 51.574 32.7492 51.784 33.3672 51.784C33.9852 51.784 34.4952 51.574 34.8972 51.154C35.2992 50.734 35.5002 50.212 35.5002 49.588C35.5002 48.958 35.2992 48.439 34.8972 48.031C34.4952 47.611 33.9852 47.401 33.3672 47.401C32.7492 47.401 32.2392 47.611 31.8372 48.031C31.4352 48.439 31.2342 48.958 31.2342 49.588ZM37.4121 52H37.0521V47.185H37.3941V48.148C37.6701 47.422 38.2581 47.059 39.1581 47.059C39.7101 47.059 40.1661 47.239 40.5261 47.599C40.8921 47.947 41.0751 48.448 41.0751 49.102V52H40.7151V49.102C40.7151 48.58 40.5741 48.166 40.2921 47.86C40.0161 47.548 39.6381 47.392 39.1581 47.392C38.9661 47.392 38.7741 47.422 38.5821 47.482C38.3961 47.542 38.2101 47.638 38.0241 47.77C37.8441 47.902 37.6971 48.1 37.5831 48.364C37.4691 48.622 37.4121 48.928 37.4121 49.282V52ZM46.6043 48.265V47.185H46.9643V52H46.6043V50.893C46.4123 51.271 46.1363 51.571 45.7763 51.793C45.4223 52.009 45.0233 52.117 44.5793 52.117C43.9013 52.117 43.3343 51.874 42.8783 51.388C42.4283 50.896 42.2033 50.29 42.2033 49.57C42.2033 48.862 42.4283 48.268 42.8783 47.788C43.3283 47.308 43.8953 47.068 44.5793 47.068C45.0293 47.068 45.4313 47.173 45.7853 47.383C46.1393 47.593 46.4123 47.887 46.6043 48.265ZM44.5703 51.784C45.1703 51.784 45.6623 51.568 46.0463 51.136C46.4423 50.704 46.6403 50.179 46.6403 49.561C46.6403 48.967 46.4423 48.457 46.0463 48.031C45.6623 47.611 45.1703 47.401 44.5703 47.401C43.9883 47.401 43.5083 47.608 43.1303 48.022C42.7523 48.436 42.5633 48.955 42.5633 49.579C42.5633 50.209 42.7523 50.734 43.1303 51.154C43.5083 51.574 43.9883 51.784 44.5703 51.784Z" fill="#BDBDBD"/>
</svg>
