<svg width="80" height="48" viewBox="0 0 80 48" fill="none" xmlns="http://www.w3.org/2000/svg">
<circle cx="15.5" cy="7.5" r="7.5" fill="#FFDB00"/>
<path d="M17.8257 12H13.4966V11.1836H15.1616V5.82324H13.4966V5.09277C13.7222 5.09277 13.9639 5.07487 14.2217 5.03906C14.4795 4.99967 14.6746 4.94417 14.8071 4.87256C14.9718 4.78304 15.1007 4.67025 15.1938 4.53418C15.2905 4.39453 15.346 4.20833 15.3604 3.97559H16.1929V11.1836H17.8257V12Z" fill="#F2F2F2"/>
<path d="M25 7.50001C72.2 4.30001 78.6667 28.8333 76 41.5" stroke="#D8D8D7" stroke-dasharray="5 2"/>
<path d="M74.4655 46.2354C74.6086 46.4716 74.9161 46.5469 75.1522 46.4038L79.0003 44.0708C79.2364 43.9276 79.3118 43.6202 79.1686 43.384C79.0254 43.1479 78.718 43.0725 78.4818 43.2157L75.0614 45.2894L72.9876 41.869C72.8444 41.6328 72.537 41.5575 72.3008 41.7006C72.0647 41.8438 71.9893 42.1513 72.1325 42.3874L74.4655 46.2354ZM75.6213 40.9048L74.4074 45.8572L75.3786 46.0952L76.5926 41.1428L75.6213 40.9048Z" fill="#D8D8D7"/>
<path d="M4.87536 27H0.888359V20.349H4.83936V20.682H1.24836V23.472H4.61436V23.805H1.24836V26.667H4.87536V27ZM7.31105 27.108C6.94505 27.108 6.61505 27.021 6.32105 26.847C6.02705 26.667 5.79905 26.406 5.63705 26.064L5.94305 25.893C6.23105 26.481 6.68105 26.775 7.29305 26.775C7.65305 26.775 7.95005 26.673 8.18405 26.469C8.41805 26.265 8.53505 26.016 8.53505 25.722C8.53505 25.518 8.47505 25.35 8.35505 25.218C8.24105 25.08 8.06105 24.954 7.81505 24.84C7.74905 24.804 7.55705 24.726 7.23905 24.606C7.01705 24.522 6.83405 24.444 6.69005 24.372C6.15605 24.108 5.88905 23.739 5.88905 23.265C5.88905 22.905 6.01805 22.608 6.27605 22.374C6.54005 22.14 6.89105 22.023 7.32905 22.023C7.96505 22.023 8.43605 22.272 8.74205 22.77L8.48105 22.95C8.24705 22.554 7.86905 22.356 7.34705 22.356C7.00505 22.356 6.73505 22.44 6.53705 22.608C6.33905 22.77 6.24005 22.986 6.24005 23.256C6.24005 23.604 6.44705 23.88 6.86105 24.084C6.99305 24.144 7.17905 24.222 7.41905 24.318C7.66505 24.414 7.86905 24.501 8.03105 24.579C8.33105 24.717 8.55005 24.87 8.68805 25.038C8.82605 25.206 8.89505 25.422 8.89505 25.686C8.89505 26.082 8.74505 26.421 8.44505 26.703C8.14505 26.973 7.76705 27.108 7.31105 27.108ZM12.1213 27.108C11.4253 27.108 10.8463 26.874 10.3843 26.406C9.93434 25.926 9.70934 25.323 9.70934 24.597C9.70934 23.859 9.94034 23.253 10.4023 22.779C10.8703 22.305 11.4613 22.068 12.1753 22.068C12.6553 22.068 13.0843 22.179 13.4623 22.401C13.8463 22.617 14.1313 22.917 14.3173 23.301L14.0203 23.463C13.8643 23.139 13.6213 22.881 13.2913 22.689C12.9613 22.497 12.5893 22.401 12.1753 22.401C11.5633 22.401 11.0593 22.605 10.6633 23.013C10.2673 23.415 10.0693 23.943 10.0693 24.597C10.0693 25.245 10.2613 25.77 10.6453 26.172C11.0293 26.574 11.5213 26.775 12.1213 26.775C12.5293 26.775 12.9013 26.679 13.2373 26.487C13.5793 26.289 13.8343 26.028 14.0023 25.704L14.2903 25.884C14.0923 26.262 13.7983 26.562 13.4083 26.784C13.0183 27 12.5893 27.108 12.1213 27.108ZM15.7373 27H15.3773V22.185H15.7103V22.995C15.9743 22.371 16.4423 22.059 17.1143 22.059C17.3363 22.059 17.5403 22.089 17.7263 22.149L17.6723 22.473C17.5103 22.419 17.3363 22.392 17.1503 22.392C16.6703 22.392 16.3133 22.563 16.0793 22.905C15.8513 23.253 15.7373 23.67 15.7373 24.156V27ZM18.3072 21.024C18.3072 20.916 18.3432 20.826 18.4152 20.754C18.4932 20.682 18.5832 20.646 18.6852 20.646C18.7872 20.646 18.8742 20.682 18.9462 20.754C19.0182 20.826 19.0542 20.916 19.0542 21.024C19.0542 21.126 19.0182 21.213 18.9462 21.285C18.8742 21.357 18.7872 21.393 18.6852 21.393C18.5832 21.393 18.4932 21.357 18.4152 21.285C18.3432 21.213 18.3072 21.126 18.3072 21.024ZM18.8562 22.185V27H18.4962V22.185H18.8562ZM22.8518 22.077C23.5298 22.077 24.0938 22.32 24.5438 22.806C24.9998 23.286 25.2278 23.883 25.2278 24.597C25.2278 25.317 24.9998 25.917 24.5438 26.397C24.0938 26.883 23.5298 27.126 22.8518 27.126C22.4018 27.126 21.9938 27.012 21.6278 26.784C21.2678 26.556 20.9918 26.244 20.7998 25.848V27H20.4398V20.223H20.7998V23.328C20.9978 22.944 21.2768 22.641 21.6368 22.419C21.9968 22.191 22.4018 22.077 22.8518 22.077ZM22.8608 26.793C23.4428 26.793 23.9228 26.583 24.3008 26.163C24.6788 25.737 24.8678 25.215 24.8678 24.597C24.8678 23.979 24.6788 23.46 24.3008 23.04C23.9228 22.62 23.4428 22.41 22.8608 22.41C22.2668 22.41 21.7718 22.62 21.3758 23.04C20.9858 23.466 20.7908 23.976 20.7908 24.57C20.7908 25.182 20.9858 25.707 21.3758 26.145C21.7718 26.577 22.2668 26.793 22.8608 26.793ZM30.6554 24.291C30.6554 24.357 30.6464 24.498 30.6284 24.714H26.4434C26.4734 25.35 26.6744 25.854 27.0464 26.226C27.4244 26.592 27.9284 26.775 28.5584 26.775C28.8884 26.775 29.2154 26.721 29.5394 26.613C29.8694 26.505 30.1424 26.361 30.3584 26.181L30.5474 26.451C30.3194 26.643 30.0254 26.802 29.6654 26.928C29.3054 27.048 28.9334 27.108 28.5494 27.108C27.7394 27.108 27.1244 26.862 26.7044 26.37C26.2904 25.872 26.0834 25.275 26.0834 24.579C26.0834 23.853 26.2994 23.253 26.7314 22.779C27.1694 22.305 27.7454 22.068 28.4594 22.068C29.0954 22.068 29.6174 22.269 30.0254 22.671C30.4454 23.067 30.6554 23.607 30.6554 24.291ZM28.4594 22.401C27.8954 22.401 27.4274 22.581 27.0554 22.941C26.6894 23.301 26.4884 23.781 26.4524 24.381H30.2954C30.2954 23.775 30.1274 23.295 29.7914 22.941C29.4554 22.581 29.0114 22.401 28.4594 22.401Z" fill="#BDBDBD"/>
</svg>
