<svg xmlns="http://www.w3.org/2000/svg" viewBox="0 0 78.92 65.21"><defs><style>.cls-1,.cls-2,.cls-3{fill:none;stroke-linecap:round;stroke-linejoin:round;}.cls-1{stroke:#efc5d2;stroke-width:3px;}.cls-2{stroke:#b5143f;}.cls-2,.cls-3{stroke-width:1.36px;}.cls-3{stroke:#00f9ff;}</style></defs><g id="Capa_2" data-name="Capa 2"><g id="Capa_1-2" data-name="Capa 1"><path class="cls-1" d="M26.53,39.14s-.08,2.09-4.17,3.32-2.89,6.38-2.89,6.38"/><path class="cls-1" d="M31.87,21.5S11.6,18.31,10.47,38.11C9.42,56.65,30,54.91,30,54.91"/><circle class="cls-2" cx="26.93" cy="38.28" r="18.39"/><path class="cls-2" d="M49,31.73a22.61,22.61,0,0,0-1.83-4.42l1.29-4.62-3-3-3-3L37.91,18a23,23,0,0,0-4.43-1.83L31.13,12h-8.4l-2.36,4.17A22.86,22.86,0,0,0,16,18l-4.61-1.29-3,3-3,3,1.28,4.62a22.57,22.57,0,0,0-1.82,4.42L.68,34.08v8.4l4.18,2.36a22.57,22.57,0,0,0,1.82,4.42L5.4,53.87l3,3,3,3L16,58.53a22.86,22.86,0,0,0,4.42,1.83l2.36,4.17h8.4l2.35-4.17a23,23,0,0,0,4.43-1.83l4.61,1.28,3-3,3-3-1.29-4.61A22.61,22.61,0,0,0,49,44.84l4.18-2.36v-8.4Z"/><circle class="cls-3" cx="62.81" cy="16.12" r="9.07"/><path class="cls-3" d="M75.79,12.26a13.2,13.2,0,0,0-1.08-2.6L75.47,7,73.72,5.2,72,3.46l-2.72.75a13.8,13.8,0,0,0-2.6-1.07L65.28.68H60.34L59,3.14a13.8,13.8,0,0,0-2.6,1.07l-2.71-.75L51.89,5.2,50.15,7l.75,2.71a13.8,13.8,0,0,0-1.07,2.6l-2.46,1.39v4.93L49.83,20a13.8,13.8,0,0,0,1.07,2.6l-.75,2.71L51.89,27l1.75,1.75L56.35,28A13.2,13.2,0,0,0,59,29.1l1.39,2.45h4.94l1.38-2.45A13.2,13.2,0,0,0,69.26,28l2.72.76L73.72,27l1.75-1.75-.76-2.71A13.2,13.2,0,0,0,75.79,20l2.45-1.39V13.65Z"/><path class="cls-2" d="M26.93,25.81A4.94,4.94,0,0,0,22,30.75v2.67a4.94,4.94,0,1,0,9.88,0V30.75A4.94,4.94,0,0,0,26.93,25.81Z"/><path class="cls-2" d="M22,32.23s5.16-1.18,6.4-2.81c.43,1.38,3.48,2.67,3.48,2.67"/><path class="cls-2" d="M25,39.45l-5,2.53a4.45,4.45,0,0,0-2.19,3.84v2.82l.13.15a12.82,12.82,0,0,0,18.15,0l.14-.15V45.82A4.45,4.45,0,0,0,34,42l-5-2.53"/><line class="cls-2" x1="24.95" y1="39.45" x2="24.95" y2="38.11"/><line class="cls-2" x1="28.91" y1="39.45" x2="28.91" y2="38.15"/><path class="cls-2" d="M31.22,40.62a5.58,5.58,0,0,1-8.61,0"/></g></g></svg>