<svg xmlns="http://www.w3.org/2000/svg" viewBox="0 0 74.96 64.18"><defs><style>.cls-1,.cls-2,.cls-3{fill:none;stroke-linecap:round;stroke-linejoin:round;}.cls-1{stroke:#efc5d2;stroke-width:2.57px;}.cls-2{stroke:#b5143f;}.cls-2,.cls-3{stroke-width:1.61px;}.cls-3{stroke:#00f9ff;}</style></defs><g id="Capa_2" data-name="Capa 2"><g id="Capa_1-2" data-name="Capa 1"><polyline class="cls-1" points="37.48 16.81 12.78 16.81 12.78 62.38"/><polyline class="cls-1" points="59.5 2.67 34.2 2.67 34.2 14.9"/><rect class="cls-2" x="11.39" y="14.9" width="27.58" height="48.48"/><polygon class="cls-2" points="45.26 12.83 45.26 7.89 59.99 7.89 59.99 0.81 32.4 0.81 32.4 14.9 38.97 14.9 38.97 63.38 59.99 63.38 59.99 12.83 45.26 12.83"/><line class="cls-3" x1="16.16" y1="19.16" x2="16.16" y2="21.5"/><line class="cls-3" x1="20.67" y1="19.16" x2="20.67" y2="21.5"/><line class="cls-3" x1="25.18" y1="19.16" x2="25.18" y2="21.5"/><line class="cls-3" x1="29.69" y1="19.16" x2="29.69" y2="21.5"/><line class="cls-3" x1="34.19" y1="19.16" x2="34.19" y2="21.5"/><line class="cls-3" x1="16.16" y1="26.84" x2="16.16" y2="29.19"/><line class="cls-3" x1="20.67" y1="26.84" x2="20.67" y2="29.19"/><line class="cls-3" x1="25.18" y1="26.84" x2="25.18" y2="29.19"/><line class="cls-3" x1="29.69" y1="26.84" x2="29.69" y2="29.19"/><line class="cls-3" x1="34.19" y1="26.84" x2="34.19" y2="29.19"/><line class="cls-3" x1="16.16" y1="34.52" x2="16.16" y2="36.87"/><line class="cls-3" x1="20.67" y1="34.52" x2="20.67" y2="36.87"/><line class="cls-3" x1="25.18" y1="34.52" x2="25.18" y2="36.87"/><line class="cls-3" x1="29.69" y1="34.52" x2="29.69" y2="36.87"/><line class="cls-3" x1="34.19" y1="34.52" x2="34.19" y2="36.87"/><line class="cls-3" x1="16.16" y1="42.2" x2="16.16" y2="44.55"/><line class="cls-3" x1="20.67" y1="42.2" x2="20.67" y2="44.55"/><line class="cls-3" x1="25.18" y1="42.2" x2="25.18" y2="44.55"/><line class="cls-3" x1="29.69" y1="42.2" x2="29.69" y2="44.55"/><line class="cls-3" x1="34.19" y1="42.2" x2="34.19" y2="44.55"/><rect class="cls-2" x="18.91" y="49.88" width="12.54" height="13.49"/><rect class="cls-2" x="18.91" y="49.88" width="12.54" height="3.22"/><line class="cls-2" x1="42.25" y1="17.88" x2="59.99" y2="17.88"/><line class="cls-2" x1="42.25" y1="24.03" x2="59.99" y2="24.03"/><line class="cls-2" x1="42.25" y1="30.18" x2="59.99" y2="30.18"/><line class="cls-2" x1="42.25" y1="36.33" x2="59.99" y2="36.33"/><line class="cls-2" x1="42.25" y1="42.48" x2="59.99" y2="42.48"/><line class="cls-2" x1="42.25" y1="48.63" x2="59.99" y2="48.63"/><rect class="cls-2" x="23.87" y="6.36" width="8.54" height="8.54"/><rect class="cls-3" x="53.96" y="56.21" width="6.03" height="7.16"/><line class="cls-2" x1="25.18" y1="53.11" x2="25.18" y2="63.38"/><rect class="cls-3" x="45.26" y="7.89" width="18.31" height="4.94"/><line class="cls-2" x1="0.81" y1="63.38" x2="74.15" y2="63.38"/></g></g></svg>