<svg xmlns="http://www.w3.org/2000/svg" viewBox="0 0 75.34 56.9"><defs><style>.cls-1{fill:#efc5d2;}.cls-2,.cls-3{fill:none;stroke-linecap:round;stroke-linejoin:round;stroke-width:1.52px;}.cls-2{stroke:#b5143f;}.cls-3{stroke:#00f9ff;}</style></defs><g id="Capa_2" data-name="Capa 2"><g id="Capa_1-2" data-name="Capa 1"><path class="cls-1" d="M36,1.9a13.33,13.33,0,0,0-3.26,3.75,14.57,14.57,0,0,0-2.47,4.95,14.39,14.39,0,0,0,0,3.65c.1,1.59.23,3.18.41,4.76.35,3.27.86,6.52,1.48,9.75.27,1.42,2.44.82,2.17-.6-.55-2.87-1-5.76-1.35-8.67-.16-1.43-.29-2.85-.4-4.29a22.92,22.92,0,0,1-.19-4A10.57,10.57,0,0,1,34.32,7.3a12.25,12.25,0,0,1,2.79-3.46C38.3,3,37.18,1.08,36,1.9Z"/><path class="cls-1" d="M2.27,22.21C8.7,30,17.7,34.76,27.27,37.45a1.13,1.13,0,0,0,.6-2.17c-9.23-2.6-17.81-7.2-24-14.66-.93-1.11-2.51.48-1.59,1.59Z"/><path class="cls-1" d="M13.91,35.91a14.25,14.25,0,0,0-4-.94A1.14,1.14,0,0,0,8.5,36.06c-.14,7.6,2.17,15.75,9,20,1.23.76,2.37-1.18,1.13-1.94-6.13-3.79-8-11.24-7.87-18L9.33,37.14a13.8,13.8,0,0,1,3.45.72c1.29.63,2.44-1.31,1.13-2Z"/><path class="cls-2" d="M37.55,43.21V.76s-8,4.8-7.9,11.13S32.28,26.48,34.38,32"/><path class="cls-2" d="M37.55,43.21V.76s8,4.8,7.91,11.13S42.83,26.48,40.73,32"/><path class="cls-2" d="M65.4,21a26.26,26.26,0,0,1,9.18-.63,28.92,28.92,0,0,1-13,12.18c-5.5,2.71-11.49,4.25-17.43,5.77"/><path class="cls-2" d="M37.67,51.43V44.25s-2.73-7-15.15-6.51c-10.27.39-13.79-4.49-13.79-4.49S5.48,56.14,22.94,56.14C30.78,56.14,31.3,51.43,37.67,51.43Z"/><path class="cls-2" d="M16.92,41.66c-.24,5.84,6.77,10.78,14.81,5.64C31.73,47.3,27.43,40.14,16.92,41.66Z"/><path class="cls-2" d="M37.67,51.43V44.25s2.72-7,15.14-6.51c10.28.39,13.79-4.49,13.79-4.49s3.25,22.89-14.2,22.89C44.55,56.14,44,51.43,37.67,51.43Z"/><path class="cls-2" d="M58.42,41.66c.24,5.84-6.77,10.78-14.81,5.64C43.61,47.3,47.9,40.14,58.42,41.66Z"/><path class="cls-3" d="M37.55,43.21a32.92,32.92,0,0,1,26.31-29.1c-.12,4.54-2.28,8.68-5.23,12.13A53,53,0,0,1,48.21,35,81.89,81.89,0,0,0,37.55,43.21Z"/><path class="cls-2" d="M9.93,21a26.22,26.22,0,0,0-9.17-.63,28.92,28.92,0,0,0,13,12.18c5.5,2.71,11.49,4.25,17.43,5.77"/><path class="cls-3" d="M37.55,43.21a33.21,33.21,0,0,0-8.34-18.9,33.29,33.29,0,0,0-18-10.2c.12,4.54,2.28,8.68,5.23,12.13A52.9,52.9,0,0,0,26.89,35,81.22,81.22,0,0,1,37.55,43.21Z"/></g></g></svg>