<svg xmlns="http://www.w3.org/2000/svg" viewBox="0 0 110.99 67.03"><defs><style>.cls-1{fill:#efc5d2;}.cls-2,.cls-3{fill:none;stroke-linecap:round;stroke-linejoin:round;stroke-width:1.34px;}.cls-2{stroke:#b5143f;}.cls-3{stroke:#00f9ff;}</style></defs><g id="Capa_2" data-name="Capa 2"><g id="Capa_1-2" data-name="Capa 1"><path class="cls-1" d="M70.85.67c-5.7,1.67-10,7.48-10.93,13.21-.36,2.19-.17,4.46-.33,6.67s-.17,4.74-1,6.82c-.53,1.35,1.64,1.94,2.17.6a22.2,22.2,0,0,0,1-6.08c.18-2,.16-4,.22-6.07.18-5.41,4.18-11.43,9.49-13a1.13,1.13,0,0,0-.6-2.17Z"/><path class="cls-1" d="M61.17,29.93a16.7,16.7,0,0,0,1.23,4.54,12.79,12.79,0,0,0,2.22,4.23,1.12,1.12,0,0,0,1.59-1.59,1.09,1.09,0,0,0-.1-.11c-.16-.12.14.2,0,0s-.17-.24-.25-.37c-.17-.28-.32-.56-.47-.85s-.34-.72-.5-1.08c0,0-.13-.32,0-.1,0-.1-.07-.19-.11-.29l-.23-.57c-.28-.75-.54-1.5-.76-2.27-.09-.32-.18-.65-.25-1l-.09-.46c0-.25,0,.16,0,.05s0-.13,0-.19a1.16,1.16,0,0,0-1.13-1.13,1.13,1.13,0,0,0-1.12,1.13Z"/><path class="cls-1" d="M70,39.84a26.26,26.26,0,0,1-.27,4.07,3.12,3.12,0,0,1-2.32,2c-3.26,1.07-6.55,1.93-9.87,2.82s-7,2.34-9.19,5.32c-2.36,3.25-1.18,7.56-1,11.24.08,1.44,2.33,1.45,2.25,0-.22-3.82-1.57-8.16,1.63-11.1,2.87-2.64,6.91-3.28,10.55-4.21,1.78-.46,3.49-1.08,5.24-1.62A11,11,0,0,0,70,47.17c2.5-1.66,2.14-4.68,2.32-7.33.1-1.44-2.15-1.43-2.25,0Z"/><path class="cls-2" d="M110.32,66.36V58.17a8.09,8.09,0,0,0-5.81-7.61L89.59,45.84A3,3,0,0,1,87.49,43V39.1l1.88-24.23c0-8-7-14.4-15.46-14.19C64.8.9,58.09,8.86,59.46,17.35l.3,1.87-1.85,8.67a1,1,0,0,0,1,1.18h2.48l1,6.38a4.48,4.48,0,0,0,4.5,3.65H70V43a3,3,0,0,1-2.1,2.87L52.94,50.56a8.09,8.09,0,0,0-5.81,7.61v8.19Z"/><path class="cls-2" d="M85.4,13.49c.07-4.68-4.87-9.14-11-9.14s-11,3.75-11,8.38c0,3.24,2.41,4.17,5.92,4.44a9.33,9.33,0,0,1,5.44,2.27A6.47,6.47,0,0,0,79.1,21C82.64,21,85.4,18.51,85.4,13.49Z"/><path class="cls-3" d="M.67,66.36V58.17a8.09,8.09,0,0,1,5.81-7.61L21.4,45.84A3,3,0,0,0,23.5,43V39.1L21.62,14.87c0-8,7-14.4,15.46-14.19C46.19.9,52.89,8.86,51.53,17.35l-.3,1.87,1.85,8.67a1,1,0,0,1-1,1.18H49.64l-1,6.38a4.48,4.48,0,0,1-4.5,3.65H41V43a3,3,0,0,0,2.1,2.87l14.92,4.72a8.08,8.08,0,0,1,5.8,7.61v8.19Z"/><path class="cls-3" d="M25.59,13.49c-.07-4.68,4.87-9.14,11-9.14s11,3.75,11,8.38c0,3.24-2.41,4.17-5.92,4.44a9.3,9.3,0,0,0-5.44,2.27A6.47,6.47,0,0,1,31.89,21C28.34,21,25.59,18.51,25.59,13.49Z"/></g></g></svg>