<svg xmlns="http://www.w3.org/2000/svg" viewBox="0 0 52.84 71.85"><defs><style>.cls-1,.cls-2,.cls-5{fill:none;}.cls-1{stroke:#efc5d2;stroke-width:2px;}.cls-1,.cls-5{stroke-miterlimit:10;}.cls-2,.cls-4{stroke:#b5143f;stroke-linecap:round;stroke-linejoin:round;stroke-width:1.86px;}.cls-3{fill:#b5143f;}.cls-4{fill:#fff;}.cls-5{stroke:#00f9ff;stroke-width:1.93px;}</style></defs><g id="Capa_2" data-name="Capa 2"><g id="Capa_1-2" data-name="Capa 1"><path class="cls-1" d="M20.78,36.68s1.06,5.1.09,5.51-10.12-1.5-13.49,1.09S3,47.92,2.74,51.06s0,19.86,0,19.86"/><path class="cls-1" d="M36.68,3S21.51,1.94,19.49,3s-5.71,4.5-6,7.23.18,20.15.18,20.15"/><path class="cls-2" d="M39.3,40.4H33.2V36.82a3.18,3.18,0,0,1-.53-.44c-.21.1-.41.21-.62.3a14.26,14.26,0,0,1-5.63,1.14v33.1H51.91V53A12.61,12.61,0,0,0,39.3,40.4Z"/><path class="cls-2" d="M26.42,37.82a14.26,14.26,0,0,1-5.63-1.14c-.21-.09-.41-.2-.62-.3a3.18,3.18,0,0,1-.53.44V40.3s0,.07,0,.1H13.54A12.61,12.61,0,0,0,.93,53V70.92H26.42V37.82Z"/><path class="cls-2" d="M12,23.36V11.76a10.82,10.82,0,0,1,6.61-10,10.82,10.82,0,0,0-6.61,10v11.6a14.45,14.45,0,0,0,2.4,8h0A14.45,14.45,0,0,1,12,23.36Z"/><path class="cls-2" d="M38.48,31.34a14.37,14.37,0,0,0,2.4-8h0a14.37,14.37,0,0,1-2.4,8Z"/><path class="cls-2" d="M22.47,25.69a13.46,13.46,0,0,1,7.9,0L36,27.42l1.42-.72c0-.45.07-.91.07-1.38,0-6.74-5-12.2-11.11-12.2s-11.11,5.46-11.11,12.2a12.48,12.48,0,0,0,.08,1.38l1.42.72Z"/><path class="cls-2" d="M36,29.85V27.42l-5.67-1.73a13.46,13.46,0,0,0-7.9,0l-5.66,1.73v2.43a3.2,3.2,0,0,1,.63-.07"/><path class="cls-2" d="M32.05,36.68c.21-.09.41-.2.62-.3h0C32.46,36.48,32.26,36.59,32.05,36.68Z"/><path class="cls-2" d="M20.17,36.38c.21.1.41.21.62.3-.21-.09-.41-.2-.62-.3Z"/><path class="cls-3" d="M32,22.41A1.39,1.39,0,1,0,30.57,21,1.38,1.38,0,0,0,32,22.41Z"/><path class="cls-3" d="M20.88,22.41A1.39,1.39,0,1,0,19.49,21,1.38,1.38,0,0,0,20.88,22.41Z"/><path class="cls-2" d="M15.39,26.7a12.48,12.48,0,0,1-.08-1.38c0-6.74,5-12.2,11.11-12.2s11.11,5.46,11.11,12.2c0,.47,0,.93-.07,1.38"/><path class="cls-2" d="M37.46,26.7A13.41,13.41,0,0,1,36.68,30a3.82,3.82,0,0,1,1.8,1.32,14.37,14.37,0,0,0,2.4-8V11.76A10.83,10.83,0,0,0,30.06.93H22.79A10.81,10.81,0,0,0,12,11.76v11.6a14.45,14.45,0,0,0,2.4,8A3.8,3.8,0,0,1,16.17,30a12.57,12.57,0,0,1-.78-3.32"/><path class="cls-4" d="M14.36,31.34h0"/><circle class="cls-5" cx="17.36" cy="33.72" r="3.87"/><circle class="cls-5" cx="35.44" cy="33.72" r="3.87"/></g></g></svg>