<svg xmlns="http://www.w3.org/2000/svg" viewBox="0 0 77.02 54.12"><defs><style>.cls-1,.cls-2,.cls-3{fill:none;stroke-linecap:round;stroke-linejoin:round;}.cls-1{stroke:#efc5d2;stroke-width:2.17px;}.cls-2{stroke:#b5143f;}.cls-2,.cls-3{stroke-width:1.47px;}.cls-3{stroke:#00f9ff;}</style></defs><g id="Capa_2" data-name="Capa 2"><g id="Capa_1-2" data-name="Capa 1"><path class="cls-1" d="M5.4,46.91v-41c21.5-9.12,32.31,2,32.31,2S51.33-3.8,72.5,5.74"/><polyline class="cls-2" points="3.79 6.89 0.73 6.72 0.73 51.25 19.62 52.32 38.51 53.39 38.51 8.86"/><path class="cls-2" d="M3.79,4.36v44.3c25.07-9.18,34.72,2,34.72,2V6.33S28.86-4.82,3.79,4.36Z"/><polyline class="cls-2" points="72.97 6.91 76.29 6.72 76.29 51.25 57.4 52.32 38.51 53.39 38.51 8.86"/><path class="cls-2" d="M73.24,4.36v44.3c-25.07-9.18-34.73,2-34.73,2V6.33S48.17-4.82,73.24,4.36Z"/><line class="cls-2" x1="3.79" y1="48.66" x2="38.51" y2="50.63"/><line class="cls-2" x1="73.24" y1="48.66" x2="38.51" y2="50.63"/><path class="cls-2" d="M38.51,6.33s9.66-11.15,34.73-2"/><path class="cls-2" d="M42.28,9.18c4.33-2.29,12.61-4.64,26-.85"/><path class="cls-2" d="M42.28,15.62c4.33-2.29,12.61-4.64,26-.85"/><path class="cls-2" d="M42.28,22.07c4.33-2.3,12.61-4.65,26-.86"/><path class="cls-2" d="M42.28,28.51c4.33-2.3,12.61-4.65,26-.86"/><path class="cls-2" d="M42.28,35c4.33-2.3,12.61-4.65,26-.86"/><path class="cls-2" d="M42.28,41.39c4.33-2.29,12.61-4.64,26-.86"/><path class="cls-2" d="M34.74,9.18a27.11,27.11,0,0,0-13-2.85"/><path class="cls-2" d="M34.74,15.62a27.11,27.11,0,0,0-13-2.85"/><path class="cls-2" d="M34.74,22.07a27,27,0,0,0-13-2.86"/><path class="cls-2" d="M34.74,28.51c-4.33-2.3-12.6-4.65-26-.86"/><path class="cls-2" d="M34.74,35c-4.33-2.3-12.6-4.65-26-.86"/><path class="cls-2" d="M34.74,41.39c-4.33-2.29-12.6-4.64-26-.86"/><path class="cls-3" d="M8.78,8.33V21.21a52.32,52.32,0,0,1,9.46-1.82V6.5A51.55,51.55,0,0,0,8.78,8.33Z"/></g></g></svg>