<svg xmlns="http://www.w3.org/2000/svg" viewBox="0 0 70.15 64.66"><defs><style>.cls-1{fill:#efc5d2;}.cls-2,.cls-3{fill:none;stroke-linecap:round;stroke-linejoin:round;stroke-width:1.61px;}.cls-2{stroke:#00f9ff;}.cls-3{stroke:#b5143f;}</style></defs><g id="Capa_2" data-name="Capa 2"><g id="Capa_1-2" data-name="Capa 1"><path class="cls-1" d="M13.35,3.32c-2.77.76-5.86,2.2-7.15,4.94a12,12,0,0,0-.65,6.85,39.72,39.72,0,0,0,1.84,7.21c.32,1,.66,1.93,1,2.9.12.38.25.76.35,1.14s.18.76.18.78c.13,1.43,2.38,1.44,2.25,0a19.51,19.51,0,0,0-1.21-4.3A58.93,58.93,0,0,1,8,16.34a13.13,13.13,0,0,1-.12-6.29c.78-2.65,3.58-3.88,6-4.56a1.13,1.13,0,0,0-.6-2.17Z"/><path class="cls-1" d="M56.93,3c-7.66,1.09-14.84,4.65-21.2,8.93a83.34,83.34,0,0,0-16.4,14.4,40.26,40.26,0,0,0-5.09,7,1.51,1.51,0,0,0,0,1.51A71.4,71.4,0,0,0,35.45,56c1.63,1,3.13-1.55,1.51-2.59A67.93,67.93,0,0,1,16.83,33.29V34.8c2.62-4.82,6.71-8.94,10.71-12.63A74.45,74.45,0,0,1,45.92,9.5a41.45,41.45,0,0,1,11.8-3.65c1.91-.27,1.1-3.16-.79-2.89Z"/><circle class="cls-2" cx="34.92" cy="33.53" r="9.04" transform="translate(-13.48 34.51) rotate(-45)"/><path class="cls-2" d="M29.45,33.53a5.47,5.47,0,0,1,5.47-5.47"/><path class="cls-3" d="M13.14,33.53a89.16,89.16,0,0,0,10,11.82C38.52,60.77,56.31,68,62.83,61.45a8.39,8.39,0,0,0,2.27-4.78h0"/><path class="cls-3" d="M19.51,4.06C14.1,2.58,9.63,3,7,5.6,2.77,9.83,4.3,18.77,10.08,28.73"/><path class="cls-3" d="M59.09,37.22a52.15,52.15,0,0,1,4.38,8.86"/><path class="cls-3" d="M29.39,8.28A81.62,81.62,0,0,1,46.73,21.71a87.9,87.9,0,0,1,10,11.82"/><path class="cls-3" d="M8.51,41.22A79.07,79.07,0,0,1,23.1,21.71C38.52,6.29,56.31-.92,62.83,5.6s-.68,24.33-16.1,39.75S13.52,68,7,61.45C4.75,59.2,4.13,55.62,4.91,51.27"/><path class="cls-2" d="M29.83,6.18A5.38,5.38,0,1,1,24.45.8,5.38,5.38,0,0,1,29.83,6.18Z"/><circle class="cls-2" cx="63.97" cy="51.42" r="5.37"/><circle class="cls-2" cx="6.18" cy="46.05" r="5.37"/></g></g></svg>