<svg xmlns="http://www.w3.org/2000/svg" viewBox="0 0 82.48 67.4"><defs><style>.cls-1,.cls-3,.cls-4{fill:none;}.cls-1{stroke:#efc5d2;stroke-linecap:round;stroke-linejoin:round;stroke-width:3px;}.cls-2{fill:#b5143f;}.cls-3,.cls-4{stroke:#00f9ff;stroke-miterlimit:10;}.cls-3{stroke-width:2.86px;}.cls-4{stroke-width:2.77px;}</style></defs><g id="Capa_2" data-name="Capa 2"><g id="Capa_1-2" data-name="Capa 1"><polyline class="cls-1" points="72.25 4.13 57.54 4.13 57.29 7.6 19.61 7.6 18.3 12.14 9.46 12.14 8.14 8.13 3.38 7.6"/><path class="cls-2" d="M73.69,2.93a2.86,2.86,0,0,0-.78-2L72.83.86A2.94,2.94,0,0,0,70.76,0H59A2.94,2.94,0,0,0,56,2.93v.79H21.65A3.36,3.36,0,0,0,18.3,7.07V8.15H10.06L10,7.94a5.06,5.06,0,0,0-1.19-2l-.08-.09A5.1,5.1,0,0,0,1.6,5.74l-.1.09A5.07,5.07,0,0,0,0,9.44V19.5A5.08,5.08,0,0,0,1.41,23l.09.1A5.11,5.11,0,0,0,10,21l.07-.21H18.3v1.08a3.31,3.31,0,0,0,1,2.36l.12.12a3.32,3.32,0,0,0,2.24.86H34.59v.21l.27-.06h0a6.65,6.65,0,0,0,1.78,3.25,6.75,6.75,0,0,0,2.44,1.54l.31.11L22,65.55a1.29,1.29,0,0,0,.58,1.72,1.31,1.31,0,0,0,1.73-.58l15.78-32,.08,25a1.29,1.29,0,0,0,2.58,0L42.62,34.8,58.37,66.69a1.3,1.3,0,0,0,.74.64,1.26,1.26,0,0,0,1-.06,1.35,1.35,0,0,0,.65-.74,1.28,1.28,0,0,0-.07-1L43.25,30.26l.31-.11A6.75,6.75,0,0,0,46,28.61a6.65,6.65,0,0,0,1.78-3.25l.27.06v-.21h8V26A2.94,2.94,0,0,0,59,28.94H70.76A2.94,2.94,0,0,0,73.69,26V2.93ZM7.64,19.5a2.52,2.52,0,0,1-4.31,1.78l-.05-.05a2.48,2.48,0,0,1-.7-1.73V9.44a2.53,2.53,0,0,1,.75-1.79l0-.05,0,0a2.54,2.54,0,0,1,1.71-.67,2.5,2.5,0,0,1,1.79.74s0,0,0,0a2.55,2.55,0,0,1,.69,1.74ZM18.3,18.21H10.23V10.73H18.3ZM34.2,25l0-.08s0-.05,0-.08,0-.05,0-.08h0l.58-.07h0v.05s0,.06,0,.08l0,.1Zm.56-1.89s0,.08,0,.12l-.58-.06c0-.06,0-.11,0-.17l0-.08.58.08Zm9.42,3.71a4,4,0,0,1-6.9-2.86,4,4,0,0,1,1.18-2.85,4.06,4.06,0,0,1,5.72,0,4,4,0,0,1,0,5.71Zm4.3-2.06h0s0,.06,0,.09v.06l0,.09-.58-.08,0-.1v-.13h0l.58.07ZM47.9,23.2c0-.05,0-.09,0-.13l0-.11.58-.08,0,.09a.78.78,0,0,1,0,.16h0ZM56,22.63h-8v-.2l-.27.06h0a6.62,6.62,0,0,0-12.92,0l-.27-.06v.2H21.65a.73.73,0,0,1-.3-.06l-.06.05-.2-.23a.7.7,0,0,1-.2-.52V7.07a.76.76,0,0,1,.22-.54.79.79,0,0,1,.54-.22H56ZM71.11,3V26a.32.32,0,0,1-.11.24.31.31,0,0,1-.24.1H59A.34.34,0,0,1,58.6,26V2.93a.32.32,0,0,1,.11-.24A.32.32,0,0,1,59,2.58H70.76a.37.37,0,0,1,.25.1l.19.19Zm2.58,3.93.36.08Z"/><circle class="cls-3" cx="41.32" cy="23.92" r="5.44"/><path class="cls-4" d="M73.69,5.67c4.57,0,7.4,5.51,7.41,8.8,0,3.47-2.84,8.81-7.41,8.81"/></g></g></svg>