<svg xmlns="http://www.w3.org/2000/svg" viewBox="0 0 56.92 69.58"><defs><style>.cls-1{fill:none;stroke:#efc5d2;stroke-linecap:round;stroke-linejoin:round;stroke-width:2.43px;}.cls-2{fill:#b5143f;}</style></defs><g id="Capa_2" data-name="Capa 2"><g id="Capa_1-2" data-name="Capa 1"><polyline class="cls-1" points="24.4 27.51 17.37 29.18 8.17 47.63"/><path class="cls-1" d="M35.39,52.59l-13.93.57S5.38,56.8,1.22,60.51"/><path class="cls-2" d="M3.41,63.88c.77.37,1.64.79,2.61,1.36,1.21.7,3.84.86,7.19.71a1.93,1.93,0,0,0,.92,3.63,2,2,0,0,0,.41,0l9.06-2c1.12,0,14.75.56,22.57.56,8.5,0,10.75-4.81,10.75-7.35,0-1-.71-2.08-2.11-3.17A12.74,12.74,0,0,0,50,55.3L36.56,51.52V49.2H48a1.69,1.69,0,0,0,1.66-1.32L50,46.61a1.7,1.7,0,0,0-.13-1.13l-8.64-17.6a1.42,1.42,0,0,0-1-.81l-7.84-1.52V22.83a14.2,14.2,0,0,0,4-9.73,9.85,9.85,0,0,0-3-7.23,3.43,3.43,0,0,0,.12-.8,5.07,5.07,0,0,0-10.14,0,3,3,0,0,0,.13.79,9.82,9.82,0,0,0-3,7.24,14.2,14.2,0,0,0,4,9.73v2.72l-7.83,1.52a1.42,1.42,0,0,0-1,.81L6.9,45.48a1.7,1.7,0,0,0-.13,1.13l.29,1.27A1.69,1.69,0,0,0,8.72,49.2H20.16v2.32L5,55.72l-.1,0C4.43,56,.09,58.25.09,60.51c0,1.76,1.39,2.43,3.32,3.37Zm8.25,1a5.73,5.73,0,0,1-1.4-3.23,6.87,6.87,0,0,1,.91-3.15L15.9,58l14.6,2.7A1.69,1.69,0,0,0,32,60.21l1.45-1.46a.58.58,0,0,1,.47-.16l4,.5H38l5.56.25a.41.41,0,0,1,.4.41.43.43,0,0,1-.31.41,107.38,107.38,0,0,1-12.2,2.61l-3.29.44A156.25,156.25,0,0,1,11.66,64.87Zm11.92,1.58a.38.38,0,0,0-.15,0l-9.13,2a.8.8,0,0,1-.41-1.54L18,65.6c3.26-.32,6.82-.79,10.27-1.27,1.33-.18,2.48-.34,3.28-.43a100,100,0,0,0,11.22-2.35A3.59,3.59,0,0,1,44.27,64a6.12,6.12,0,0,1-1.05,3c-8.2-.1-19.52-.54-19.64-.54Zm16.57-38.1v0L48.81,46a.59.59,0,0,1,0,.37l-.29,1.28a.57.57,0,0,1-.56.44H30.87a.25.25,0,0,1-.15,0l-1.79-1.11V37.05a.85.85,0,0,1,.77.7l1.12,6.76a1.14,1.14,0,0,0,1.12,1h.14L40.5,44.4l2.74.55.22-1.11-2.54-.51-3.25-7.59-1.58-8.31,3.85.75a.3.3,0,0,1,.21.17Zm-2.62,9.94,2.17,5.07-2.54.32ZM24.43,5.07a3.94,3.94,0,1,1,7.87,0h0a7,7,0,0,0-7.87,0ZM28.36,5c3.37,0,6.18,2.92,6.73,6.74A7.57,7.57,0,0,0,21.6,12C22.05,8,24.91,5,28.36,5ZM21.7,15c.74-3.58,3.52-6.16,6.66-6.16a7,7,0,0,1,6.69,6c-.64,4.18-3.51,8.67-6.69,8.67S22.41,19.13,21.7,15Zm6.66,9.59a5.24,5.24,0,0,0,2.83-.88v4.84a2.83,2.83,0,0,1-5.66,0V23.72A5.24,5.24,0,0,0,28.36,24.6Zm0,7.92a4,4,0,0,0,4-4V26.7l2.57.5,1.67,8.74L36,43.82l-4.08.51-1.13-6.77a2,2,0,0,0-1.95-1.65h-1a2,2,0,0,0-1.95,1.65l-1.13,6.77-4.08-.51-.54-7.88,1.62-8.73,2.62-.51v1.86a4,4,0,0,0,4,4Zm-9.17,5.77.37,5.39L17,43.36Zm-11,9.34-.3-1.28a.59.59,0,0,1,0-.37l8.65-17.61,0,0a.27.27,0,0,1,.2-.16l3.81-.74-1.54,8.3L15.8,43.33l-2.54.51L13.49,45l2.73-.55,8.42,1.05a1.12,1.12,0,0,0,1.26-.94L27,37.75A.84.84,0,0,1,27.8,37v9.87L26,48a.3.3,0,0,1-.15,0H8.72a.56.56,0,0,1-.55-.44ZM25.86,49.2A1.39,1.39,0,0,0,26.6,49l1.76-1.09L30.12,49a1.4,1.4,0,0,0,.75.22h4.56v2.26H21.29V49.2ZM5.38,56.8l15.14-4.21H36.2l13.51,3.8a11.7,11.7,0,0,1,4.4,2.12c1.08.84,1.68,1.66,1.68,2.28,0,2.15-2,6.22-9.62,6.22H44.53a6.83,6.83,0,0,0,.87-3,4.22,4.22,0,0,0-1.34-2.82,1.55,1.55,0,0,0,.88-.88,6.29,6.29,0,0,1,2.2-.51l0-1.13a6.62,6.62,0,0,0-2.29.45,1.52,1.52,0,0,0-1.34-.91L38,58l-4-.5a1.68,1.68,0,0,0-1.41.49l-1.45,1.45a.55.55,0,0,1-.5.15L16,56.84a.43.43,0,0,0-.16,0l-7.64.84.13,1.13,1.48-.17-.09.2a7.56,7.56,0,0,0-.61,2.8,6.08,6.08,0,0,0,1.13,3.23,8.78,8.78,0,0,1-3.67-.61c-1-.59-1.9-1-2.69-1.4C2,61.93,1.22,61.52,1.22,60.51s2.41-2.83,4.16-3.71Z"/></g></g></svg>