<svg xmlns="http://www.w3.org/2000/svg" viewBox="0 0 71.99 65.97"><defs><style>.cls-1,.cls-2,.cls-3{fill:none;stroke-linecap:round;}.cls-1{stroke:#efc5d2;stroke-miterlimit:10;stroke-width:2.86px;}.cls-2{stroke:#b5143f;}.cls-2,.cls-3{stroke-linejoin:round;stroke-width:1.57px;}.cls-3{stroke:#00f9ff;}</style></defs><g id="Capa_2" data-name="Capa 2"><g id="Capa_1-2" data-name="Capa 1"><polyline class="cls-1" points="7.3 37.23 7.3 5.64 65.3 5.64"/><rect class="cls-2" x="0.79" y="0.79" width="70.41" height="48.48" rx="4.09"/><line class="cls-2" x1="0.79" y1="42.49" x2="71.2" y2="42.49"/><rect class="cls-2" x="5.22" y="4.71" width="61.55" height="33.52"/><rect class="cls-2" x="32.08" y="49.27" width="7.82" height="7.82"/><path class="cls-2" d="M42.77,57.09H29.21a8.09,8.09,0,0,0-8.08,8.09H50.86A8.09,8.09,0,0,0,42.77,57.09Z"/><circle class="cls-3" cx="47.34" cy="23.26" r="4.73"/><line class="cls-3" x1="50.69" y1="26.61" x2="56.21" y2="32.13"/><polyline class="cls-3" points="48.4 27.99 48.4 34.85 24.05 34.85 24.05 8.27 48.4 8.27 48.4 18.65"/><line class="cls-3" x1="28.53" y1="12.19" x2="43.91" y2="12.19"/><line class="cls-3" x1="28.53" y1="17.72" x2="43.91" y2="17.72"/><line class="cls-3" x1="28.53" y1="23.25" x2="42.49" y2="23.25"/><line class="cls-3" x1="28.53" y1="28.78" x2="43.91" y2="28.78"/></g></g></svg>