<svg xmlns="http://www.w3.org/2000/svg" viewBox="0 0 66.82 75.52"><defs><style>.cls-1{fill:#efc5d2;}.cls-2{fill:#00f9ff;}.cls-3{fill:#b5143f;}</style></defs><g id="Capa_2" data-name="Capa 2"><g id="Capa_1-2" data-name="Capa 1"><g id="Layer_14" data-name="Layer 14"><path class="cls-1" d="M62.71,62a48.26,48.26,0,0,1-16.82-9.21,1.75,1.75,0,0,0-1.8-.25,6.44,6.44,0,0,1-.74.25,3,3,0,0,1-3.61-1.61c-2-4.53-7.79-5.3-13-12.4-6.4-8.71-3.91-20.32-1.82-23.58,1.76-2.73,3.5-5.94,1-6.2l-.21,0a4.09,4.09,0,0,1-2.93-2,4,4,0,0,1-.53-2V4.74a3.91,3.91,0,0,1,.53-2h0a4,4,0,0,1,1.24-1.32A12.71,12.71,0,0,1,25.26.76,7.56,7.56,0,0,0,20.9,2.21a3.88,3.88,0,0,0-1.24,1.31h0a3.93,3.93,0,0,0-.53,2v.27a3.91,3.91,0,0,0,.53,2,4.06,4.06,0,0,0,2.93,2,1.33,1.33,0,0,0,.21,0c2.45.26.71,3.47-1.05,6.21-2.09,3.26-4.58,14.87,1.82,23.58,5.21,7.1,11,7.86,13,12.4a3,3,0,0,0,3.61,1.61,6.49,6.49,0,0,0,.74-.26,1.73,1.73,0,0,1,1.8.26,48.44,48.44,0,0,0,16.82,9.2,33.27,33.27,0,0,0,5,1.06c.5.07,1,.12,1.52.16,0-.4-.08-.81-.12-1.2-1.1-.21-2.16-.47-3.2-.77Z"/><path class="cls-2" d="M41.34,74H40.18l1.25-14.27a.8.8,0,0,0,0-.34l-2.52-6.17-1.48.55,2.46,6L38.59,74H37.32a.76.76,0,1,0,0,1.51h4a.76.76,0,1,0,0-1.51Z"/><path class="cls-2" d="M45.51,72.52h-.85L45.8,60.68a.92.92,0,0,0,0-.29l-2.28-7.07L42,53.77l2.23,6.92L43.07,72.52h-.63a.77.77,0,0,0-.79.76.76.76,0,0,0,.79.75h3.07a.76.76,0,0,0,.79-.75.77.77,0,0,0-.79-.76Z"/><path class="cls-2" d="M19.56,2.78C19.08,2.83,7.87,4.27.33,10.5a.91.91,0,0,0-.09,1.31,1,1,0,0,0,.73.32.92.92,0,0,0,.29,0L1.42,12c3.3-1,13.35-4,18.16-3.56L19.73,7c-4-.35-11,1.38-15.57,2.68,6.94-4.27,15.5-5.37,15.6-5.39Z"/><path class="cls-3" d="M23.05,3.76A1.29,1.29,0,0,0,21.73,5a1.32,1.32,0,0,0,2.63,0h0a1.28,1.28,0,0,0-1.31-1.25Z"/><path class="cls-3" d="M66.82,63.91c-1.17-12.43-4.71-21-10.81-26.29-5.31-4.58-11.63-5.89-17.22-7-4.91-1-9.16-1.91-11.49-4.78-4.16-5.13-1.48-9.15,1.1-13,2.05-3.08,4.17-6.26,2-9.51A6.73,6.73,0,0,0,26.1.1a7.69,7.69,0,0,0-5.66,1.49,4.71,4.71,0,0,0-2.11,3.9v.27a4.84,4.84,0,0,0,4.13,4.71l.25,0c.25,0,.4.09.45.19.18.34.13,1.42-2.09,4.88S16.26,30.91,22.91,40A31.27,31.27,0,0,0,31,47.42c2.23,1.56,4,2.78,4.87,4.8a3.8,3.8,0,0,0,4.56,2.05,6,6,0,0,0,.84-.29.93.93,0,0,1,1,.13,49.53,49.53,0,0,0,17,9.33l.18.05a33.94,33.94,0,0,0,5,1.06h0l1.64.17a.77.77,0,0,0,.79-.75v-.07ZM30.82,30a46.49,46.49,0,0,0,7.64,2C43.84,33.16,50,34.43,55,38.74a24.17,24.17,0,0,1,5.57,7.17,31.92,31.92,0,0,1-16.63-1.06,24.27,24.27,0,0,1-11-7.48c-2.09-2.68-2.82-5.37-2-7.34Zm34.32,33.1C62.9,55.07,60.13,53,60,52.9A.84.84,0,0,0,58.9,53,.74.74,0,0,0,59,54.1h0a7.86,7.86,0,0,1,1.54,2,27.84,27.84,0,0,1,2.84,6.81,33.5,33.5,0,0,1-3.33-.76C55.58,53,51.19,50.4,51,50.3a.81.81,0,0,0-1.09.26.73.73,0,0,0,.28,1s3.74,2.2,7.8,9.87A48.57,48.57,0,0,1,43.25,53a2.47,2.47,0,0,0-1.63-.58,2.73,2.73,0,0,0-1,.2c-.21.09-.43.16-.65.23a2.22,2.22,0,0,1-2.65-1.18c-1-2.41-3.06-3.82-5.39-5.45a29.56,29.56,0,0,1-7.7-7.09c-6.14-8.37-3.76-19.67-1.78-22.76C24.56,13,25.19,11.2,24.59,10a2,2,0,0,0-1.7-1l-.18,0a3.29,3.29,0,0,1-2.79-3.22V5.49a3.19,3.19,0,0,1,1.43-2.66,6.34,6.34,0,0,1,4.44-1.25,5.22,5.22,0,0,1,3.27,2.48c1.63,2.43,0,5-2,7.88-2.61,3.92-5.86,8.81-1,14.78a10.3,10.3,0,0,0,3.34,2.65c-1,2.48-.25,5.74,2.2,8.9a25.57,25.57,0,0,0,11.76,8A32.28,32.28,0,0,0,54,48.05a35.18,35.18,0,0,0,7.17-.74,50.46,50.46,0,0,1,3.94,15.82Z"/></g></g></g></svg>