<svg xmlns="http://www.w3.org/2000/svg" viewBox="0 0 59.8 63.44"><defs><style>.cls-1,.cls-2,.cls-3{fill:none;stroke-linecap:round;stroke-linejoin:round;}.cls-1{stroke:#efc5d2;stroke-width:3px;}.cls-2{stroke:#00f9ff;}.cls-2,.cls-3{stroke-width:1.17px;}.cls-3{stroke:#b5143f;}</style></defs><g id="Capa_2" data-name="Capa 2"><g id="Capa_1-2" data-name="Capa 1"><polyline class="cls-1" points="58.21 24.61 2.11 24.61 1.58 27.14"/><line class="cls-1" x1="6.56" y1="29.69" x2="6.56" y2="56.8"/><line class="cls-2" x1="17.27" y1="12.92" x2="24.89" y2="12.92"/><path class="cls-3" d="M25.22.59H16.94a1.58,1.58,0,0,0,0,3.16h8.28a1.58,1.58,0,1,0,0-3.16Z"/><path class="cls-2" d="M17.27,28.14V43.67a3.81,3.81,0,1,0,7.62,0V28.14Z"/><rect class="cls-2" x="17.27" y="3.75" width="7.63" height="19.34"/><line class="cls-2" x1="34.9" y1="12.92" x2="42.53" y2="12.92"/><path class="cls-3" d="M42.85.59H34.57a1.58,1.58,0,1,0,0,3.16h8.28a1.58,1.58,0,1,0,0-3.16Z"/><path class="cls-2" d="M34.9,28.14V43.67a3.82,3.82,0,0,0,7.63,0V28.14Z"/><rect class="cls-2" x="34.9" y="3.75" width="7.63" height="19.34"/><rect class="cls-3" x="0.59" y="23.09" width="58.62" height="5.05"/><path class="cls-3" d="M54.16,57.8H5.64a5,5,0,0,0-5,5.05H59.21A5,5,0,0,0,54.16,57.8Z"/><rect class="cls-3" x="5.43" y="28.14" width="4.96" height="29.66"/><rect class="cls-3" x="49.4" y="28.14" width="4.96" height="29.66" transform="translate(103.76 85.94) rotate(180)"/></g></g></svg>