<svg xmlns="http://www.w3.org/2000/svg" viewBox="0 0 74.45 54.69"><defs><style>.cls-1,.cls-2,.cls-3{fill:none;stroke-linecap:round;stroke-linejoin:round;}.cls-1{stroke:#efc5d2;stroke-width:3px;}.cls-2{stroke:#b5143f;}.cls-2,.cls-3{stroke-width:2px;}.cls-3{stroke:#00f9ff;}</style></defs><g id="Capa_2" data-name="Capa 2"><g id="Capa_1-2" data-name="Capa 1"><path class="cls-1" d="M58.58,3.41H18.05s-7.3,6.31.33,12c0,0-20.87,7.09-2.44,18.91,0,0-22.06,4.12-7.6,18.21"/><path class="cls-2" d="M69,33.91v.38h-53A9.26,9.26,0,0,1,12.58,16.4a9.38,9.38,0,0,1,3.36-.63H69v.39"/><path class="cls-2" d="M69,33.91A10.4,10.4,0,0,1,67,17.69,10.63,10.63,0,0,1,69,16.16"/><line class="cls-2" x1="18.05" y1="21.03" x2="60.56" y2="21.03"/><line class="cls-2" x1="20.25" y1="29.38" x2="41.72" y2="29.38"/><polygon class="cls-3" points="53.74 21.03 53.74 27.52 51.45 26.89 49.16 27.52 49.16 21.03 53.74 21.03"/><path class="cls-2" d="M62.53,15.38v.3H20.48A7.34,7.34,0,0,1,17.81,1.5,7.41,7.41,0,0,1,20.48,1H62.53v.31"/><path class="cls-2" d="M62.53,15.38a8.24,8.24,0,0,1,0-14.07"/><line class="cls-2" x1="22.15" y1="5.17" x2="55.86" y2="5.17"/><line class="cls-2" x1="37.83" y1="11.79" x2="54.85" y2="11.79"/><path class="cls-2" d="M73.45,53.69H10.7a9.7,9.7,0,0,1,0-19.4H73.45"/><path class="cls-2" d="M73.45,53.69A11.48,11.48,0,0,1,68.52,41a11.39,11.39,0,0,1,3-5.12,11,11,0,0,1,2-1.58"/><polyline class="cls-2" points="63.3 40.99 39.21 40.99 20.25 40.99 20.05 40.99 14.36 40.99 12.58 40.99"/><line class="cls-2" x1="44.21" y1="47.94" x2="63.3" y2="47.94"/><polygon class="cls-3" points="20.25 40.99 20.25 49.35 17.31 48.54 14.36 49.35 14.36 40.99 20.25 40.99"/></g></g></svg>