<svg xmlns="http://www.w3.org/2000/svg" viewBox="0 0 104.75 62.87"><defs><style>.cls-1,.cls-2,.cls-3,.cls-4{fill:none;stroke-linecap:round;stroke-linejoin:round;}.cls-1,.cls-2{stroke:#efc5d2;}.cls-1{stroke-width:3px;}.cls-2{stroke-width:3.96px;}.cls-3{stroke:#b5143f;}.cls-3,.cls-4{stroke-width:2px;}.cls-4{stroke:#00f9ff;}</style></defs><g id="Capa_2" data-name="Capa 2"><g id="Capa_1-2" data-name="Capa 1"><path class="cls-1" d="M9.7,5.86C6.53,4.86-.49,7.67,6,15"/><path class="cls-1" d="M56.92,42c-2.46-.24-9.85,2.42-3.69,9.1"/><path class="cls-1" d="M78.18,22.94C75,21.94,68,24.75,74.49,32"/><path class="cls-2" d="M29.89,23.09c-3.17-1.75-15.55,7.74-3.69,15.82"/><circle class="cls-3" cx="28.84" cy="30.59" r="10.12"/><path class="cls-3" d="M22.46,30.59a6.38,6.38,0,0,1,6.38-6.39"/><circle class="cls-3" cx="55.25" cy="46.45" r="6.67"/><circle class="cls-3" cx="76.17" cy="27.22" r="6.67"/><line class="cls-3" x1="14.6" y1="49.83" x2="22.68" y2="38.91"/><line class="cls-3" x1="49.26" y1="43.53" x2="36.42" y2="37.28"/><line class="cls-3" x1="42.92" y1="12.89" x2="35.14" y2="22.67"/><path class="cls-4" d="M17.22,56.25a6.67,6.67,0,1,1-5.53-7.64A6.67,6.67,0,0,1,17.22,56.25Z"/><circle class="cls-4" cx="47.07" cy="7.67" r="6.67"/><path class="cls-3" d="M8.28,3.71A6.67,6.67,0,1,1,1,9.75,6.66,6.66,0,0,1,8.28,3.71Z"/><line class="cls-3" x1="12.49" y1="14.96" x2="21.53" y2="23.6"/><line class="cls-3" x1="71.26" y1="31.73" x2="60.41" y2="41.71"/><line class="cls-3" x1="81.08" y1="31.73" x2="91.93" y2="41.71"/><circle class="cls-4" cx="97.08" cy="46.45" r="6.67"/></g></g></svg>