<svg xmlns="http://www.w3.org/2000/svg" viewBox="0 0 49.16 61.43"><defs><style>.cls-1,.cls-2,.cls-3,.cls-4{fill:none;stroke-linecap:round;stroke-linejoin:round;}.cls-1,.cls-2{stroke:#efc5d2;}.cls-1{stroke-width:3px;}.cls-2{stroke-width:2.47px;}.cls-3{stroke:#00f9ff;}.cls-3,.cls-4{stroke-width:1.43px;}.cls-4{stroke:#b5143f;}</style></defs><g id="Capa_2" data-name="Capa 2"><g id="Capa_1-2" data-name="Capa 1"><path class="cls-1" d="M27.08,3.08s-6.42,7.16-6.43,12.49c0,6.16,6.23,12.08,6.23,12.08"/><path class="cls-1" d="M2.36,27.92s1,9.57,4.9,13.16c4.55,4.15,13.12,3.53,13.12,3.53"/><path class="cls-2" d="M47.65,31.7s-7.93,0-11.33,2.89C32.39,38,31.89,45,31.89,45"/><line class="cls-3" x1="27.01" y1="60.72" x2="27.01" y2="23.82"/><line class="cls-3" x1="0.72" y1="25.19" x2="26.88" y2="51.35"/><line class="cls-3" x1="10.01" y1="34.49" x2="10.38" y2="30.42"/><line class="cls-3" x1="10.01" y1="34.49" x2="5.94" y2="34.86"/><line class="cls-3" x1="16.44" y1="40.92" x2="17.03" y2="34.42"/><line class="cls-3" x1="16.44" y1="40.92" x2="9.95" y2="41.5"/><path class="cls-4" d="M.72,25.19s.44,26.4,20.43,20.43C27.11,25.64.72,25.19.72,25.19Z"/><line class="cls-3" x1="47.97" y1="30.34" x2="27.08" y2="51.23"/><line class="cls-3" x1="40.34" y1="37.97" x2="40.04" y2="34.59"/><line class="cls-3" x1="40.34" y1="37.97" x2="43.72" y2="38.28"/><line class="cls-3" x1="35.05" y1="43.27" x2="34.56" y2="37.87"/><line class="cls-3" x1="35.05" y1="43.27" x2="40.44" y2="43.76"/><path class="cls-4" d="M48.44,29.87s-.37,21.94-17,17C26.51,30.24,48.44,29.87,48.44,29.87Z"/><line class="cls-3" x1="27.01" y1="0.72" x2="27.01" y2="28.8"/><line class="cls-3" x1="27.01" y1="14.3" x2="23.96" y2="11.76"/><line class="cls-3" x1="27.01" y1="14.3" x2="30.05" y2="11.76"/><line class="cls-3" x1="27.01" y1="22.34" x2="22.14" y2="18.28"/><line class="cls-3" x1="27.01" y1="22.34" x2="31.87" y2="18.28"/><path class="cls-4" d="M27,.72S44.84,19.16,27,28.8C9.17,19.16,27,.72,27,.72Z"/></g></g></svg>