<svg xmlns="http://www.w3.org/2000/svg" viewBox="0 0 64.6 42.52"><defs><style>.cls-1{fill:none;stroke:#efc5d2;stroke-linecap:round;stroke-linejoin:round;stroke-width:3px;}.cls-2{fill:#b5143f;}</style></defs><g id="Capa_2" data-name="Capa 2"><g id="Capa_1-2" data-name="Capa 1"><path class="cls-1" d="M22.78,11.73S16.14-2.92,6.17,6.34c-9.81,9.12,17.9,31.07,17.9,31.07"/><circle class="cls-2" cx="24.04" cy="28.14" r="1.26"/><path class="cls-2" d="M63.33,27.13H62.19L59.92,14.38a1.26,1.26,0,0,0-2.47-.06L53.26,32.6,49.91,21.68a1.26,1.26,0,0,0-1.17-.89,1.24,1.24,0,0,0-1.22.81L45.46,27H39.13l5.63-6a12.83,12.83,0,0,0,0-17.25,11,11,0,0,0-16.32,0L24.07,8.36,19.65,3.62a11,11,0,0,0-16.32,0,12.83,12.83,0,0,0,0,17.25L23.14,42.12a1.26,1.26,0,0,0,.93.4,1.24,1.24,0,0,0,.92-.4L36.77,29.49h9.56a1.27,1.27,0,0,0,1.18-.81l1.05-2.75,3.66,11.93a1.27,1.27,0,0,0,1.21.9h0a1.26,1.26,0,0,0,1.18-1l3.86-16.84,1.37,7.68a1.26,1.26,0,0,0,1.24,1h2.2a1.27,1.27,0,1,0,0-2.53ZM24.07,39.41,5.17,19.14a10.29,10.29,0,0,1,0-13.8,8.5,8.5,0,0,1,12.63,0l5.34,5.73a1.27,1.27,0,0,0,.93.41,1.25,1.25,0,0,0,.92-.41l5.3-5.68a8.49,8.49,0,0,1,12.62,0,10.27,10.27,0,0,1,0,13.8L35.67,27h-6a1.27,1.27,0,0,0,0,2.53h3.61Z"/></g></g></svg>