<svg xmlns="http://www.w3.org/2000/svg" viewBox="0 0 72.33 68.69"><defs><style>.cls-1{fill:#efc5d2;}.cls-2,.cls-3,.cls-4,.cls-5{fill:none;stroke-linecap:round;stroke-linejoin:round;}.cls-2,.cls-4{stroke:#b5143f;}.cls-2{stroke-width:2.56px;}.cls-3{stroke:#efc5d2;stroke-width:2.57px;}.cls-4,.cls-5{stroke-width:2px;}.cls-5{stroke:#00f9ff;}</style></defs><g id="Capa_2" data-name="Capa 2"><g id="Capa_1-2" data-name="Capa 1"><path class="cls-1" d="M57.56,9.49a16.51,16.51,0,0,0-2.83,4.71c-.8,1.87-1.58,3.76-2.36,5.63a1.5,1.5,0,0,0,1,1.85,1.55,1.55,0,0,0,1.85-1.05c.67-1.6,1.44-3.49,2.06-4.91a14.92,14.92,0,0,1,2.36-4.1,1.55,1.55,0,0,0,0-2.13,1.52,1.52,0,0,0-2.12,0Z"/><path class="cls-1" d="M46.07,22.12c-.21,3.25-.19,6.67,2.13,9.23a1.51,1.51,0,0,0,2.12,0,1.54,1.54,0,0,0,0-2.12c0-.05-.37-.47-.19-.21a4,4,0,0,1-.22-.34,5.06,5.06,0,0,1-.44-.83c.13.3-.07-.21-.09-.27s-.08-.25-.11-.38c-.09-.31-.15-.61-.21-.92s0,.14,0-.19,0-.42,0-.63c0-.37,0-.74,0-1.11,0-.75.05-1.49.1-2.23a1.5,1.5,0,0,0-1.5-1.5,1.54,1.54,0,0,0-1.5,1.5Z"/><path class="cls-1" d="M46.39,34.76a17.13,17.13,0,0,0-.22,5.05A7,7,0,0,0,48,43.65a1.5,1.5,0,1,0,2.12-2.13c-.11-.11-.21-.23-.31-.35.23.27,0,0,0-.07a3.22,3.22,0,0,1-.39-.73c.12.37,0-.13-.06-.2s-.07-.23-.1-.34-.07-.27-.1-.41-.11-.52,0-.13a7.64,7.64,0,0,1,0-2c0-.34.06-.67.1-1,0-.06.07-.48,0-.18,0-.19,0-.38.08-.57a1.67,1.67,0,0,0-.15-1.16,1.5,1.5,0,0,0-2.74.36Z"/><path class="cls-1" d="M46.19,46.64a11.43,11.43,0,0,0,1.15,6,14,14,0,0,0,4.07,4.66,1.53,1.53,0,0,0,2.12,0,1.51,1.51,0,0,0,0-2.12,21.93,21.93,0,0,1-2.16-1.92c-.15-.16-.29-.33-.43-.49l0-.06c-.08-.1-.15-.21-.23-.32A11.35,11.35,0,0,1,50,51.27L49.87,51c0-.06-.1-.22,0-.07a5.71,5.71,0,0,1-.21-.58,9,9,0,0,1-.34-1.26c0-.13-.05-.26-.07-.38,0,.16,0,0,0-.06s0-.41,0-.62a9.09,9.09,0,0,1,0-1.38,1.5,1.5,0,0,0-1.5-1.5,1.54,1.54,0,0,0-1.5,1.5Z"/><path class="cls-2" d="M64.64,19.36a6.22,6.22,0,1,1-12.43,0c0-3.43,6.22-12,6.22-12S64.64,15.93,64.64,19.36Z"/><path class="cls-2" d="M45.8,44.6v4.66c0,5.79,5.5,10.49,12.27,10.49h0S61.7,47.32,45.8,44.6Z"/><path class="cls-2" d="M71.05,44.6v4.66c0,5.79-5.49,10.49-12.27,10.49h0S55.15,47.32,71.05,44.6Z"/><path class="cls-2" d="M45.8,32.56v4.66c0,5.79,5.5,10.49,12.27,10.49h0S61.7,35.28,45.8,32.56Z"/><path class="cls-2" d="M71.05,32.56v4.66c0,5.79-5.49,10.49-12.27,10.49h0S55.15,35.28,71.05,32.56Z"/><path class="cls-2" d="M45.8,20.6v4.66c0,5.79,5.5,10.49,12.27,10.49h0S61.7,23.32,45.8,20.6Z"/><path class="cls-2" d="M71.05,20.6v4.66c0,5.79-5.49,10.49-12.27,10.49h0S55.15,23.32,71.05,20.6Z"/><line class="cls-2" x1="58.41" y1="59.74" x2="58.41" y2="67.41"/><line class="cls-3" x1="5.63" y1="16.18" x2="5.63" y2="65.35"/><line class="cls-3" x1="27.59" y1="16.18" x2="27.59" y2="65.35"/><path class="cls-4" d="M25.5,7.19V62.07a5.48,5.48,0,0,0,11,0V7.19Z"/><rect class="cls-5" x="22.72" y="1" width="16.51" height="6.19"/><line class="cls-4" x1="25.5" y1="16.18" x2="36.45" y2="16.18"/><path class="cls-4" d="M3.78,7.19V62.07a5.48,5.48,0,0,0,11,0V7.19Z"/><rect class="cls-5" x="1" y="1" width="16.51" height="6.19"/><line class="cls-4" x1="3.78" y1="16.18" x2="14.73" y2="16.18"/></g></g></svg>