<svg xmlns="http://www.w3.org/2000/svg" viewBox="0 0 85.66 74.1"><defs><style>.cls-1,.cls-2,.cls-3{fill:none;stroke-linecap:round;stroke-linejoin:round;}.cls-1{stroke:#efc5d2;stroke-width:2.96px;}.cls-2{stroke:#00f9ff;}.cls-2,.cls-3{stroke-width:1.79px;}.cls-3{stroke:#b5143f;}</style></defs><g id="Capa_2" data-name="Capa 2"><g id="Capa_1-2" data-name="Capa 1"><polyline class="cls-1" points="51.33 12.96 34.3 12.96 34.3 35.37"/><line class="cls-1" x1="3" y1="42.55" x2="3" y2="72.62"/><line class="cls-1" x1="59.45" y1="42.55" x2="59.45" y2="72.62"/><line class="cls-1" x1="29.77" y1="33.49" x2="29.77" y2="72.62"/><polyline class="cls-2" points="52.19 11.18 42.33 0.89 32.46 11.18"/><line class="cls-3" x1="8.3" y1="45.29" x2="5.11" y2="45.29"/><line class="cls-3" x1="23.12" y1="45.29" x2="19.92" y2="45.29"/><polyline class="cls-3" points="0.89 72.62 0.89 46.5 0.89 45.29"/><line class="cls-3" x1="15.71" y1="45.29" x2="12.52" y2="45.29"/><polyline class="cls-3" points="5.11 45.29 5.11 41.83 0.89 41.83 0.89 45.29 0.89 46.5"/><polyline class="cls-3" points="8.3 45.29 8.3 41.83 12.52 41.83 12.52 45.29"/><polyline class="cls-3" points="15.71 45.29 15.71 41.83 19.92 41.83 19.92 45.29"/><polyline class="cls-3" points="27.33 41.83 23.11 41.83 23.11 45.29"/><line class="cls-3" x1="77.36" y1="45.29" x2="80.55" y2="45.29"/><line class="cls-3" x1="62.55" y1="45.29" x2="65.74" y2="45.29"/><polyline class="cls-3" points="84.77 72.62 84.77 46.5 84.77 45.29"/><line class="cls-3" x1="69.95" y1="45.29" x2="73.15" y2="45.29"/><polyline class="cls-3" points="80.55 45.29 80.55 41.83 84.77 41.83 84.77 45.29 84.77 46.5"/><polyline class="cls-3" points="77.36 45.29 77.36 41.83 73.15 41.83 73.15 45.29"/><polyline class="cls-3" points="69.95 45.29 69.95 41.83 65.74 41.83 65.74 45.29"/><polyline class="cls-3" points="58.33 41.83 62.55 41.83 62.55 45.29"/><polyline class="cls-3" points="52.19 32.39 52.19 11.18 32.46 11.18 32.46 28.97"/><line class="cls-3" x1="4.08" y1="50.81" x2="19.92" y2="50.81"/><line class="cls-3" x1="37.58" y1="15.64" x2="45.75" y2="15.64"/><line class="cls-3" x1="42.33" y1="18.93" x2="45.75" y2="18.93"/><polyline class="cls-3" points="57.46 72.62 57.46 38.54 57.46 37.37 57.46 32.27 52.26 32.27 52.2 32.27 52.2 37.37 49.16 37.37 49.16 32.27 43.91 32.27 43.91 37.37 40.87 37.37 40.87 32.27 35.62 32.27 35.62 37.37 32.58 37.37 32.58 32.27 27.33 32.27 27.33 37.37 27.33 38.54 27.33 41.83 27.33 46.5 27.33 72.62"/><path class="cls-2" d="M35.44,72.62V53.74a6.42,6.42,0,0,1,6.42-6.42h1.06a6.42,6.42,0,0,1,6.42,6.42V72.62"/><line class="cls-3" x1="4.03" y1="60.58" x2="14.05" y2="60.58"/><line class="cls-3" x1="4.54" y1="55.83" x2="9.97" y2="55.83"/><line class="cls-3" x1="81.75" y1="50.81" x2="72.67" y2="50.81"/><line class="cls-3" x1="76.05" y1="55.83" x2="81.48" y2="55.83"/></g></g></svg>