<svg xmlns="http://www.w3.org/2000/svg" viewBox="0 0 60.54 73.8"><defs><style>.cls-1,.cls-2,.cls-3{fill:none;stroke-linecap:round;stroke-linejoin:round;}.cls-1{stroke:#efc5d2;stroke-width:3px;}.cls-2{stroke:#b5143f;}.cls-2,.cls-3{stroke-width:1.38px;}.cls-3{stroke:#00f9ff;}</style></defs><g id="Capa_2" data-name="Capa 2"><g id="Capa_1-2" data-name="Capa 1"><path class="cls-1" d="M28.79,6.17H19v24S5.17,32.64,2.9,47.34"/><path class="cls-2" d="M56,31,51.2,24.67l-12,9a22.81,22.81,0,0,0-9.55-5.39V4.11H17.44V28.25A22.86,22.86,0,1,0,43.93,40Z"/><path class="cls-2" d="M30.66.69h-14a1.71,1.71,0,1,0,0,3.42h14a1.71,1.71,0,0,0,0-3.42Z"/><path class="cls-2" d="M59.5,30,53.09,21.7a1.64,1.64,0,1,0-2.6,2L56.91,32a1.64,1.64,0,1,0,2.59-2Z"/><path class="cls-3" d="M46.25,48a25.64,25.64,0,0,0-10.58-.72c-.56.06-1.13.15-1.69.24A3.59,3.59,0,0,0,34,47a4.11,4.11,0,1,0-7.66,2.06,73.34,73.34,0,0,1-7.5,1.4A40.26,40.26,0,0,1,.77,48.41C.72,49,.69,49.64.69,50.27a22.85,22.85,0,0,0,45.69,0A22.08,22.08,0,0,0,46.25,48Z"/><circle class="cls-3" cx="16.35" cy="38.14" r="2.64"/><path class="cls-3" d="M21.87,60.67a2.76,2.76,0,1,1-2.76-2.76A2.77,2.77,0,0,1,21.87,60.67Z"/><path class="cls-3" d="M32.19,62.61a1.94,1.94,0,1,1-1.93-1.94A1.93,1.93,0,0,1,32.19,62.61Z"/></g></g></svg>