<svg xmlns="http://www.w3.org/2000/svg" viewBox="0 0 67.1 67.21"><defs><style>.cls-1{fill:#b5143f;}.cls-2{fill:none;stroke:#efc5d2;stroke-linecap:round;stroke-miterlimit:10;stroke-width:3px;}.cls-3{fill:#00f9ff;}</style></defs><g id="Capa_2" data-name="Capa 2"><g id="Capa_1-2" data-name="Capa 1"><path class="cls-1" d="M46.62,2.67,44.84,2l-.75-.26a1,1,0,0,0-.34-.05,1,1,0,0,0-.47.11,1.06,1.06,0,0,0-.54.62,1,1,0,0,0,.06.81,1.06,1.06,0,0,0,.62.54l2,.72.41.17a1.06,1.06,0,0,0,.83-2Z"/><path class="cls-1" d="M18.28,6l2.27-1.14a1.06,1.06,0,0,0-.44-2,1.12,1.12,0,0,0-.44.09l-1.52.73-.9.48a1.07,1.07,0,1,0,1,1.87Z"/><path class="cls-1" d="M1,31.3a1.05,1.05,0,0,0,.78-.23,1.08,1.08,0,0,0,.39-.72l.29-2.09.07-.41a1.07,1.07,0,0,0-2.1-.39L.15,28.94,0,30.14a1.05,1.05,0,0,0,.23.78A1,1,0,0,0,1,31.3Z"/><path class="cls-1" d="M30.85.41a1.07,1.07,0,0,0-.68-.24H30l-2.1.28-.54.1a1.06,1.06,0,0,0-.86,1.24,1.08,1.08,0,0,0,1.25.86l1.87-.29.63-.07a1,1,0,0,0,.95-1.17A1,1,0,0,0,30.85.41Z"/><path class="cls-1" d="M11.41,8.6a1,1,0,0,0-.72.29h0l-1.44,1.4-.47.5a1.07,1.07,0,0,0,.83,1.79,1.11,1.11,0,0,0,.74-.34l1.38-1.41.41-.38a1.07,1.07,0,0,0,.34-.74,1.08,1.08,0,0,0-.28-.77A1.1,1.1,0,0,0,11.41,8.6Z"/><path class="cls-1" d="M36,2.23a1.07,1.07,0,0,0,1.15-1,1,1,0,0,0-.26-.77,1,1,0,0,0-.73-.37l-2-.1h-.65a1.07,1.07,0,1,0,0,2.13l1.82.05Z"/><path class="cls-1" d="M38.4,66.62a1,1,0,0,0,.8.18l2.27-.47.37-.09a1.08,1.08,0,0,0,.77-1.3,1.07,1.07,0,0,0-.49-.65,1,1,0,0,0-.54-.15,1.24,1.24,0,0,0-.27,0l-1.87.42-.58.11a1.07,1.07,0,0,0-.71.44,1,1,0,0,0-.18.79A1.06,1.06,0,0,0,38.4,66.62Z"/><path class="cls-1" d="M31.27,65.08l-2.21-.23-.31,0H28.6a1.06,1.06,0,0,0-.86,1.7,1.05,1.05,0,0,0,.7.42l2,.24.67,0A1.08,1.08,0,0,0,31.9,67a1,1,0,0,0,.36-.74,1.05,1.05,0,0,0-.26-.77A1.09,1.09,0,0,0,31.27,65.08Z"/><path class="cls-1" d="M18.2,63.63h0l2,.94.46.19a1.06,1.06,0,0,0,.82,0,1.08,1.08,0,0,0,.57-.58,1.06,1.06,0,0,0,0-.82,1.08,1.08,0,0,0-.58-.57L19.64,62l-.48-.24a1,1,0,0,0-.48-.12,1.07,1.07,0,0,0-.48,2Z"/><path class="cls-1" d="M58,53.39l-1.49,1.72-.18.19a1.06,1.06,0,0,0-.28.76,1,1,0,0,0,.33.74,1,1,0,0,0,.76.29,1,1,0,0,0,.75-.33L59.3,55.2l.39-.47A1.07,1.07,0,1,0,58,53.39Z"/><path class="cls-1" d="M66,24.83l-.2-.69a1,1,0,0,0-.51-.63,1,1,0,0,0-.51-.13,1,1,0,0,0-.3,0,1.06,1.06,0,0,0-.72,1.33l.51,2,.1.48a1,1,0,0,0,.46.67,1.05,1.05,0,0,0,.81.15,1.08,1.08,0,0,0,.67-.46,1.07,1.07,0,0,0,.15-.8Z"/><path class="cls-1" d="M48.57,63.38a1,1,0,0,0,.81-.08l1.88-1.09.44-.28A1.06,1.06,0,0,0,52,60.45a1,1,0,0,0-.67-.46.82.82,0,0,0-.22,0,1,1,0,0,0-.58.17l-.09,0-1.79,1.07-.3.17a1,1,0,0,0-.51.63,1.09,1.09,0,0,0,.08.81A1.06,1.06,0,0,0,48.57,63.38Z"/><path class="cls-1" d="M64,43.94a1.06,1.06,0,0,0-1,.7l-.81,2L62,47a1.07,1.07,0,0,0,.51,1.42,1.11,1.11,0,0,0,.82,0,1.08,1.08,0,0,0,.6-.55L64.78,46l.24-.61A1.08,1.08,0,0,0,64.38,44,1.13,1.13,0,0,0,64,43.94Z"/><path class="cls-1" d="M5.67,18.79l.23-.42A1,1,0,0,0,6,17.56a1.06,1.06,0,0,0-.51-.64A1,1,0,0,0,5,16.79a1,1,0,0,0-.3,0,1.08,1.08,0,0,0-.64.51l-.89,1.72-.32.69a1.07,1.07,0,0,0,.53,1.41,1.06,1.06,0,0,0,.82,0,1.08,1.08,0,0,0,.59-.56Z"/><path class="cls-1" d="M2.32,38.45l-.08-.53A1.06,1.06,0,0,0,1.19,37H1a1.07,1.07,0,0,0-.91,1.2l.34,2,.13.66a1.08,1.08,0,0,0,1.28.81,1.11,1.11,0,0,0,.67-.47,1.09,1.09,0,0,0,.14-.81Z"/><path class="cls-1" d="M65,34.75l0,.92-.14,1.58v0a1,1,0,0,0,.22.78,1,1,0,0,0,.71.4,1.06,1.06,0,0,0,1.18-.93l.2-2.71a1.05,1.05,0,0,0-1-1.09A1.07,1.07,0,0,0,65,34.75Z"/><path class="cls-1" d="M46.72,17.24a1.05,1.05,0,0,0-.42-.7l-1.74-1.18L44,15a1,1,0,0,0-.81-.1,1.06,1.06,0,0,0-.24,2L44.7,18l.32.23a1.07,1.07,0,0,0,1.7-1Z"/><path class="cls-1" d="M50,23.77l1,1.85.14.32a1.06,1.06,0,0,0,.6.56,1,1,0,0,0,.81,0,1,1,0,0,0,.56-.59,1,1,0,0,0,0-.81l-.92-1.85-.34-.6a1.08,1.08,0,0,0-.66-.48A1.06,1.06,0,0,0,50,23.74Z"/><path class="cls-1" d="M54.35,36.56a1.06,1.06,0,0,0,.39-.72l.11-1.92v-.83a1.06,1.06,0,0,0-1.06-1h0a1.06,1.06,0,0,0-1,1.09v.49l-.1,2a1.07,1.07,0,0,0,1,1.19A1.06,1.06,0,0,0,54.35,36.56Z"/><path class="cls-1" d="M51.9,42.25a1,1,0,0,0-.49-.12.86.86,0,0,0-.32,0,1,1,0,0,0-.63.52l-1.09,1.8-.2.29a1,1,0,0,0-.19.8,1.07,1.07,0,0,0,.43.7A1.07,1.07,0,0,0,50.9,46L52,44.29l.33-.6a1,1,0,0,0,.07-.81A1.05,1.05,0,0,0,51.9,42.25Z"/><path class="cls-1" d="M45,51.69a1.08,1.08,0,0,0,.46-.67,1,1,0,0,0-.14-.81,1,1,0,0,0-.67-.46.91.91,0,0,0-.23,0,1.06,1.06,0,0,0-.57.17l-1.78,1-.4.2A1.06,1.06,0,0,0,42.54,53l1.8-.95Z"/><path class="cls-1" d="M35.58,53.88a1.07,1.07,0,0,0-1.12-1l-1,0-1.48,0A1.06,1.06,0,1,0,31.82,55l1,0,.69,0,1.1,0A1.06,1.06,0,0,0,35.58,53.88Z"/><path class="cls-1" d="M24.72,52.83a1.06,1.06,0,0,0,.62-.54,1,1,0,0,0,.06-.81,1.14,1.14,0,0,0-.54-.62l-1.76-1-.38-.25a1.13,1.13,0,0,0-.8-.16,1.07,1.07,0,0,0-.38,1.94l1.06.67,1.31.71A1,1,0,0,0,24.72,52.83Z"/><path class="cls-1" d="M14.37,43.26l1,1.8.34.52a1.06,1.06,0,0,0,1.48.29,1,1,0,0,0,.45-.68,1.07,1.07,0,0,0-.16-.8l-1.12-1.88-.13-.26a1,1,0,0,0-.62-.53,1.06,1.06,0,0,0-.82.06,1,1,0,0,0-.53.61,1.06,1.06,0,0,0,.06.82Z"/><path class="cls-1" d="M13.24,31.53h-.06a1.07,1.07,0,0,0-1.06,1l0,1.11.06,1.64a1.11,1.11,0,0,0,.38.74,1,1,0,0,0,.77.24A1,1,0,0,0,14,35.9a1.1,1.1,0,0,0,.25-.78l0-2.47A1.07,1.07,0,0,0,13.24,31.53Z"/><path class="cls-1" d="M30.32,13.55a1.06,1.06,0,0,0,.39.72,1.07,1.07,0,0,0,.79.23l2-.1,2,.1.48.05a1.07,1.07,0,1,0,.29-2.11l-1.92-.16-.82,0-1.92.09-.27,0a1.06,1.06,0,0,0-1,1.17Z"/><path class="cls-2" d="M37.14,26.58c-4.87-3.18-17.27,5-6.31,15.13"/><path class="cls-2" d="M19.87,16.3c-3.17-.46-7.39,4.95-1.21,7.1"/><path class="cls-1" d="M41.09,26a10.76,10.76,0,1,0,3.16,7.62A10.7,10.7,0,0,0,41.09,26ZM39.58,39.76a8.65,8.65,0,1,1,2.53-6.11A8.59,8.59,0,0,1,39.58,39.76Z"/><path class="cls-1" d="M14.57,23.83a5.78,5.78,0,0,0,9.87-4.09,5.79,5.79,0,0,0-11.57,0A5.71,5.71,0,0,0,14.57,23.83Zm1.5-6.67h0A3.68,3.68,0,1,1,15,19.74,3.64,3.64,0,0,1,16.07,17.16Z"/><path class="cls-3" d="M58.21,3.61a8.19,8.19,0,0,0-5.79,14A8.18,8.18,0,1,0,64,6,8.1,8.1,0,0,0,58.21,3.61Zm4.28,12.47a6.06,6.06,0,1,1,1.77-4.28A6,6,0,0,1,62.49,16.08Z"/><path class="cls-3" d="M7.51,59A6.11,6.11,0,1,0,3.2,48.53,6.11,6.11,0,0,0,7.51,59ZM4.71,50a3.95,3.95,0,1,1-1.17,2.8A3.93,3.93,0,0,1,4.71,50Z"/></g></g></svg>