<svg xmlns="http://www.w3.org/2000/svg" viewBox="0 0 87.3 64.34"><defs><style>.cls-1,.cls-2,.cls-3{fill:none;stroke-linecap:round;stroke-linejoin:round;}.cls-1{stroke:#efc5d2;stroke-width:3px;}.cls-2{stroke:#00f9ff;}.cls-2,.cls-3{stroke-width:1.4px;}.cls-3{stroke:#b5143f;}</style></defs><g id="Capa_2" data-name="Capa 2"><g id="Capa_1-2" data-name="Capa 1"><path class="cls-1" d="M33.62,13.58S22.47,7.49,16.11,14.9a16.84,16.84,0,0,0-3.33,15.85"/><path class="cls-1" d="M46.61,37s-13.94-3.46-21-.12c-11.47,5.4-7.72,20.71-1.19,22.91"/><path class="cls-1" d="M48.16,29.76s-1.67,21.13,7.09,29.87"/><path class="cls-2" d="M16.93,53.07l-9.51,2.2A1.43,1.43,0,0,0,6.36,57l.41,1.75a1.42,1.42,0,0,0,1.7,1.07L19.24,57.3A14.41,14.41,0,0,1,16.93,53.07Z"/><path class="cls-2" d="M16.19,48.5c0-.61,0-.76.13-2.18H5.63a1.41,1.41,0,0,0-1.41,1.42v2.83A1.42,1.42,0,0,0,5.63,52H16.55A21.18,21.18,0,0,1,16.19,48.5Z"/><path class="cls-2" d="M18.61,40.8,8.48,38.45a1.42,1.42,0,0,0-1.7,1.07l-.43,1.82A1.42,1.42,0,0,0,7.42,43l9.22,2.13A14.15,14.15,0,0,1,18.61,40.8Z"/><path class="cls-3" d="M54.32,60c-8.68,2.34-17.47,3.66-21.65,3.66-9.1,0-16.48-6.73-16.48-15s7.38-15,16.48-15c3,0,7.54.73,13.64,2"/><line class="cls-3" x1="30.89" y1="63.55" x2="30.89" y2="54.34"/><line class="cls-3" x1="36.65" y1="35.15" x2="36.65" y2="40.91"/><line class="cls-3" x1="43.37" y1="62.02" x2="43.37" y2="54.34"/><path class="cls-2" d="M12.1,17.69,3.82,12.52A1.41,1.41,0,0,0,1.87,13L.92,14.49a1.42,1.42,0,0,0,.45,2l9.37,5.85A14.51,14.51,0,0,1,12.1,17.69Z"/><path class="cls-2" d="M14.81,13.93c.43-.44.58-.5,1.63-1.45L8.89,4.92a1.43,1.43,0,0,0-2,0l-2,2a1.41,1.41,0,0,0,0,2l7.72,7.72A20.75,20.75,0,0,1,14.81,13.93Z"/><path class="cls-2" d="M22,10.19,16.46,1.37a1.41,1.41,0,0,0-2-.45l-1.6,1a1.42,1.42,0,0,0-.45,2l5,8A14.22,14.22,0,0,1,22,10.19Z"/><path class="cls-3" d="M19.53,39.54a44.44,44.44,0,0,1-3.78-3.26c-6.43-6.43-6.89-16.4-1-22.28S30.58,8.59,37,15A80.89,80.89,0,0,1,47.59,28.85"/><line class="cls-3" x1="14.62" y1="35.14" x2="21.09" y2="28.67"/><line class="cls-3" x1="39.25" y1="18.28" x2="34.67" y2="22.85"/><path class="cls-2" d="M52.2,29.76C53.89,17.11,59.86,3,67,3S80,16.62,81.65,29.25"/><path class="cls-3" d="M47.5,28.49S66.93,30.9,65.44,49.74V63.55S43.06,66.83,47.5,28.49Z"/><path class="cls-3" d="M65.2,40.6S75.53,30.38,85.85,27.82c0,0,6.76,36.49-20.41,35.73"/></g></g></svg>