<svg xmlns="http://www.w3.org/2000/svg" viewBox="0 0 72.79 72.06"><defs><style>.cls-1,.cls-2{fill:none;stroke-linecap:round;stroke-linejoin:round;}.cls-1{stroke:#efc5d2;stroke-width:2.63px;}.cls-2{stroke:#b5143f;stroke-width:1.5px;}</style></defs><g id="Capa_2" data-name="Capa 2"><g id="Capa_1-2" data-name="Capa 1"><polyline class="cls-1" points="30.33 20.08 11.91 20.08 2.7 36.03 11.91 51.98"/><polyline class="cls-1" points="61.05 2.44 42.63 2.44 33.42 18.39 42.63 34.34"/><polyline class="cls-1" points="61.05 37.72 42.63 37.72 33.42 53.67 42.63 69.62"/><polygon class="cls-2" points="31.3 53.67 41.49 71.31 61.86 71.31 72.04 53.67 61.86 36.03 41.49 36.03 31.3 53.67"/><polygon class="cls-2" points="31.3 18.39 41.49 0.75 61.86 0.75 72.04 18.39 61.86 36.03 41.49 36.03 31.3 18.39"/><polygon class="cls-2" points="0.75 36.03 10.94 53.67 31.3 53.67 41.49 36.03 31.3 18.39 10.94 18.39 0.75 36.03"/><polyline class="cls-2" points="44.41 41.09 58.94 41.09 66.21 53.67"/><polyline class="cls-2" points="44.41 5.8 58.94 5.8 66.21 18.39"/><polyline class="cls-2" points="13.85 23.44 28.39 23.44 35.66 36.03"/></g></g></svg>