<svg xmlns="http://www.w3.org/2000/svg" viewBox="0 0 74.33 59.49"><defs><style>.cls-1,.cls-2,.cls-3{fill:none;stroke-linecap:round;stroke-linejoin:round;}.cls-1{stroke:#efc5d2;stroke-width:3px;}.cls-2{stroke:#b5143f;}.cls-2,.cls-3{stroke-width:1.44px;}.cls-3{stroke:#00f9ff;}</style></defs><g id="Capa_2" data-name="Capa 2"><g id="Capa_1-2" data-name="Capa 1"><path class="cls-1" d="M49.89,31.38S31.4,31.1,29.61,32.51,18.88,36.9,18.88,36.9l-5.81.75"/><rect class="cls-2" x="0.72" y="32.51" width="11.74" height="26.26"/><path class="cls-2" d="M12.46,36.06h.14a28.31,28.31,0,0,0,13.59-3.61A22.93,22.93,0,0,1,37.32,30H48.75a2.47,2.47,0,0,1,2.46,2.47h0a2.47,2.47,0,0,1-1.89,2.4L36.34,38a1.86,1.86,0,0,0-1.42,1.85h0a1.85,1.85,0,0,0,1.55,1.77l15.79,2.64L69.17,36.1a3.09,3.09,0,0,1,3.46.52h0a3.1,3.1,0,0,1-.3,4.78L56,53.24A15.64,15.64,0,0,1,44.51,56L24.89,53.09h-12"/><path class="cls-2" d="M8.33,54.47a1.74,1.74,0,1,1-1.74-1.75A1.74,1.74,0,0,1,8.33,54.47Z"/><path class="cls-3" d="M36.89,2.44c-9.47-5.13-14,2.21-11.1,8.94s11.1,14.25,11.1,14.25S45.08,18.1,48,11.38,46.36-2.69,36.89,2.44Z"/></g></g></svg>