<svg xmlns="http://www.w3.org/2000/svg" viewBox="0 0 64.2 64.2"><defs><style>.cls-1,.cls-2,.cls-3{fill:none;stroke-linecap:round;stroke-linejoin:round;}.cls-1{stroke:#efc5d2;stroke-width:3px;}.cls-2{stroke:#b5143f;}.cls-2,.cls-3{stroke-width:2px;}.cls-3{stroke:#00f9ff;}</style></defs><g id="Capa_2" data-name="Capa 2"><g id="Capa_1-2" data-name="Capa 1"><path class="cls-1" d="M8.25,35.79c-7.15-7.16-7-20.21.17-27.37s21-6.69,28.18.47"/><circle class="cls-2" cx="21.38" cy="21.38" r="20.38"/><line class="cls-2" x1="40.33" y1="40.33" x2="35.79" y2="35.79"/><path class="cls-3" d="M40.33,40.33a4.19,4.19,0,0,0,0,5.92L56.05,62A4.19,4.19,0,1,0,62,56.05L46.25,40.33A4.19,4.19,0,0,0,40.33,40.33Z"/><path class="cls-2" d="M21.38,7a5.09,5.09,0,0,0-5.1,5.09v2.75a5.1,5.1,0,1,0,10.19,0V12.06A5.09,5.09,0,0,0,21.38,7Z"/><path class="cls-2" d="M16.28,13.58s5.33-1.22,6.6-2.9c.45,1.43,3.59,2.76,3.59,2.76"/><path class="cls-2" d="M19.34,21l-5.2,2.61a4.6,4.6,0,0,0-2.26,4V30.5l.14.16a13.22,13.22,0,0,0,18.71,0l.15-.16V27.59a4.6,4.6,0,0,0-2.26-4L23.42,21"/><line class="cls-2" x1="19.34" y1="21.02" x2="19.34" y2="19.64"/><line class="cls-2" x1="23.42" y1="21.02" x2="23.42" y2="19.68"/><path class="cls-2" d="M25.8,22.23a6,6,0,0,1-4.44,2.1,6,6,0,0,1-4.43-2.1"/></g></g></svg>