<svg xmlns="http://www.w3.org/2000/svg" viewBox="0 0 92.86 60.84"><defs><style>.cls-1,.cls-2,.cls-3{fill:none;stroke-linecap:round;stroke-linejoin:round;}.cls-1{stroke:#efc5d2;stroke-width:5.07px;}.cls-2{stroke:#b5143f;}.cls-2,.cls-3{stroke-width:2px;}.cls-3{stroke:#00f9ff;}</style></defs><g id="Capa_2" data-name="Capa 2"><g id="Capa_1-2" data-name="Capa 1"><path class="cls-1" d="M17.58,31.82s.05,4-8.28,6.68S3,58.12,3,58.12"/><path class="cls-1" d="M70.28,31.82s0,4-8.28,6.68-6.28,19.62-6.28,19.62"/><path class="cls-2" d="M20.21,3.38A10.31,10.31,0,0,0,9.91,13.69v5.57a10.31,10.31,0,0,0,20.61,0V13.69A10.32,10.32,0,0,0,20.21,3.38Z"/><path class="cls-2" d="M30.52,18.72a13.91,13.91,0,0,1-3.47-6.27H13.38a13.91,13.91,0,0,1-3.47,6.27"/><path class="cls-2" d="M24.35,31.82,34.86,37.1a9.29,9.29,0,0,1,4.57,8V59.84H1V45.1a9.29,9.29,0,0,1,4.57-8l10.51-5.28"/><line class="cls-2" x1="16.08" y1="31.82" x2="16.08" y2="29.03"/><line class="cls-2" x1="24.35" y1="31.82" x2="24.35" y2="29.11"/><path class="cls-2" d="M29.17,34.27a12.13,12.13,0,0,1-9,4.23,12.11,12.11,0,0,1-9-4.23"/><path class="cls-2" d="M62.35,15.12v4.14a10.3,10.3,0,1,0,20.6,0V15.12"/><path class="cls-2" d="M59.05,36.38V14.6a13.6,13.6,0,1,1,27.2,0V36.38"/><path class="cls-2" d="M62.35,14.74s7.84.42,10.3-4.6"/><path class="cls-2" d="M83,14.74s-7.84.42-10.3-4.6"/><path class="cls-2" d="M76.78,31.82,87.29,37.1a9.27,9.27,0,0,1,4.57,8V59.84H53.44V45.1a9.27,9.27,0,0,1,4.57-8l10.51-5.28"/><line class="cls-2" x1="68.52" y1="31.82" x2="68.52" y2="29.03"/><line class="cls-2" x1="76.78" y1="31.82" x2="76.78" y2="29.11"/><path class="cls-2" d="M81.6,34.27a11.65,11.65,0,0,1-18,0"/><path class="cls-3" d="M45,3.76c-6.46-3.5-9.56,1.51-7.57,6.09S45,19.56,45,19.56s5.57-5.13,7.56-9.71S51.47.26,45,3.76Z"/></g></g></svg>