<svg xmlns="http://www.w3.org/2000/svg" viewBox="0 0 49.16 74.9"><defs><style>.cls-1,.cls-2,.cls-3{fill:none;stroke-linecap:round;stroke-linejoin:round;}.cls-1{stroke:#00f9ff;}.cls-1,.cls-3{stroke-width:1.53px;}.cls-2{stroke:#efc5d2;stroke-width:3px;}.cls-3{stroke:#b5143f;}</style></defs><g id="Capa_2" data-name="Capa 2"><g id="Capa_1-2" data-name="Capa 1"><path class="cls-1" d="M39.45,24S35,28.26,24.58,28.26"/><path class="cls-1" d="M37.57,15.15h2.51A2.88,2.88,0,0,1,43,18v3.13A2.88,2.88,0,0,1,40.08,24H37.25"/><path class="cls-1" d="M11.6,15.15H9.09A2.88,2.88,0,0,0,6.21,18v3.13A2.88,2.88,0,0,0,9.09,24h2.82"/><path class="cls-2" d="M19.55,38.82H9.06a7.44,7.44,0,0,0-5.72,4.34C1.67,47.08,2.42,60,2.42,60"/><rect class="cls-3" x="11.33" y="0.77" width="26.51" height="32.63" rx="13.25"/><path class="cls-3" d="M11.33,15.17s16.19.91,19.5-6.34a19,19,0,0,0,7,6.88"/><path class="cls-3" d="M15.42,15.15S16,21.74,11.91,24"/><path class="cls-3" d="M34.17,13.14s-.53,8.08,3.08,10.9"/><line class="cls-3" x1="29.62" y1="37.24" x2="29.62" y2="32.98"/><line class="cls-3" x1="19.55" y1="32.98" x2="19.55" y2="37.24"/><path class="cls-3" d="M44.19,61H48.4V47.53A10.3,10.3,0,0,0,38.1,37.24H29.62"/><path class="cls-3" d="M19.55,37.24H11.06A10.29,10.29,0,0,0,.77,47.53V61h7"/><polyline class="cls-3" points="29.62 37.24 24.58 42.54 19.55 37.24"/><line class="cls-3" x1="21.45" y1="53.84" x2="14.19" y2="37.24"/><line class="cls-3" x1="34.98" y1="37.24" x2="27.71" y2="53.84"/><polyline class="cls-3" points="30.59 47.27 24.58 42.54 18.58 47.27"/><polyline class="cls-3" points="38.1 37.24 39.45 43.38 33.98 47.77 38.23 52.16 36.4 53.84"/><polyline class="cls-3" points="11.06 37.24 9.71 43.38 15.18 47.77 10.93 52.16 12.77 53.84"/><polyline class="cls-3" points="22.73 44 23.58 46.9 22.23 53.84"/><polyline class="cls-3" points="26.43 44 25.58 46.9 26.93 53.84"/><line class="cls-3" x1="25.58" y1="46.9" x2="23.58" y2="46.9"/><path class="cls-3" d="M11.63,22.94c.69,1.69-1,4.87-2,6.38A5.66,5.66,0,0,1,5,31.76c3.63,2.86,6.36,3.18,14.32,3.18"/><path class="cls-3" d="M37.25,24c-1,4.22,5.12,7.73,6.94,7.72-3.63,2.86-6.36,3.18-14.32,3.18"/><rect class="cls-1" x="7.76" y="53.84" width="33.65" height="20.3"/><path class="cls-1" d="M28.58,64a4,4,0,1,1-4-4A4,4,0,0,1,28.58,64Z"/></g></g></svg>