<svg xmlns="http://www.w3.org/2000/svg" viewBox="0 0 65 75.89"><defs><style>.cls-1{fill:none;stroke:#efc5d2;stroke-linecap:round;stroke-linejoin:round;stroke-width:2px;}.cls-2{fill:#00f9ff;}.cls-3{fill:#b5143f;}</style></defs><g id="Capa_2" data-name="Capa 2"><g id="Capa_1-2" data-name="Capa 1"><path class="cls-1" d="M22.51,47.67,9.79,50.76A6,6,0,0,0,5.7,55.61L3.24,73.67"/><line class="cls-1" x1="42.49" y1="47.67" x2="59.53" y2="52.51"/><line class="cls-1" x1="23.65" y1="3.77" x2="26.32" y2="9.68"/><path class="cls-2" d="M34.45,4.77h-.84V3.93a1.11,1.11,0,1,0-2.22,0v.84h-.84a1.11,1.11,0,1,0,0,2.22h.84v.84a1.11,1.11,0,0,0,2.22,0V7h.84a1.11,1.11,0,0,0,0-2.22Z"/><path class="cls-3" d="M65,72.1l-3.24-19a5.42,5.42,0,0,0-3.8-4.31L43.37,44.44a2.4,2.4,0,0,0-1.86.2,2.79,2.79,0,0,1-.89-2V39l.11-.1c.06,0,.11-.1.18-.15h1.42a7.1,7.1,0,0,0,7.07-7.53L49,25v-.1a2.81,2.81,0,0,0,0-.5l-.44-7a1.11,1.11,0,1,0-2.21.14l.26,4.13a3.39,3.39,0,0,0-.91-.12H45.6a2,2,0,0,0-1.5-.9c-11.5-1-14.81-4.47-17.23-7-.51-.52-1.33-.56-2.45-.11a8.53,8.53,0,0,0-5.35,7.69v.31a2.68,2.68,0,0,0-.64.11l.34-5.4A9.32,9.32,0,0,1,22.7,9.25l.09.22a3.8,3.8,0,0,0,3.53,2.43H39A3.82,3.82,0,0,0,42.5,9.47l0-.05a9.23,9.23,0,0,1,2.81,3.44,1.11,1.11,0,0,0,1,.63,1.16,1.16,0,0,0,.48-.11,1.11,1.11,0,0,0,.52-1.48,11.59,11.59,0,0,0-4-4.62l.76-2a2.77,2.77,0,0,0-2-3.69L35.72.31a15.53,15.53,0,0,0-6.15,0L23.21,1.6a2.77,2.77,0,0,0-2,3.69l.7,1.84a11.5,11.5,0,0,0-5.33,9L16,24.47a3.4,3.4,0,0,0,0,.45V25l-.4,6.23a7.1,7.1,0,0,0,7.07,7.53h1.42l.18.15.11.1v3.63a2.77,2.77,0,0,1-.89,2,2.44,2.44,0,0,0-1.86-.19L7.09,48.83a5.45,5.45,0,0,0-3.81,4.31L2.07,60.26a1.11,1.11,0,1,0,2.18.37l1.22-7.12A3.24,3.24,0,0,1,7.73,51l14.54-4.39a.21.21,0,0,1,.24.11h0l6.94,13.71a3.75,3.75,0,0,0,.71.95,3.42,3.42,0,0,0,2.34.92,3.31,3.31,0,0,0,1.59-.39,3.42,3.42,0,0,0,1.46-1.48l6.94-13.71a.2.2,0,0,1,.24-.11L57.27,51a3.24,3.24,0,0,1,2.26,2.56l3.24,19a1,1,0,0,1-.23.84,1,1,0,0,1-.79.36H54.89l-1.81-10.6a1.11,1.11,0,0,0-2.19.37l1.75,10.23H12.36l1.75-10.23a1.11,1.11,0,0,0-2.19-.37l-1.81,10.6H3.24a1,1,0,0,1-.78-.36,1,1,0,0,1-.23-.84l1.13-6.6a1.11,1.11,0,1,0-2.19-.37L.05,72.1a3.23,3.23,0,0,0,3.19,3.79H61.76A3.23,3.23,0,0,0,65,72.1ZM23.29,4a.54.54,0,0,1,.36-.27L30,2.48a13.48,13.48,0,0,1,5.27,0l6.36,1.29h0A.54.54,0,0,1,42,4a.52.52,0,0,1,0,.46l-1.6,4.18a1.57,1.57,0,0,1-1.46,1H26.32a1.57,1.57,0,0,1-1.46-1L23.26,4.5A.52.52,0,0,1,23.29,4ZM47.18,31.39A4.79,4.79,0,0,1,45.88,35a4.9,4.9,0,0,1-2.8,1.48,12.39,12.39,0,0,0,2.76-5.78,3.23,3.23,0,0,0,1.28-.33ZM19.12,35a4.79,4.79,0,0,1-1.3-3.64l.06-1a3.23,3.23,0,0,0,1.28.33,12.39,12.39,0,0,0,2.76,5.78A4.9,4.9,0,0,1,19.12,35ZM33.71,59.11l-.14.27a.41.41,0,0,1-.07.11.08.08,0,0,1,0,0l0,0a1.09,1.09,0,0,1-.18.19l0,0a1.2,1.2,0,0,1-1.79-.42l-4.6-9.09H38.17Zm5.58-11H25.71l-.86-1.69a5,5,0,0,0,1.75-3.72V40.75a10.65,10.65,0,0,0,5.89,1.68h0a10.65,10.65,0,0,0,5.89-1.68v1.91a5,5,0,0,0,1.75,3.72Zm0-10.82c-2.05,1.77-3.63,2.93-6.78,3s-4.73-1.2-6.78-3c-2.72-2.34-4.38-5.2-4.43-7.65a1.11,1.11,0,0,0-1.11-1.08h-.84a1.13,1.13,0,0,1-1.13-1.12V24.92a.77.77,0,0,1,0-.15v-.05a1.14,1.14,0,0,1,1.11-.92h.84a1.11,1.11,0,0,0,1.11-1.11V21.32a6.33,6.33,0,0,1,4.27-5.78c3.24,3.32,7.24,6.33,18.17,7.34a1.11,1.11,0,0,0,1.09.92h.84a1.14,1.14,0,0,1,1.11.92v.05a.77.77,0,0,1,0,.15V27.4a1.13,1.13,0,0,1-1.13,1.12h-.84a1.11,1.11,0,0,0-1.11,1.08C43.66,32.05,42,34.91,39.28,37.25Z"/></g></g></svg>