<svg xmlns="http://www.w3.org/2000/svg" viewBox="0 0 67 50.07"><defs><style>.cls-1,.cls-2,.cls-3,.cls-4{fill:none;}.cls-1{stroke:#efc5d2;stroke-miterlimit:10;stroke-width:4px;}.cls-2,.cls-4{stroke:#b5143f;}.cls-2,.cls-3,.cls-4{stroke-linecap:round;stroke-linejoin:round;stroke-width:2px;}.cls-3{stroke:#00f9ff;}.cls-4{stroke-dasharray:4;}</style></defs><g id="Capa_2" data-name="Capa 2"><g id="Capa_1-2" data-name="Capa 1"><polyline class="cls-1" points="64.62 9.32 2.43 9.32 2.43 48.09"/><rect class="cls-2" x="1" y="8.33" width="65" height="40.74"/><path class="cls-2" d="M16.85,22.3h-3.4A7,7,0,0,1,7.54,19L1,8.33"/><polyline class="cls-2" points="44.23 22.3 33.5 22.3 22.77 22.3"/><path class="cls-2" d="M66,8.33,59.46,19a7,7,0,0,1-5.91,3.31h-3.4"/><path class="cls-2" d="M46.17,8.33V4.76A3.76,3.76,0,0,0,42.41,1H24.59a3.76,3.76,0,0,0-3.76,3.76V8.33"/><rect class="cls-2" x="16.85" y="18.68" width="5.92" height="12.11"/><rect class="cls-3" x="14.66" y="30.79" width="10.3" height="3.2"/><rect class="cls-2" x="44.23" y="18.68" width="5.92" height="12.11" transform="translate(94.38 49.46) rotate(180)"/><rect class="cls-3" x="42.04" y="30.79" width="10.3" height="3.2" transform="translate(94.38 64.77) rotate(180)"/><line class="cls-4" x1="57.44" y1="28.7" x2="57.44" y2="48.81"/><line class="cls-4" x1="9.56" y1="28.7" x2="9.56" y2="48.81"/></g></g></svg>