<svg xmlns="http://www.w3.org/2000/svg" viewBox="0 0 67 55.4"><defs><style>.cls-1,.cls-2,.cls-3{fill:none;}.cls-1{stroke:#efc5d2;stroke-miterlimit:10;stroke-width:3px;}.cls-2{stroke:#b5143f;}.cls-2,.cls-3{stroke-linecap:round;stroke-linejoin:round;stroke-width:2px;}.cls-3{stroke:#00f9ff;}</style></defs><g id="Capa_2" data-name="Capa 2"><g id="Capa_1-2" data-name="Capa 1"><line class="cls-1" x1="2.57" y1="47.01" x2="2.57" y2="54.4"/><rect class="cls-2" x="1" y="47.01" width="45.45" height="7.39"/><rect class="cls-3" x="7.35" y="43.31" width="32.74" height="3.69"/><path class="cls-1" d="M19.19,26.82l3.52-3.63a.93.93,0,0,1,1.34,0h0a.93.93,0,0,0,1.35,0L39.79,8a1,1,0,0,0,.13-1.22l-.1-.16a1,1,0,0,1,.12-1.21l3.49-3.73"/><rect class="cls-2" x="26.11" y="16.12" width="11.59" height="14.11" transform="translate(-7.04 29.35) rotate(-45)"/><rect class="cls-2" x="22.3" y="20.8" width="6.45" height="17.51" rx="2.08" transform="translate(-13.42 26.71) rotate(-45)"/><rect class="cls-2" x="34.3" y="7.93" width="11.59" height="14.11" transform="translate(79.04 -2.77) rotate(135)"/><rect class="cls-2" x="43.25" y="-0.15" width="6.45" height="17.51" rx="2.08" transform="translate(7.52 35.38) rotate(-45)"/><path class="cls-2" d="M42.11,23,41,24.07l-1.13,1.12L59.4,47.78a3.76,3.76,0,0,0,5.5.2h0a3.75,3.75,0,0,0-.2-5.49Z"/></g></g></svg>