<svg xmlns="http://www.w3.org/2000/svg" viewBox="0 0 67 64.06"><defs><style>.cls-1,.cls-2,.cls-3{fill:none;}.cls-1{stroke:#efc5d2;stroke-miterlimit:10;stroke-width:3px;}.cls-2{stroke:#b5143f;}.cls-2,.cls-3{stroke-linecap:round;stroke-linejoin:round;stroke-width:2px;}.cls-3{stroke:#00f9ff;}</style></defs><g id="Capa_2" data-name="Capa 2"><g id="Capa_1-2" data-name="Capa 1"><polyline class="cls-1" points="59.86 2.15 57.99 30.15 58.71 49.22"/><path class="cls-2" d="M61,1h0a2.67,2.67,0,0,0-2.66,2.44L56,30.65H66L63.67,3.44A2.67,2.67,0,0,0,61,1Z"/><polyline class="cls-2" points="66 30.65 64.86 49.22 61.01 49.22 57.16 49.22 56.02 30.65"/><polyline class="cls-2" points="58.59 49.22 56.93 56.97 61.01 63.06 65.09 56.97 63.43 49.22"/><line class="cls-3" x1="61.01" y1="63.06" x2="61.01" y2="54.44"/><polyline class="cls-1" points="48.88 3.49 3.37 3.49 3.37 62.84"/><rect class="cls-2" x="1" y="1" width="47.88" height="62.06"/><line class="cls-3" x1="8.28" y1="9.05" x2="41.67" y2="9.05"/><line class="cls-3" x1="8.28" y1="17.41" x2="41.67" y2="17.41"/><line class="cls-3" x1="8.28" y1="25.77" x2="41.67" y2="25.77"/><line class="cls-3" x1="8.28" y1="34.13" x2="41.67" y2="34.13"/><line class="cls-3" x1="8.28" y1="42.49" x2="41.67" y2="42.49"/><line class="cls-3" x1="34.03" y1="50.85" x2="41.67" y2="50.85"/><line class="cls-3" x1="8.28" y1="50.85" x2="15.92" y2="50.85"/><path class="cls-3" d="M29.21,50.85a4.06,4.06,0,1,1-4.05-4.05A4.05,4.05,0,0,1,29.21,50.85Z"/></g></g></svg>