<svg xmlns="http://www.w3.org/2000/svg" viewBox="0 0 67 51.3"><defs><style>.cls-1,.cls-2,.cls-3{fill:none;stroke-linecap:round;stroke-linejoin:round;stroke-width:2px;}.cls-1{stroke:#efc5d2;}.cls-2{stroke:#00f9ff;}.cls-3{stroke:#b5143f;}</style></defs><g id="Capa_2" data-name="Capa 2"><g id="Capa_1-2" data-name="Capa 1"><polyline class="cls-1" points="38.9 41.05 9.38 41.05 12.47 49.05"/><path class="cls-2" d="M14,47.73a5.39,5.39,0,0,1-1.53,1.32,9.73,9.73,0,0,1-5,1.25c-2.86,0-5.33-1-6.5-2.57"/><path class="cls-2" d="M27,47.73a7.34,7.34,0,0,1-4.66,2.42,10.88,10.88,0,0,1-1.84.15,11,11,0,0,1-1.85-.15A7.34,7.34,0,0,1,14,47.73"/><path class="cls-2" d="M27,47.73a7.34,7.34,0,0,0,4.65,2.42,11.48,11.48,0,0,0,3.7,0A7.39,7.39,0,0,0,40,47.73"/><path class="cls-2" d="M40,47.73a7.39,7.39,0,0,0,4.65,2.42,11.48,11.48,0,0,0,3.7,0A7.39,7.39,0,0,0,53,47.73"/><path class="cls-2" d="M66,47.73c-1.17,1.52-3.64,2.57-6.5,2.57a9.4,9.4,0,0,1-5.44-1.56,4.66,4.66,0,0,1-1.06-1"/><path class="cls-2" d="M42,18.26h0a6.69,6.69,0,0,0-6.69-6.69H33.29a3.88,3.88,0,0,1-3.88-3.88h0A6.7,6.7,0,0,0,22.72,1H16.9"/><path class="cls-2" d="M16.9,13h6.29a5.25,5.25,0,0,0,5.24,5.24h6.45"/><line class="cls-1" x1="14.96" y1="29.84" x2="14.96" y2="38.9"/><polyline class="cls-3" points="10.53 49.88 7.5 39.63 38.8 39.66 44.99 36.09 64.05 34.41 58.07 47.91"/><polyline class="cls-3" points="13.16 38.9 13.16 29.84 46.5 29.84 46.5 35.96"/><line class="cls-1" x1="37.26" y1="20.34" x2="37.26" y2="29.84"/><rect class="cls-3" x="35.78" y="20.34" width="6.25" height="9.49"/><line class="cls-3" x1="35.78" y1="23.47" x2="42.03" y2="23.47"/><line class="cls-3" x1="46.5" y1="34.37" x2="18.86" y2="34.37"/></g></g></svg>