<svg xmlns="http://www.w3.org/2000/svg" viewBox="0 0 67 67"><defs><style>.cls-1,.cls-2,.cls-3{fill:none;stroke-linecap:round;stroke-linejoin:round;stroke-width:2px;}.cls-1{stroke:#efc5d2;}.cls-2{stroke:#b5143f;}.cls-3{stroke:#00f9ff;}</style></defs><g id="Capa_2" data-name="Capa 2"><g id="Capa_1-2" data-name="Capa 1"><line class="cls-1" x1="43.04" y1="23.01" x2="28.69" y2="37.36"/><path class="cls-1" d="M20.49,28.62S3.75,47.25,3.39,49.85c-.85,6.13-.49,14,8.55,16"/><line class="cls-1" x1="44.3" y1="21.06" x2="50.04" y2="15.15"/><polyline class="cls-2" points="50.01 12.23 42.01 20.23 42.84 21.06 45.94 24.15 46.77 24.98 54.77 16.99"/><polyline class="cls-2" points="45.94 24.15 29.37 40.73 26.27 37.63 42.85 21.06"/><path class="cls-2" d="M31.26,39.39,40,48.11l-18.08,15a12.76,12.76,0,0,1-18-18L18.89,27l8.72,8.72"/><line class="cls-2" x1="27.82" y1="39.18" x2="17.09" y2="49.91"/><rect class="cls-3" x="51.67" y="5.75" width="15.12" height="4.03" transform="translate(22.84 -39.61) rotate(45)"/><path class="cls-3" d="M52.46,3.85,50,6.29l0,8.86A1.81,1.81,0,0,0,51.85,17l8.86,0,2.44-2.44"/></g></g></svg>