<svg xmlns="http://www.w3.org/2000/svg" viewBox="0 0 59.21 77.7"><defs><style>.cls-1{fill:none;stroke:#efc5d2;stroke-linecap:round;stroke-linejoin:round;stroke-width:3px;}.cls-2{fill:#b5143f;}.cls-3{fill:#00f9ff;}</style></defs><g id="Capa_2" data-name="Capa 2"><g id="Capa_1-2" data-name="Capa 1"><path class="cls-1" d="M57.21,8.82S26.28-2.63,3.65,9.47c0,0,2.2,34.12,9.21,49.52"/><path class="cls-2" d="M58.69,6.85C58.25,6.57,47.9,0,29.6,0S1,6.57.52,6.85a1.12,1.12,0,0,0-.52,1C0,8,.38,30.38,6.58,50.89a1.14,1.14,0,0,0,2.18-.66,168.21,168.21,0,0,1-6-33.93C13,11.13,26.88,10.86,29.6,10.86s16.58.27,26.86,5.43c-.82,10.28-3.06,28-9.11,42.7A88.41,88.41,0,0,1,29.6,60.65a97.45,97.45,0,0,1-13.37-.9c-2.11-.3-3.62-.6-4.37-.76-.59-1.42-1.16-2.93-1.7-4.48A1.14,1.14,0,0,0,8,55.27c.62,1.79,1.29,3.52,2,5.14a1.13,1.13,0,0,0,.77.66c.08,0,1.92.48,5.17.94l1.42.18a73.05,73.05,0,0,0,1.87,11.54,5.29,5.29,0,0,0,5.13,4H34.86a5.29,5.29,0,0,0,5.13-4A74.26,74.26,0,0,0,41.87,62.2a56.37,56.37,0,0,0,6.58-1.13,1.09,1.09,0,0,0,.77-.66c5-11.78,7.41-25.45,8.59-34.84C59.09,15.4,59.2,7.89,59.21,7.82a1.17,1.17,0,0,0-.52-1ZM34.86,75.43H24.34a3,3,0,0,1-2.92-2.27c-.12-.45-.23-.9-.33-1.36h17l-.33,1.36A3,3,0,0,1,34.86,75.43Zm3.73-5.9h-18c-.48-2.57-.78-5-1-7.08,2.71.26,6.1.48,10,.48s7.18-.21,10-.48C39.37,64.49,39.07,67,38.59,69.53Zm-9-60.94c-13.78,0-23.06,3.44-27,5.27-.17-2.59-.24-4.48-.27-5.42A41,41,0,0,1,9,5.52,63.91,63.91,0,0,1,29.6,2.28c15.31,0,25,4.86,27.31,6.16,0,.94-.1,2.83-.27,5.42C52.67,12,43.38,8.59,29.6,8.59Z"/><path class="cls-3" d="M37.19,20.87a16.61,16.61,0,0,0-7.59-1.81A16.78,16.78,0,1,0,46.39,35.84a16.62,16.62,0,0,0-5.21-12.15,1.14,1.14,0,1,0-1.57,1.64,14.58,14.58,0,1,1-3.45-2.43,1.14,1.14,0,1,0,1-2Z"/><path class="cls-3" d="M34.11,31.33c0-.78,0-1.55-.08-2.3a2.07,2.07,0,0,0-1.66-1.94,14.34,14.34,0,0,0-5.54,0A2.07,2.07,0,0,0,25.18,29c0,.75-.06,1.53-.09,2.3l-2.29.08a2.06,2.06,0,0,0-1.94,1.66,14,14,0,0,0,0,5.54,2.07,2.07,0,0,0,1.94,1.66l2.29.08c0,.77.05,1.54.09,2.29a2,2,0,0,0,1.65,1.94,13.84,13.84,0,0,0,5.54,0A2,2,0,0,0,34,42.64c0-.74.06-1.51.08-2.29l2.3-.08a2.08,2.08,0,0,0,1.94-1.66,14.34,14.34,0,0,0,0-5.54,2.07,2.07,0,0,0-1.94-1.66l-2.3-.08Zm2,6.67-2.29.08a2.07,2.07,0,0,0-2,2c0,.78-.05,1.55-.08,2.29a11.62,11.62,0,0,1-4.32,0c0-.75-.05-1.51-.08-2.29a2.06,2.06,0,0,0-2-2L23.06,38a12.06,12.06,0,0,1,0-4.32l2.29-.08a2.07,2.07,0,0,0,2-2c0-.77.05-1.54.08-2.29a12.06,12.06,0,0,1,4.32,0c0,.75.06,1.52.08,2.29a2.08,2.08,0,0,0,2,2l2.29.08A12.06,12.06,0,0,1,36.15,38Z"/></g></g></svg>