<svg xmlns="http://www.w3.org/2000/svg" viewBox="0 0 62.15 56.82"><defs><style>.cls-1,.cls-2{fill:none;stroke:#efc5d2;stroke-linecap:round;stroke-linejoin:round;}.cls-1{stroke-width:3.05px;}.cls-2{stroke-width:3px;}.cls-3{fill:#b5143f;}.cls-4{fill:#00f9ff;}</style></defs><g id="Capa_2" data-name="Capa 2"><g id="Capa_1-2" data-name="Capa 1"><path class="cls-1" d="M60.57,11.85s-16-1.43-22.34,1.69c-7.9,3.92-5.51,14.87-5.51,14.87"/><path class="cls-2" d="M38,3.57s-23.58-6.26-31,13.89"/><path class="cls-2" d="M5.3,28.51S10,35.92,11.48,36.1V54.63"/><path class="cls-3" d="M61.12,38.18a1,1,0,0,0,1-1V9.51a1,1,0,0,0-1-1H48.05C46.45,6.37,39.11-1.84,23.72.38a28.5,28.5,0,0,0-5,1.17,24.43,24.43,0,0,0-4.32,1.92,23.8,23.8,0,0,0-11,14H1a1,1,0,0,0-1,1v9a1,1,0,0,0,1,1H3.2c.57,3.72,3.92,7.86,4.91,9V54.1a1,1,0,1,0,2.08,0v-17a1,1,0,0,0-.27-.69c-1.18-1.31-4-5-4.62-7.94h7.05a8.94,8.94,0,0,0,14.05,0h3.38a13.74,13.74,0,0,0,3.75,5.21c3.38,2.91,8.21,4.46,14,4.46h1.74a1,1,0,0,0,.09.45l1.1,2.27H47.52a1,1,0,1,0,0,2.07h2.57l-3,4.19a1,1,0,0,0-.18.75c.16,1.13.3,4.43-1,6a2.6,2.6,0,0,1-2.08.86c-.63,0-15.41-.13-15.41-11.14a1,1,0,0,0-2.07,0c0,10.43,11,13.21,17.48,13.21a4.58,4.58,0,0,0,3.64-1.58c1.88-2.16,1.7-5.93,1.58-7.21l3.91-5.5s0,0,0,0,0,0,0,0a1.08,1.08,0,0,0,.13-.29s0-.06,0-.08a1.15,1.15,0,0,0,0-.32.06.06,0,0,0,0,0,.92.92,0,0,0-.08-.27l-1.6-3.3Zm-1-2.08H56.63V10.55h3.45ZM45.4,8.56c-7.66.58-12.72,4.29-15.07,8.9H26.4A8.81,8.81,0,0,0,24.9,16V2.32C36.49.94,42.89,5.92,45.4,8.56Zm-26-5a25.15,25.15,0,0,1,3.47-.87V14.76a8.65,8.65,0,0,0-6.91,0V5A22,22,0,0,1,19.36,3.52ZM13.85,6.24V16a8.81,8.81,0,0,0-1.5,1.49H5.51A22.19,22.19,0,0,1,13.85,6.24Zm12,20.2a1.05,1.05,0,0,0-.86.44,6.85,6.85,0,0,1-11.29,0,1.05,1.05,0,0,0-.86-.44H2.07V19.53h10.8a1.06,1.06,0,0,0,.86-.45,6.86,6.86,0,0,1,11.29,0,1.06,1.06,0,0,0,.86.45h3.59a13.28,13.28,0,0,0-.35,6.91Zm9,5.71a11.17,11.17,0,0,1-4-8.53c0-6.49,5.71-13.07,16.63-13.07h7V36.1h-7C42.25,36.1,37.88,34.74,34.89,32.15Z"/><path class="cls-4" d="M19.38,18.52A4.46,4.46,0,1,0,23.84,23,4.47,4.47,0,0,0,19.38,18.52Zm0,6.85A2.39,2.39,0,1,1,21.76,23,2.39,2.39,0,0,1,19.38,25.37Z"/></g></g></svg>