<svg xmlns="http://www.w3.org/2000/svg" viewBox="0 0 77.77 57.06"><defs><style>.cls-1,.cls-2,.cls-3{fill:none;stroke-linecap:round;stroke-linejoin:round;}.cls-1{stroke:#efc5d2;stroke-width:3.15px;}.cls-2{stroke:#b5143f;}.cls-2,.cls-3{stroke-width:1.67px;}.cls-3{stroke:#00f9ff;}</style></defs><g id="Capa_2" data-name="Capa 2"><g id="Capa_1-2" data-name="Capa 1"><path class="cls-1" d="M69.81,2.94H13.7A6.78,6.78,0,0,0,7,8.52L2.72,28.63,8.2,54.22"/><path class="cls-2" d="M47.8,28.53v5.82H30V28.53H.84L5,50.7a6.47,6.47,0,0,0,6.17,5.52H66.63a6.47,6.47,0,0,0,6.18-5.52l4.13-22.17Z"/><path class="cls-2" d="M30,22.71H47.8v5.82H76.94L72.81,6.36A6.47,6.47,0,0,0,66.63.84H11.14A6.47,6.47,0,0,0,5,6.36L.84,28.53H30Z"/><rect class="cls-3" x="29.97" y="22.71" width="17.84" height="11.64"/><rect class="cls-2" x="35.25" y="43.99" width="7.28" height="12.23"/><rect class="cls-2" x="35.25" y="0.84" width="7.28" height="12.23"/><rect class="cls-2" x="49.44" y="43.99" width="7.28" height="12.23"/><rect class="cls-2" x="49.44" y="0.84" width="7.28" height="12.23"/><rect class="cls-2" x="21.05" y="43.99" width="7.28" height="12.23"/><rect class="cls-2" x="21.05" y="0.84" width="7.28" height="12.23"/></g></g></svg>