<svg xmlns="http://www.w3.org/2000/svg" viewBox="0 0 61.15 65.68"><defs><style>.cls-1{fill:#efc5d2;}.cls-2{fill:#00f9ff;}.cls-3{fill:#b5143f;}</style></defs><g id="Capa_2" data-name="Capa 2"><g id="Capa_1-2" data-name="Capa 1"><path class="cls-1" d="M29.7,18.86,23.49,21.8A43.25,43.25,0,0,0,18,24.43c-1.63,1.06-1.55,2.83-1.62,4.57-.09,2.23-.15,4.45-.16,6.68a29.28,29.28,0,0,0,.18,6.21,7.21,7.21,0,0,0,3,4,63.56,63.56,0,0,0,10.05,6.56c1.7.89,3.22-1.69,1.51-2.59a61.71,61.71,0,0,1-8.68-5.5c-1.12-.85-2.69-1.8-2.95-3.29a30.53,30.53,0,0,1-.08-5.41c0-1.81.05-3.63.11-5.44,0-.9,0-1.82.11-2.72s.89-.92,1.57-1.25l10.21-4.82c1.74-.82.22-3.41-1.52-2.59Z"/><path class="cls-2" d="M50.94,13.56a1,1,0,0,0,0,1.34A28.69,28.69,0,1,1,30.57,6.42a29.29,29.29,0,0,1,4.69.39L31.09,9.4a.94.94,0,1,0,1,1.6l6.19-3.84,0,0A1.29,1.29,0,0,0,38.5,7l.06-.09,0,0a1.45,1.45,0,0,0,.09-.22s0,0,0,0a.92.92,0,0,0,0-.33s0-.06,0-.1a1.09,1.09,0,0,0-.09-.23s0,0,0,0,0,0,0-.05l-.05-.09-5-5.41A1,1,0,0,0,32.17.25a.94.94,0,0,0-.05,1.33l3,3.29a31.49,31.49,0,0,0-4.56-.34,30.57,30.57,0,1,0,21.71,9A1,1,0,0,0,50.94,13.56Z"/><path class="cls-3" d="M51.05,25.86a3.44,3.44,0,0,0-5.83-2.47l-10.3-5.95a3.77,3.77,0,0,0,.11-.83,3.45,3.45,0,0,0-6.89,0,3.26,3.26,0,0,0,.12.83L18,23.39a3.44,3.44,0,1,0-3.34,5.76V41.06A3.44,3.44,0,1,0,18,46.83l10.3,6a3.2,3.2,0,0,0-.12.83,3.45,3.45,0,0,0,6.89,0,3.69,3.69,0,0,0-.11-.83l10.3-6a3.44,3.44,0,1,0,3.33-5.77V29.15A3.43,3.43,0,0,0,51.05,25.86Zm-6.88,18.5a3.26,3.26,0,0,0,.11.83l-10.3,6a3.45,3.45,0,0,0-1.45-.83V38.4A3.43,3.43,0,0,0,35,35.11a3.69,3.69,0,0,0-.11-.83l10.3-6a3.54,3.54,0,0,0,1.45.82V41.06A3.45,3.45,0,0,0,44.17,44.36Zm.11-17.67L34,32.64a3.45,3.45,0,0,0-1.45-.83V19.9A3.54,3.54,0,0,0,34,19.08l10.3,6a3.2,3.2,0,0,0-.11.83A3.26,3.26,0,0,0,44.28,26.69ZM30.64,19.9V31.81a3.41,3.41,0,0,0-1.44.83L18.89,26.69a3.26,3.26,0,0,0,.12-.83,3.2,3.2,0,0,0-.12-.83l10.31-6A3.29,3.29,0,0,0,30.64,19.9ZM18,28.33l10.3,6a3.2,3.2,0,0,0-.12.83,3.26,3.26,0,0,0,.12.83l-10.3,6a3.45,3.45,0,0,0-1.45-.83V29.15A3.54,3.54,0,0,0,18,28.33Zm.93,15.2,10.31-6a3.35,3.35,0,0,0,1.44.82V50.31a3.41,3.41,0,0,0-1.44.83l-10.31-6a2.93,2.93,0,0,0,0-1.66Z"/></g></g></svg>