<svg xmlns="http://www.w3.org/2000/svg" viewBox="0 0 56.78 57.25"><defs><style>.cls-1,.cls-2{fill:none;}.cls-1{stroke:#efc5d2;stroke-linecap:round;stroke-linejoin:round;stroke-width:3px;}.cls-2{stroke:#b5143f;stroke-width:2px;}</style></defs><g id="Capa_2" data-name="Capa 2"><g id="Capa_1-2" data-name="Capa 1"><path class="cls-1" d="M29.77,15.77s-18.42,49-20.23,49.87-7.91,2.73-7.91,2.73" transform="translate(0 -13.23)"/><path class="cls-2" d="M35.28,69.47V67.15c5.39-.66,6-1.49,4.89-4.65s-2.74-7.38-4.48-12.61H17.76c-1.32,3.73-2.57,7-3.73,10.37-1.83,5.4-.66,6.06,6.14,6.89v2.32H1V67.15c5.23-.66,6.56-1.24,9.46-8.71L27.64,14.87l2.66-.5c5.22,14.19,11,29.88,16.18,44.23,2.65,7.22,3.4,7.89,9.29,8.55v2.32ZM27,25.24c-2.66,7.14-5.48,14.69-8,21.25H34.53Z" transform="translate(0 -13.23)"/></g></g></svg>