<svg xmlns="http://www.w3.org/2000/svg" viewBox="0 0 64.09 68.94"><defs><style>.cls-1,.cls-2,.cls-3{fill:none;stroke-linecap:round;stroke-linejoin:round;}.cls-1{stroke:#efc5d2;stroke-width:2.65px;}.cls-2{stroke:#b5143f;}.cls-2,.cls-3{stroke-width:1.63px;}.cls-3{stroke:#00f9ff;}</style></defs><g id="Capa_2" data-name="Capa 2"><g id="Capa_1-2" data-name="Capa 1"><polyline class="cls-1" points="35.14 9.42 27.9 9.42 27.9 21.73"/><line class="cls-1" x1="14.65" y1="51.38" x2="26.12" y2="22.73"/><rect class="cls-2" x="26.94" y="8.22" width="10.2" height="15.51"/><rect class="cls-3" x="30.31" y="0.81" width="3.47" height="7.41"/><path class="cls-3" d="M33.58,19A1.54,1.54,0,1,1,32,17.41,1.54,1.54,0,0,1,33.58,19Z"/><polyline class="cls-2" points="12.5 56.7 13.85 63.35 29.8 23.73 26.94 23.73 26.94 16.86 12.97 51.58"/><line class="cls-2" x1="11.93" y1="68.13" x2="15.76" y2="58.61"/><path class="cls-3" d="M14.65,54.07A2.69,2.69,0,1,1,12,51.38,2.68,2.68,0,0,1,14.65,54.07Z"/><polyline class="cls-2" points="51.59 56.7 50.24 63.35 34.28 23.73 37.14 23.73 37.14 16.86 51.12 51.58"/><line class="cls-2" x1="52.16" y1="68.13" x2="48.33" y2="58.61"/><path class="cls-3" d="M49.44,54.07a2.69,2.69,0,1,0,2.68-2.69A2.68,2.68,0,0,0,49.44,54.07Z"/><line class="cls-2" x1="0.81" y1="68.13" x2="63.27" y2="68.13"/></g></g></svg>