<svg xmlns="http://www.w3.org/2000/svg" viewBox="0 0 107.88 75.56"><defs><style>.cls-1,.cls-2,.cls-3,.cls-4{fill:none;stroke-linecap:round;stroke-linejoin:round;}.cls-1,.cls-2{stroke:#efc5d2;}.cls-1{stroke-width:2.98px;}.cls-2{stroke-width:2.75px;}.cls-3{stroke:#b5143f;}.cls-3,.cls-4{stroke-width:2px;}.cls-4{stroke:#00f9ff;}</style></defs><g id="Capa_2" data-name="Capa 2"><g id="Capa_1-2" data-name="Capa 1"><polyline class="cls-1" points="92.59 10.03 16.63 10.03 16.63 56.67"/><path class="cls-2" d="M105.88,64.94H3s1.51,8.22,9.62,8.22"/><path class="cls-3" d="M91.06,1H16.82A8.39,8.39,0,0,0,8.43,9.39v53h91v-53A8.39,8.39,0,0,0,91.06,1Z"/><rect class="cls-3" x="14.15" y="7.72" width="79.58" height="49.95"/><path class="cls-3" d="M1,62.36v2.58a9.62,9.62,0,0,0,9.62,9.62H97.26a9.62,9.62,0,0,0,9.62-9.62V62.36Z"/><path class="cls-3" d="M34.19,62.36v1a3.58,3.58,0,0,0,3.59,3.59H70.11a3.58,3.58,0,0,0,3.58-3.59v-1Z"/><rect class="cls-4" x="23.77" y="15.99" width="21.7" height="22"/><line class="cls-3" x1="51.69" y1="15.99" x2="57.9" y2="15.99"/><line class="cls-3" x1="51.69" y1="22.77" x2="57.9" y2="22.77"/><line class="cls-3" x1="51.69" y1="29.56" x2="57.9" y2="29.56"/><line class="cls-3" x1="51.69" y1="36.34" x2="57.9" y2="36.34"/><line class="cls-3" x1="64.5" y1="15.99" x2="84.11" y2="15.99"/><line class="cls-3" x1="64.5" y1="22.77" x2="84.11" y2="22.77"/><line class="cls-3" x1="64.5" y1="29.56" x2="84.11" y2="29.56"/><line class="cls-3" x1="64.5" y1="36.34" x2="84.11" y2="36.34"/><line class="cls-4" x1="23.77" y1="44" x2="63.53" y2="44"/><line class="cls-4" x1="46.93" y1="49.87" x2="84.11" y2="49.87"/><line class="cls-4" x1="23.77" y1="49.87" x2="37.34" y2="49.87"/><line class="cls-4" x1="67.61" y1="44" x2="84.11" y2="44"/></g></g></svg>