<svg xmlns="http://www.w3.org/2000/svg" viewBox="0 0 59.4 57.92"><defs><style>.cls-1{fill:#b5143f;}.cls-2{fill:#00f9ff;}</style></defs><g id="Capa_2" data-name="Capa 2"><g id="Capa_1-2" data-name="Capa 1"><path class="cls-1" d="M54.3,10.29H50.91v14H54.3ZM50,8.55h5.12a.87.87,0,0,1,.88.86V25.12a.88.88,0,0,1-.88.88H50a.87.87,0,0,1-.87-.88V9.41A.86.86,0,0,1,50,8.55Zm-13.88,8V13.1H32.78v2A14.87,14.87,0,0,1,36.16,16.57ZM31,14.67V12.23a.87.87,0,0,1,.87-.87H37a.86.86,0,0,1,.87.87V17.8A14.58,14.58,0,0,1,40.11,20V6A.86.86,0,0,1,41,5.17H46.1A.87.87,0,0,1,47,6V25.12a.87.87,0,0,1-.87.88H43a13.71,13.71,0,0,1,.28,1.72H57.66v-26H45.51a.87.87,0,1,1,0-1.74h13a.87.87,0,0,1,.87.87V28.59a.87.87,0,0,1-.87.87H43.33a14,14,0,0,1-.15,1.81,14.32,14.32,0,0,1-.41,2,.87.87,0,1,1-1.67-.47,13.74,13.74,0,0,0,.49-3.55,13,13,0,0,0-24.86-5.5.88.88,0,0,1-1.16.42A.87.87,0,0,1,15.15,23a14.8,14.8,0,0,1,5.47-6.23,14.61,14.61,0,0,1,7.06-2.28V.87A.87.87,0,0,1,28.55,0h13a.87.87,0,0,1,0,1.74H29.42V14.49a14.33,14.33,0,0,1,1.62.18Zm11.42,9.59h2.77V6.91H41.85V22.78A14.82,14.82,0,0,1,42.46,24.26Zm-13,17.51v3.77h4.06V41.88a.87.87,0,0,1,.51-.79A12.74,12.74,0,0,0,37.15,39a13.07,13.07,0,0,0,2.46-2.88.87.87,0,1,1,1.46.93,15.15,15.15,0,0,1-2.77,3.26,14.62,14.62,0,0,1-3.08,2.08v8.83a6.67,6.67,0,1,1-13.34,0V42.42a14.77,14.77,0,0,1-8.11-13.18c0-.37,0-.75.05-1.12A10.36,10.36,0,0,1,13.94,27a.87.87,0,1,1,1.72.26c-.05.33-.09.66-.11,1s0,.66,0,1a13.07,13.07,0,0,0,2,7,13.2,13.2,0,0,0,5.49,4.79.87.87,0,0,1,.57.82v3.66h4.06V41.77L21.25,29.19l-.26.15a.87.87,0,0,1-.87-1.5l2.66-1.56a.88.88,0,0,1,.89,0l2.21,1.3,2.23-1.31a.88.88,0,0,1,.89,0l2.21,1.3,2.23-1.31a.88.88,0,0,1,.89,0L37,27.84a.87.87,0,1,1-.88,1.5l-.25-.15ZM23.22,28l-.47.28,5.8,11.36,5.8-11.36L33.88,28l-2.22,1.3a.88.88,0,0,1-.89,0L28.55,28l-2.22,1.3a.87.87,0,0,1-.88,0ZM32,54.74a4.93,4.93,0,0,0,1.37-2.62H23.7a4.85,4.85,0,0,0,1.36,2.62,4.94,4.94,0,0,0,7,0Zm-8.41-7.46v3.1h9.86v-3.1Z"/><path class="cls-2" d="M18.67,2.43A12.79,12.79,0,0,0,11,0,12.74,12.74,0,0,0,3.31,2.43,7.76,7.76,0,0,0,0,8.57a7.38,7.38,0,0,0,2.2,5.14,11.18,11.18,0,0,0,5.23,3l2.85,3.84a.87.87,0,0,0,1.4,0l2.86-3.85a11.27,11.27,0,0,0,5.24-3A7.37,7.37,0,0,0,22,8.57,7.77,7.77,0,0,0,18.67,2.43Zm-.14,10.08a9.67,9.67,0,0,1-4.7,2.56.88.88,0,0,0-.49.32L11,18.55,8.64,15.39a.89.89,0,0,0-.53-.33,9.56,9.56,0,0,1-4.66-2.55A5.65,5.65,0,0,1,1.74,8.57,6.07,6.07,0,0,1,4.36,3.81,11,11,0,0,1,11,1.74a11,11,0,0,1,6.62,2.07,6.07,6.07,0,0,1,2.62,4.76A5.68,5.68,0,0,1,18.53,12.51Z"/><path class="cls-2" d="M14.79,7.7H7.18a.87.87,0,1,0,0,1.74h7.61a.87.87,0,1,0,0-1.74Z"/><path class="cls-2" d="M12.86,10.92H7.18a.87.87,0,1,0,0,1.74h5.68a.87.87,0,0,0,0-1.74Z"/><path class="cls-2" d="M14.79,4.47H7.18a.87.87,0,0,0,0,1.74h7.61a.87.87,0,1,0,0-1.74Z"/><path class="cls-2" d="M14.33,46.71a.87.87,0,0,1,1.23-1.23l2.73,2.73a.85.85,0,0,1,.26.62.84.84,0,0,1-.26.62l-2.73,2.73A.87.87,0,0,1,14.33,51l1.25-1.25H8.91a5.39,5.39,0,0,1-5.37-5.37V19.27a.87.87,0,1,1,1.74,0V44.33A3.65,3.65,0,0,0,8.91,48h6.67Z"/><path class="cls-2" d="M50.48,37.88a.87.87,0,0,1-1.23,0,.89.89,0,0,1,0-1.23L52,33.92a.87.87,0,0,1,.62-.26.84.84,0,0,1,.62.26L56,36.65a.87.87,0,0,1-1.23,1.23l-1.25-1.25v7.75a5.38,5.38,0,0,1-5.37,5.38H39.33a.87.87,0,0,1,0-1.74H48.1a3.64,3.64,0,0,0,3.63-3.64V36.63Z"/></g></g></svg>