<svg xmlns="http://www.w3.org/2000/svg" viewBox="0 0 48.51 66.22"><defs><style>.cls-1{fill:none;stroke:#efc5d2;stroke-linecap:round;stroke-linejoin:round;stroke-width:3px;}.cls-2{fill:#00f9ff;}.cls-3{fill:#b5143f;}</style></defs><g id="Capa_2" data-name="Capa 2"><g id="Capa_1-2" data-name="Capa 1"><polyline class="cls-1" points="23.28 12.42 11.79 34.31 16.34 52.24 10.8 64.28"/><path class="cls-2" d="M45.6,0a2.92,2.92,0,0,0-2.75,1.94H27.16V1a1,1,0,0,0-1-1H22.31a1,1,0,0,0-1,1v1H5.65a2.91,2.91,0,1,0,0,1.94H21.34v1a1,1,0,0,0,1,1h3.88a1,1,0,0,0,1-1v-1H42.85A2.91,2.91,0,1,0,45.6,0ZM2.91,3.88a1,1,0,1,1,1-1A1,1,0,0,1,2.91,3.88Zm22.31,0H23.28V1.94h1.94Zm20.38,0a1,1,0,1,1,0-1.94,1,1,0,0,1,0,1.94Z"/><path class="cls-3" d="M40.62,33.73,26.79,9.24a2.91,2.91,0,0,0-5.07,0h0c-.06.09-13.84,24.49-13.84,24.49a1,1,0,0,0-.08.79L13.3,51A2.9,2.9,0,0,0,13,56.05L9.12,61.18a6.8,6.8,0,0,0-1.36,4.07,1,1,0,0,0,1,1h31a1,1,0,0,0,1-1,6.86,6.86,0,0,0-1.35-4.07l-3.85-5.13A2.91,2.91,0,0,0,35.2,51l5.5-16.47a1,1,0,0,0-.08-.79Zm-15.4-3.4v7.76a1,1,0,0,1-1.94,0V30.33a1,1,0,0,1,1.94,0Zm13.48,34H9.8a4.86,4.86,0,0,1,.87-1.94L15,56.52H33.47l4.36,5.82A4.86,4.86,0,0,1,38.7,64.28ZM33.25,50.7H18.43a1,1,0,1,0,0,1.94H34a1,1,0,0,1,0,1.94H14.55a1,1,0,0,1,0-1.94,1,1,0,0,0,.79-.4,1,1,0,0,0,.13-.87L9.79,34.31,23.28,10.42V27.59a2.91,2.91,0,0,0-1.94,2.74v7.76a2.91,2.91,0,1,0,5.82,0V30.33a2.91,2.91,0,0,0-1.94-2.74V10.42l13.5,23.89Z"/></g></g></svg>