<svg xmlns="http://www.w3.org/2000/svg" viewBox="0 0 65 55.46"><defs><style>.cls-1{fill:none;stroke:#efc5d2;stroke-linecap:round;stroke-linejoin:round;stroke-width:2px;}.cls-2{fill:#b5143f;}.cls-3{fill:#00f9ff;}</style></defs><g id="Capa_2" data-name="Capa 2"><g id="Capa_1-2" data-name="Capa 1"><polyline class="cls-1" points="50.12 24.85 12.81 24.85 12.81 53.47"/><line class="cls-1" x1="63.09" y1="25.85" x2="51.69" y2="32.12"/><path class="cls-2" d="M64.53,22.41a.93.93,0,0,0-.94,0l-11.9,6.54V26.66a4.39,4.39,0,0,0-4.38-4.38H44.83A12.1,12.1,0,0,0,48.76,6a1,1,0,0,0-1.65,1,10.17,10.17,0,1,1-2.25-2.67,1,1,0,1,0,1.23-1.46,12.09,12.09,0,0,0-19.66,7A8.76,8.76,0,1,0,14.22,22.28a4.39,4.39,0,0,0-4.38,4.38v.16H6l-4.6-2.18A1,1,0,0,0,0,25.5V37.34a1,1,0,0,0,1.36.86L6,36H9.84v15a4.39,4.39,0,0,0,4.38,4.39H39.07a1,1,0,0,0,0-1.91H14.22a2.48,2.48,0,0,1-2.47-2.48V26.66a2.48,2.48,0,0,1,2.47-2.47H47.31a2.48,2.48,0,0,1,2.48,2.47V51.07a2.48,2.48,0,0,1-2.48,2.48H42.88a1,1,0,0,0,0,1.91h4.43a4.39,4.39,0,0,0,4.38-4.39V43.5l11.9,6.55A1,1,0,0,0,65,49.21v-26a1,1,0,0,0-.47-.82ZM1.91,27l2.88,1.37v6.09L1.91,35.84ZM6.7,34.12V28.73H9.84v5.39Zm6.12-18.69a6.85,6.85,0,1,1,6.85,6.85A6.86,6.86,0,0,1,12.82,15.43Zm12.3,6.85a8.8,8.8,0,0,0,2.82-4,12.33,12.33,0,0,0,3.86,4Zm38,25.32-11.4-6.28V31.12l11.4-6.27Z"/><path class="cls-2" d="M33.45,12.09a4.87,4.87,0,1,0,4.87-4.86A4.87,4.87,0,0,0,33.45,12.09Zm7.82,0a3,3,0,1,1-3-2.95A3,3,0,0,1,41.27,12.09Z"/><path class="cls-2" d="M19.67,18.86a3.44,3.44,0,1,0-3.44-3.43A3.44,3.44,0,0,0,19.67,18.86Zm0-5a1.53,1.53,0,1,1-1.53,1.53A1.53,1.53,0,0,1,19.67,13.9Z"/><path class="cls-3" d="M41.93,41.36V31a2.23,2.23,0,0,0-2.23-2.23H29.38a1,1,0,0,0,0,1.91H39.7A.32.32,0,0,1,40,31V41.36a.31.31,0,0,1-.32.31H21.83a.32.32,0,0,1-.32-.31V31a.32.32,0,0,1,.32-.32h3.74a1,1,0,0,0,0-1.91H21.83A2.22,2.22,0,0,0,19.61,31V41.36a2.22,2.22,0,0,0,2.22,2.22H39.7A2.23,2.23,0,0,0,41.93,41.36Z"/><path class="cls-3" d="M35.9,46.9a1,1,0,0,0,0,1.91h2.38a1,1,0,0,0,0-1.91Z"/><path class="cls-3" d="M29.58,46.9a1,1,0,1,0,0,1.91H32a1,1,0,0,0,0-1.91Z"/><path class="cls-3" d="M23.26,46.9a1,1,0,1,0,0,1.91h2.38a1,1,0,0,0,0-1.91Z"/></g></g></svg>