<svg xmlns="http://www.w3.org/2000/svg" viewBox="0 0 59.54 82.69"><defs><style>.cls-1,.cls-2,.cls-3{fill:none;stroke-linecap:round;stroke-linejoin:round;}.cls-1{stroke:#efc5d2;stroke-width:3px;}.cls-2{stroke:#b5143f;}.cls-2,.cls-3{stroke-width:1.91px;}.cls-3{stroke:#00f9ff;}</style></defs><g id="Capa_2" data-name="Capa 2"><g id="Capa_1-2" data-name="Capa 1"><path class="cls-1" d="M57.67,3.3H6.41S3.32,4,3.32,6.72V64.65"/><path class="cls-2" d="M1,70.69H1V8.2H1A7.26,7.26,0,0,1,8.2,1H58.58V63.44"/><path class="cls-2" d="M19.33,77.94H8.2A7.25,7.25,0,0,1,1,70.69H1A7.26,7.26,0,0,1,8.2,63.44h7.44"/><polyline class="cls-2" points="51.35 63.44 58.58 63.44 58.58 77.94 50.26 77.94"/><path class="cls-3" d="M19.33,38.24V15.56a3.48,3.48,0,0,1,3.48-3.48h0a3.47,3.47,0,0,1,3.47,3.48v16.8"/><path class="cls-3" d="M26.28,38.24l0-30.65a3.48,3.48,0,0,1,3.48-3.48h0a3.47,3.47,0,0,1,3.47,3.48V30.77"/><path class="cls-3" d="M33.24,38.24V12a3.48,3.48,0,0,1,3.48-3.48h0A3.48,3.48,0,0,1,40.21,12V31.64"/><path class="cls-3" d="M19.32,68.64l-2.46-3.38a31.87,31.87,0,0,1-6.06-18.7V31.75a3.26,3.26,0,0,1,3.26-3.26h0a5.27,5.27,0,0,1,5.27,5.28V51"/><polyline class="cls-3" points="19.31 81.74 19.32 68.64 19.32 68.64"/><path class="cls-3" d="M40.2,38.25V20.47A3.48,3.48,0,0,1,43.68,17h0a3.48,3.48,0,0,1,3.48,3.48V51.81L45.59,81.74"/></g></g></svg>