<svg xmlns="http://www.w3.org/2000/svg" viewBox="0 0 79.8 86.75"><defs><style>.cls-1,.cls-2,.cls-3,.cls-4{fill:none;stroke-linecap:round;stroke-linejoin:round;}.cls-1,.cls-2{stroke:#efc5d2;}.cls-1{stroke-width:3px;}.cls-2{stroke-width:2.88px;}.cls-3{stroke:#b5143f;}.cls-3,.cls-4{stroke-width:1.67px;}.cls-4{stroke:#00f9ff;}</style></defs><g id="Capa_2" data-name="Capa 2"><g id="Capa_1-2" data-name="Capa 1"><path class="cls-1" d="M53.33,49.33H41.74s-8.82-6-20.88-1.56c-8.17,3-18.71,16.87-18.71,16.87"/><path class="cls-2" d="M41.8,2.69s-6,7.64-.06,13.3"/><path class="cls-2" d="M57,14s-9.72.22-10.3,8.42"/><line class="cls-2" x1="74.88" y1="42.87" x2="57.03" y2="57.98"/><path class="cls-3" d="M42.89,54.57l12.82,2.54L73,42.59a3.6,3.6,0,0,1,4.58-.05h0a3.6,3.6,0,0,1,.63,5L66,63.94a13.51,13.51,0,0,1-10.81,5.41H27.34L10.27,85.91"/><path class="cls-4" d="M66,44.15a17.28,17.28,0,0,0-28.82-6,13.24,13.24,0,0,0-18.72,8.71"/><path class="cls-4" d="M31.35,42.87a10.72,10.72,0,0,1,13.91-3.32"/><path class="cls-3" d="M41.74.83s-10,11.35,0,16.31C51.8,12.18,41.74.83,41.74.83Z"/><path class="cls-3" d="M57.81,13.19s-15.13.91-11.53,11.53C56.89,28.32,57.81,13.19,57.81,13.19Z"/><line class="cls-4" x1="41.74" y1="34.69" x2="41.74" y2="12.82"/><line class="cls-4" x1="48.83" y1="22.17" x2="41.8" y2="29.2"/><path class="cls-3" d="M.83,62.63,12.69,50.77A18.89,18.89,0,0,1,20,46.25h0A29.25,29.25,0,0,1,40.6,47l1.41.59h9.58a3.5,3.5,0,0,1,3.5,3.5h0a3.5,3.5,0,0,1-3.5,3.5H30.43"/></g></g></svg>