<svg xmlns="http://www.w3.org/2000/svg" viewBox="0 0 70.88 70.41"><defs><style>.cls-1,.cls-2,.cls-3{fill:none;stroke-linecap:round;stroke-linejoin:round;}.cls-1{stroke:#efc5d2;stroke-width:3px;}.cls-2{stroke:#b5143f;}.cls-2,.cls-3{stroke-width:1.53px;}.cls-3{stroke:#00f9ff;}</style></defs><g id="Capa_2" data-name="Capa 2"><g id="Capa_1-2" data-name="Capa 1"><path class="cls-1" d="M36.9,16.29H13.53s-.5,5.49-3,6.9S3.72,28.41,3.3,30s-.76,37.15-.76,37.15"/><line class="cls-1" x1="39.53" y1="3.06" x2="10.15" y2="3.06"/><path class="cls-2" d="M61.08,68a5.86,5.86,0,0,0,9-4.93V44.34a5.86,5.86,0,1,0-11.72,0v5"/><line class="cls-2" x1="63.09" y1="53.69" x2="70.11" y2="53.69"/><rect class="cls-2" x="9.11" y="0.77" width="31.42" height="11.02"/><line class="cls-2" x1="14.46" y1="0.77" x2="14.46" y2="11.78"/><line class="cls-2" x1="19.64" y1="0.77" x2="19.64" y2="11.78"/><line class="cls-2" x1="24.82" y1="0.77" x2="24.82" y2="11.78"/><line class="cls-2" x1="30" y1="0.77" x2="30" y2="11.78"/><line class="cls-2" x1="35.18" y1="0.77" x2="35.18" y2="11.78"/><path class="cls-2" d="M48.87,49.8v-19a5.18,5.18,0,0,0-2.41-4.38l-6.18-3.94a5.17,5.17,0,0,1-2.4-4.38V11.78H11.76v6.35a5.19,5.19,0,0,1-2.4,4.38L3.17,26.45a5.17,5.17,0,0,0-2.4,4.38V65.46A3.44,3.44,0,0,0,4.21,68.9H45.43a3.43,3.43,0,0,0,2.08-.7"/><rect class="cls-3" x="5.02" y="31.13" width="39.59" height="21.74"/><circle class="cls-3" cx="53.94" cy="59.34" r="10.31"/><path class="cls-3" d="M44.79,64.09a10.56,10.56,0,0,0,1.86,2.54,10.76,10.76,0,0,0,2.54,1.86l13.9-13.91a10,10,0,0,0-1.86-2.53,10.25,10.25,0,0,0-2.53-1.86Z"/><line class="cls-2" x1="11.76" y1="14.79" x2="37.88" y2="14.79"/></g></g></svg>