<svg xmlns="http://www.w3.org/2000/svg" viewBox="0 0 79.44 48.5"><defs><style>.cls-1,.cls-2,.cls-3,.cls-4,.cls-5,.cls-6{fill:none;stroke-linecap:round;stroke-linejoin:round;}.cls-1{stroke:#efc5d2;stroke-width:3px;}.cls-2,.cls-4,.cls-5,.cls-6{stroke:#b5143f;}.cls-2,.cls-3,.cls-4,.cls-5,.cls-6{stroke-width:1.63px;}.cls-3{stroke:#00f9ff;}.cls-4{stroke-dasharray:4.15 4.15;}.cls-5{stroke-dasharray:4.05 4.05;}.cls-6{stroke-dasharray:4.16 4.16;}</style></defs><g id="Capa_2" data-name="Capa 2"><g id="Capa_1-2" data-name="Capa 1"><line class="cls-1" x1="2.52" y1="1.81" x2="2.52" y2="46.68"/><polyline class="cls-2" points="0.81 0.81 0.81 47.68 78.63 47.68"/><circle class="cls-3" cx="26.9" cy="17.53" r="1.98"/><circle class="cls-3" cx="9.05" cy="35.18" r="1.98"/><circle class="cls-3" cx="75.66" cy="7.73" r="1.98"/><path class="cls-3" d="M54.23,26.28a2,2,0,1,1-2-2A2,2,0,0,1,54.23,26.28Z"/><line class="cls-3" x1="25.7" y1="19.09" x2="10.8" y2="33.66"/><line class="cls-3" x1="28.81" y1="18.02" x2="50.42" y2="25.56"/><line class="cls-3" x1="54.09" y1="25.56" x2="74.1" y2="8.93"/><line class="cls-2" x1="52.25" y1="31.17" x2="52.25" y2="33.2"/><line class="cls-4" x1="52.25" y1="37.35" x2="52.25" y2="43.58"/><line class="cls-2" x1="52.25" y1="45.65" x2="52.25" y2="47.68"/><line class="cls-2" x1="9.05" y1="40.45" x2="9.05" y2="42.48"/><line class="cls-2" x1="9.05" y1="45.65" x2="9.05" y2="47.68"/><line class="cls-2" x1="26.9" y1="23.36" x2="26.9" y2="25.39"/><line class="cls-5" x1="26.9" y1="29.44" x2="26.9" y2="43.63"/><line class="cls-2" x1="26.9" y1="45.65" x2="26.9" y2="47.68"/><line class="cls-2" x1="75.66" y1="14.52" x2="75.66" y2="16.55"/><line class="cls-6" x1="75.66" y1="20.71" x2="75.66" y2="43.57"/><line class="cls-2" x1="75.66" y1="45.65" x2="75.66" y2="47.68"/></g></g></svg>