<svg xmlns="http://www.w3.org/2000/svg" viewBox="0 0 69.41 79.13"><defs><style>.cls-1,.cls-2{fill:none;stroke-linecap:round;stroke-linejoin:round;}.cls-1{stroke:#efc5d2;stroke-width:3px;}.cls-2{stroke:#b5143f;stroke-width:1.68px;}</style></defs><g id="Capa_2" data-name="Capa 2"><g id="Capa_1-2" data-name="Capa 1"><polyline class="cls-1" points="2.95 30.74 2.98 62.44 6.18 69.18 6.18 74.34"/><line class="cls-1" x1="45.34" y1="8.94" x2="45.37" y2="36.64"/><path class="cls-2" d="M38.9,50.07a3.51,3.51,0,0,0-5.15-.63l-7.38,6.25v-27a3.19,3.19,0,0,0-6.38,0v-6a3.19,3.19,0,1,0-6.38,0v4.07a3.2,3.2,0,0,0-6.39,0v5A3.19,3.19,0,0,0,4,28.6H4A3.19,3.19,0,0,0,.84,31.79V62.05l3.81,7.46v5.6H21V70.17L38.36,54.74A3.51,3.51,0,0,0,38.9,50.07Z"/><line class="cls-2" x1="19.99" y1="28.72" x2="19.99" y2="43.85"/><line class="cls-2" x1="13.61" y1="26.83" x2="13.61" y2="43.85"/><line class="cls-2" x1="7.22" y1="31.79" x2="7.22" y2="43.85"/><path class="cls-2" d="M26.37,55.69s-12.76-.33-12.76,13.49"/><path class="cls-2" d="M22.48,75.11H3.61a1.59,1.59,0,0,0,0,3.18H22.48a1.59,1.59,0,0,0,0-3.18Z"/><path class="cls-2" d="M30.51,31.34a3.52,3.52,0,0,1,5.15-.63L43,37V10a3.19,3.19,0,0,1,6.38,0V4A3.19,3.19,0,1,1,55.8,4V8.1a3.19,3.19,0,1,1,6.38,0v5a3.19,3.19,0,0,1,3.19-3.19h0a3.19,3.19,0,0,1,3.19,3.19V43.33l-3.81,7.45v5.6H48.41V51.44L31,36A3.52,3.52,0,0,1,30.51,31.34Z"/><line class="cls-2" x1="49.42" y1="9.99" x2="49.42" y2="25.12"/><line class="cls-2" x1="55.8" y1="8.1" x2="55.8" y2="25.12"/><line class="cls-2" x1="62.18" y1="13.06" x2="62.18" y2="25.12"/><path class="cls-2" d="M43,37s12.76-.32,12.76,13.5"/><path class="cls-2" d="M46.93,56.38H65.8a1.59,1.59,0,1,1,0,3.18H46.93a1.59,1.59,0,1,1,0-3.18Z"/></g></g></svg>