<svg xmlns="http://www.w3.org/2000/svg" viewBox="0 0 75.23 59.14"><defs><style>.cls-1,.cls-2,.cls-3,.cls-4,.cls-5{fill:none;stroke-linecap:round;stroke-linejoin:round;}.cls-1{stroke:#efc5d2;stroke-width:3px;}.cls-2,.cls-5{stroke:#00f9ff;}.cls-2,.cls-3{stroke-width:1.21px;}.cls-3,.cls-4{stroke:#b5143f;}.cls-4,.cls-5{stroke-width:2px;}</style></defs><g id="Capa_2" data-name="Capa 2"><g id="Capa_1-2" data-name="Capa 1"><line class="cls-1" x1="35.04" y1="7.07" x2="1.63" y2="41.1"/><path class="cls-1" d="M62.55,5.15c-2.4,5.26-21,26.64,0,42.3"/><line class="cls-2" x1="41.52" y1="20.2" x2="19.54" y2="20.2"/><path class="cls-3" d="M34.59,5.15,2.88,36.85a7.77,7.77,0,0,0,11,11L45.58,16.14Z"/><path class="cls-3" d="M49.31,12,38.72,1.42a2.77,2.77,0,0,0-3.93,0h0a2.76,2.76,0,0,0,0,3.92l10.59,10.6a2.79,2.79,0,0,0,3.93,0h0A2.79,2.79,0,0,0,49.31,12Z"/><path class="cls-2" d="M27.07,27.58a2.34,2.34,0,1,1,0-3.31A2.34,2.34,0,0,1,27.07,27.58Z"/><path class="cls-2" d="M13.07,38.27a2.61,2.61,0,1,1,0-3.69A2.61,2.61,0,0,1,13.07,38.27Z"/><line class="cls-3" x1="40.5" y1="16.79" x2="42.71" y2="19.01"/><line class="cls-3" x1="38.79" y1="20.2" x2="40.16" y2="21.56"/><line class="cls-3" x1="36.23" y1="22.76" x2="37.6" y2="24.12"/><line class="cls-3" x1="32.82" y1="24.46" x2="35.04" y2="26.68"/><line class="cls-3" x1="31.12" y1="27.87" x2="32.48" y2="29.24"/><line class="cls-3" x1="28.56" y1="30.43" x2="29.93" y2="31.79"/><line class="cls-3" x1="24.84" y1="32.45" x2="27.06" y2="34.66"/><line class="cls-3" x1="23.13" y1="35.86" x2="24.5" y2="37.22"/><line class="cls-3" x1="20.58" y1="38.41" x2="21.94" y2="39.78"/><line class="cls-3" x1="17.17" y1="40.12" x2="19.38" y2="42.34"/><line class="cls-3" x1="15.46" y1="43.53" x2="16.83" y2="44.89"/><line class="cls-3" x1="12.9" y1="46.09" x2="14.27" y2="47.45"/><path class="cls-4" d="M62.55,2.72s-26.31,32.47,0,46.54C88.85,35.19,62.55,2.72,62.55,2.72Z"/><line class="cls-5" x1="62.55" y1="58.14" x2="62.55" y2="26.36"/></g></g></svg>