<svg xmlns="http://www.w3.org/2000/svg" viewBox="0 0 72.11 71.15"><defs><style>.cls-1{fill:none;stroke:#efc5d2;stroke-linecap:round;stroke-miterlimit:10;stroke-width:3px;}.cls-2{fill:#b5143f;}</style></defs><g id="Capa_2" data-name="Capa 2"><g id="Capa_1-2" data-name="Capa 1"><path class="cls-1" d="M24.47,58.81c-7.8-4.48-14.38-13.6-14.38-23.23A26,26,0,0,1,48.43,12.75"/><path class="cls-2" d="M50.42,3.2A68.24,68.24,0,0,0,43.21,7l-.09.06-.11,0a29.69,29.69,0,0,0-6.95-.83A29.33,29.33,0,0,0,6.71,35.58,29.81,29.81,0,0,0,7.42,42l0,.1-.05.09a69.08,69.08,0,0,0-4,7.15C-.76,58.18-1.12,65,2.41,68.62S12.78,72,21.69,68a68.43,68.43,0,0,0,7.2-3.84l.09-.05.11,0A29.36,29.36,0,0,0,65.41,35.58a29.91,29.91,0,0,0-.72-6.44l0-.1.06-.09a68.44,68.44,0,0,0,4-7.15c4.18-8.83,4.54-15.68,1-19.27S59.33-.82,50.42,3.2ZM16.92,16.44a27.08,27.08,0,0,1,38.27,0A27.19,27.19,0,0,1,59.48,22l.06.11,0,.11c-.29.74-.62,1.49-1,2.22-2.9,6.11-8,13-14.46,19.27S30.71,55.07,24.55,57.85c-.74.33-1.49.64-2.23.92l-.12,0-.11-.06a27.32,27.32,0,0,1-5.17-4,27.08,27.08,0,0,1,0-38.27Zm35.86-5,.58-.11c2.94-.58,5.06-.23,6.31,1.05s1.57,3.41.93,6.34l-.12.58-.34-.49a29.44,29.44,0,0,0-3.33-4,30.69,30.69,0,0,0-3.55-3ZM19.34,59.7l-.59.11a13.1,13.1,0,0,1-2.51.28,5.14,5.14,0,0,1-3.8-1.32c-1.25-1.28-1.56-3.4-.93-6.33l.13-.58.34.49a29.19,29.19,0,0,0,3.32,4,30.13,30.13,0,0,0,3.56,3Zm35.85-5a26.89,26.89,0,0,1-19.13,7.93,28.07,28.07,0,0,1-3.6-.25l-.68-.09.57-.38A114.4,114.4,0,0,0,48.64,48.54l0,0,.06-.07A114.37,114.37,0,0,0,62.47,32.34l.39-.56.08.68a27.05,27.05,0,0,1-7.75,22.25ZM66.63,20.83c-3.91,8.25-10.83,17.48-19.5,26l0,0,0,0h0c-8.67,8.5-18,15.24-26.31,19-4.46,2-8.29,3-11.29,3A7.33,7.33,0,0,1,4,67c-2.8-2.86-2.29-8.79,1.46-16.7C6.18,48.85,7,47.26,8,45.59l.28-.48.18.52A31.31,31.31,0,0,0,10,49.12l.05.1,0,.11c-1.68,5-1.42,8.81.77,11,2.72,2.76,7.93,2.61,14.68-.44,6.4-2.88,13.57-8,20.19-14.56S57.6,31.8,60.6,25.45c3.17-6.69,3.42-11.9.7-14.66-2.19-2.23-6-2.57-11-1l-.1,0-.1-.05A28.43,28.43,0,0,0,46.6,8.18L46.08,8l.49-.27c1.65-.93,3.26-1.75,4.79-2.44,8-3.6,13.91-4,16.72-1.15S70.37,12.92,66.63,20.83Z"/></g></g></svg>