<svg xmlns="http://www.w3.org/2000/svg" viewBox="0 0 82.89 81.26"><defs><style>.cls-1,.cls-2,.cls-3{fill:none;stroke-linecap:round;stroke-linejoin:round;}.cls-1{stroke:#efc5d2;stroke-width:3px;}.cls-2{stroke:#b5143f;}.cls-2,.cls-3{stroke-width:1.66px;}.cls-3{stroke:#00f9ff;}</style></defs><g id="Capa_2" data-name="Capa 2"><g id="Capa_1-2" data-name="Capa 1"><path class="cls-1" d="M40.12,16.9s-.06,3.15-4.8,4.79-3.5,11.4-3.5,11.4"/><path class="cls-1" d="M10.38,65.59s0,2.42-4.17,3.32c-4.85,1-3.5,10.4-3.5,10.4"/><path class="cls-1" d="M40.84,65.59s0,2.42-4.17,3.32c-4.85,1-3.5,10.4-3.5,10.4"/><path class="cls-1" d="M71,65.59s0,2.42-4.18,3.32c-4.84,1-3.49,10.4-3.49,10.4"/><path class="cls-2" d="M11,50.53A5.46,5.46,0,0,0,5.55,56v2.95a5.46,5.46,0,0,0,10.91,0V56A5.46,5.46,0,0,0,11,50.53Z"/><polyline class="cls-2" points="5.55 57.23 12.9 54.48 16.46 56.88"/><path class="cls-2" d="M13.19,65.59l5.57,2.79a4.93,4.93,0,0,1,2.42,4.24v7.81H.83V72.62a4.93,4.93,0,0,1,2.42-4.24l5.57-2.79"/><line class="cls-2" x1="8.82" y1="65.59" x2="8.82" y2="64.11"/><line class="cls-2" x1="13.19" y1="65.59" x2="13.19" y2="64.15"/><path class="cls-2" d="M15.74,66.89A6.4,6.4,0,0,1,11,69.13a6.43,6.43,0,0,1-4.76-2.24"/><path class="cls-2" d="M41.44,50.53A5.46,5.46,0,0,0,36,56v2.95a5.46,5.46,0,0,0,10.91,0V56A5.46,5.46,0,0,0,41.44,50.53Z"/><polyline class="cls-2" points="35.99 57.23 43.34 54.48 46.9 56.88"/><path class="cls-2" d="M43.63,65.59l5.57,2.79a4.93,4.93,0,0,1,2.42,4.24v7.81H31.27V72.62a4.93,4.93,0,0,1,2.42-4.24l5.57-2.79"/><line class="cls-2" x1="39.26" y1="65.59" x2="39.26" y2="64.11"/><line class="cls-2" x1="43.63" y1="65.59" x2="43.63" y2="64.15"/><path class="cls-2" d="M46.18,66.89a6.17,6.17,0,0,1-9.51,0"/><path class="cls-2" d="M41.44.83A6.12,6.12,0,0,0,35.32,7v3.31a6.13,6.13,0,0,0,12.25,0V7A6.13,6.13,0,0,0,41.44.83Z"/><polyline class="cls-2" points="35.32 8.34 43.57 5.25 47.56 7.95"/><path class="cls-2" d="M43.9,17.72l6.24,3.14a5.52,5.52,0,0,1,2.72,4.76v8.76H30V25.62a5.53,5.53,0,0,1,2.71-4.76L39,17.72"/><line class="cls-2" x1="38.99" y1="17.72" x2="38.99" y2="16.07"/><line class="cls-2" x1="43.9" y1="17.72" x2="43.9" y2="16.12"/><path class="cls-2" d="M46.76,19.18a6.92,6.92,0,0,1-10.67,0"/><path class="cls-2" d="M71.88,50.53A5.46,5.46,0,0,0,66.43,56v2.95a5.46,5.46,0,0,0,10.91,0V56A5.46,5.46,0,0,0,71.88,50.53Z"/><polyline class="cls-2" points="66.43 57.23 73.78 54.48 77.34 56.88"/><path class="cls-2" d="M74.07,65.59l5.57,2.79a4.93,4.93,0,0,1,2.42,4.24v7.81H61.71V72.62a4.93,4.93,0,0,1,2.42-4.24l5.57-2.79"/><line class="cls-2" x1="69.7" y1="65.59" x2="69.7" y2="64.11"/><line class="cls-2" x1="74.07" y1="65.59" x2="74.07" y2="64.15"/><path class="cls-2" d="M76.62,66.89a6.17,6.17,0,0,1-9.51,0"/><line class="cls-3" x1="41.44" y1="38.23" x2="41.44" y2="46.68"/><polyline class="cls-3" points="11 45.92 11 42.46 71.87 42.46 71.87 45.92"/></g></g></svg>