<svg xmlns="http://www.w3.org/2000/svg" viewBox="0 0 53.77 81.87"><defs><style>.cls-1,.cls-2{fill:none;stroke:#efc5d2;stroke-width:3px;}.cls-1{stroke-miterlimit:10;}.cls-2{stroke-linecap:round;stroke-linejoin:round;}.cls-3{fill:#b5143f;}</style></defs><g id="Capa_2" data-name="Capa 2"><g id="Capa_1-2" data-name="Capa 1"><path class="cls-1" d="M21.44,46.45S7,51.87,4.38,55.6,2.79,80.08,2.79,80.08"/><line class="cls-2" x1="32.33" y1="46.45" x2="51.04" y2="55.25"/><path class="cls-3" d="M48,50.68,37.57,46.23l-3.84-2.17v-1.5a11.85,11.85,0,0,0,7.56-11V23.73c4.09-4.46,5-15.12,5-18.93a.91.91,0,0,0-1.1-.88c-3,.68-6.08-.49-9.36-1.72C33,1.12,30,0,26.77,0h-.23c-4,0-12.1,0-14.19,9.55a6.75,6.75,0,0,0-2.84,4.87,11.68,11.68,0,0,0,2.74,9.31v7.78a11.79,11.79,0,0,0,7.8,11.14v1.41L16.2,46.23,5.73,50.68A9.38,9.38,0,0,0,0,59.33V81a.9.9,0,0,0,.9.9h52a.89.89,0,0,0,.89-.9V59.33A9.38,9.38,0,0,0,48,50.68ZM20.58,45.82l.86,1.63,4.28,8.16L21,58.78,17.66,47.47Zm11.35-1.46-1.18,2.26L26.89,54,23,46.62l-1.19-2.26v-1.2a11.67,11.67,0,0,0,2.28.22h5.29a11.86,11.86,0,0,0,2.52-.27Zm-2.22,15.2-.85,2.15H24.91l-.84-2.15L23.86,59l3-2,3,2ZM22.49,77.49l2.56-14h3.67l2.56,14,.47,2.59H22Zm5.56-21.88,4.28-8.16.86-1.63,2.92,1.65L32.77,58.78ZM11.28,14.69a4.83,4.83,0,0,1,2.28-3.76A1,1,0,0,0,14,10.3c1.66-8.51,8.49-8.5,12.51-8.51h.23c2.87,0,5.7,1.07,8.44,2.09,3,1.14,6.14,2.3,9.28,2-.15,4.89-1.31,12.48-4.05,16.11a14.18,14.18,0,0,1-1.77-7.44.9.9,0,0,0-.9-.9H16.26a.9.9,0,0,0-.9.9,12,12,0,0,1-2.2,7.53A10.12,10.12,0,0,1,11.28,14.69ZM14,31.51V23.77c.81-.84,2.87-3.46,3.09-8.35H36.89c.19,4.87,1.93,7.47,2.61,8.31v7.78a10.07,10.07,0,0,1-7,9.57,9.93,9.93,0,0,1-3.14.51H24.12a10.37,10.37,0,0,1-2.92-.43h0A10.17,10.17,0,0,1,14,31.51Zm-6,30.2a.9.9,0,0,0-.9.9V80.08H1.79V59.33a7.58,7.58,0,0,1,4.64-7L16,48.26l3.61,12.21a.92.92,0,0,0,.55.59,1.12,1.12,0,0,0,.31,0h.15A.93.93,0,0,0,21,61l1.34-.91.93,2.35.11.3L20.19,80.08H9V62.61A.89.89,0,0,0,8.08,61.71ZM52,80.08H46.59V62.61a.9.9,0,1,0-1.79,0V80.08H33.58L30.4,62.7l.11-.3.93-2.35,1.34.91a.93.93,0,0,0,.35.13h.16a1,1,0,0,0,.3,0,.94.94,0,0,0,.56-.59l3.6-12.21,9.59,4.07a7.58,7.58,0,0,1,4.64,7Z"/></g></g></svg>