<svg xmlns="http://www.w3.org/2000/svg" viewBox="0 0 32.72 58.89"><defs><style>.cls-1,.cls-2,.cls-3{fill:none;stroke-linecap:round;}.cls-1{stroke:#efc5d2;stroke-miterlimit:10;stroke-width:2.86px;}.cls-2{stroke:#b5143f;}.cls-2,.cls-3{stroke-linejoin:round;stroke-width:1.28px;}.cls-3{stroke:#00f9ff;}</style></defs><g id="Capa_2" data-name="Capa 2"><g id="Capa_1-2" data-name="Capa 1"><polyline class="cls-1" points="6.84 49.56 6.84 13.7 19.58 13.7"/><path class="cls-2" d="M30.27,8.89a5,5,0,0,1,1.81,3.83V53.31a4.94,4.94,0,0,1-4.93,4.94H5.58A4.94,4.94,0,0,1,.64,53.31V12.72A4.94,4.94,0,0,1,5.58,7.78h8.91"/><path class="cls-2" d="M28.16,12.68V49.59a1,1,0,0,1-1,1H5.54a1,1,0,0,1-1-1V12.68a1,1,0,0,1,1-1H19.18"/><path class="cls-3" d="M23.93,19.93l5.56-9.65A6.42,6.42,0,0,0,23.93.64h0a6.43,6.43,0,0,0-5.57,9.64Z"/><path class="cls-3" d="M26.34,7.25a2.42,2.42,0,1,1-2.41-2.41A2.41,2.41,0,0,1,26.34,7.25Z"/><path class="cls-3" d="M25.56,23.77a1.63,1.63,0,1,1-1.63-1.63A1.63,1.63,0,0,1,25.56,23.77Z"/><line class="cls-2" x1="20.63" y1="54.57" x2="12.09" y2="54.57"/></g></g></svg>