<svg xmlns="http://www.w3.org/2000/svg" viewBox="0 0 86.59 54.47"><defs><style>.cls-1{fill:#efc5d2;}.cls-2{fill:#00f9ff;}.cls-3{fill:#b5143f;}</style></defs><g id="Capa_2" data-name="Capa 2"><g id="Capa_1-2" data-name="Capa 1"><path class="cls-1" d="M3.5,24.7A1.73,1.73,0,0,0,5,24.43l.25-.64a1.93,1.93,0,0,1,.43-2l4.14-8a30.32,30.32,0,0,0,1.46-3.11c.31-.83,1.27-1.57,2.9-2.24l.64-.25a1,1,0,0,1-.78-.89C13.24.42,5.41,1.05,5.41,1.05A16,16,0,0,1,9.52,4.48c.22.32.4.61.55.88a6.45,6.45,0,0,1,.47.95,1.42,1.42,0,0,1-.81,1.84h0L9,8.41c-1.95.8-2.94,1.7-3,2.75a2.54,2.54,0,0,1-.67,1.52,6.67,6.67,0,0,0-1.28,3.87l-2.5,3.68a1.93,1.93,0,0,0-.43,2A3.77,3.77,0,0,0,3.5,24.7Z"/><path class="cls-1" d="M27.59,33.32a16.59,16.59,0,0,0,2.92,1.46,9.72,9.72,0,0,1,.63,3.9A11.46,11.46,0,0,0,31.88,44S32,49.13,30,51l-1.93,1.83a.33.33,0,0,0,0,.47.33.33,0,0,0,.25.11h5.14a.33.33,0,0,1-.3-.37.26.26,0,0,1,.1-.2l.59-.57.22-.61a2.2,2.2,0,0,1,.77-1.06l.2-.14A2.26,2.26,0,0,0,35.83,48,20.31,20.31,0,0,1,36,36.83a2,2,0,0,0,0-1v0a2.07,2.07,0,0,0-1.16-1.37,14.42,14.42,0,0,1-2-1.1c-4.9-3.15-5.54-7.84-9.89-10.66a8.76,8.76,0,0,0-7.15-.92,8.24,8.24,0,0,1,2,.92c4.36,2.82,5,7.51,9.89,10.66Z"/><path class="cls-2" d="M26.32,50l.5-.6c1.42-1.39,2.11-3.77,2.43-5.53a8,8,0,0,0,0-2.8,30,30,0,0,1-.65-7.58l-2-.34c-.33,2,.26,6,.65,8.28a5.76,5.76,0,0,1,0,2.07,8.43,8.43,0,0,1-1.86,4.44l-.08.09-1.58,1.89a1.27,1.27,0,0,0,.93,2.15H30V50Z"/><path class="cls-2" d="M72.74,36.17a80,80,0,0,0-1.06,8c-.1,1-.18,1.91-.3,2.66V47c-.15.91-.26,1.48-.68,1.73a3.5,3.5,0,0,0-1.4,1.5l-.46,1-2.64-.3.73-.54c1.92-1.45,2.68-4.78,3-6.64a4.91,4.91,0,0,0,0-1.75c-.06-.34-.12-.69-.16-1l-2.06.24c0,.41.12.81.19,1.21a3,3,0,0,1,0,1c-.4,2.59-1.21,4.57-2.16,5.29l-2.32,1.73a1.28,1.28,0,0,0-.26,1.79,1.29,1.29,0,0,0,.88.51l5.17.6a1.27,1.27,0,0,0,1.29-.72l.71-1.45a1.45,1.45,0,0,1,.58-.62,4,4,0,0,0,1.68-3.2v-.1c.13-.82.22-1.74.32-2.81a76.62,76.62,0,0,1,1-7.83Z"/><path class="cls-3" d="M11.67,11.67a2.25,2.25,0,0,1,1.92.44A4,4,0,0,0,15,12.7l0,0a2.86,2.86,0,0,1-3.19.59,1,1,0,0,0-1.34.58A1,1,0,0,0,11,15.24h0a5.32,5.32,0,0,0,2,.39c2.61,0,4.39-2.18,5.05-3.6a1,1,0,0,0-1.27-1.42,2.6,2.6,0,0,1-2.07-.24,4.14,4.14,0,0,0-3.9-.6,1,1,0,1,0,.82,1.9h0Z"/><path class="cls-3" d="M86.08,35.61a13,13,0,0,1-.33-4.3,49,49,0,0,0,.34-11.11,20.83,20.83,0,0,1,0-4.52,7.56,7.56,0,0,0-6.79-8.27,7.94,7.94,0,0,0-.85,0,45.49,45.49,0,0,0-4.66.38c-.69.09-1.28.16-1.6.17S71.09,8,70.11,8c-6,.22-24,.91-28.41-.76C35.71,4.94,30.12,4.54,26,6.1,22.72,7.3,16.83,7.22,15.1,7.15A7.48,7.48,0,0,0,9.76.61,12.14,12.14,0,0,0,5.32,0a1,1,0,0,0-.44,1.92c.27.16.72.44,1.21.79A18.55,18.55,0,0,0,3.3,2.62a1,1,0,0,0-1,1.08,1,1,0,0,0,.54.86A20.83,20.83,0,0,1,7.45,8,4,4,0,0,0,5,11.09a1.53,1.53,0,0,1-.41.9,7.37,7.37,0,0,0-1.53,4.23L.77,19.58a3,3,0,0,0-.59,3,4.74,4.74,0,0,0,3,3.09,2.84,2.84,0,0,0,2.46-.42c6.2-4.5,10.36-2.47,11.49-1.74a15.83,15.83,0,0,1,4.34,4.75c1.74,2.55,3.71,5.42,8.19,7.28a7.94,7.94,0,0,1,.45,2.95,12.18,12.18,0,0,0,.73,5.7,18.69,18.69,0,0,1-.19,2.48,6.51,6.51,0,0,1-1.36,3.59L27.37,52.1A1.37,1.37,0,0,0,27.32,54a1.35,1.35,0,0,0,1,.43h5.13a1,1,0,0,0,1-.69L35.05,52a1.12,1.12,0,0,1,.41-.57l.2-.15a3.28,3.28,0,0,0,1.16-3.59c-.6-1.92-1.31-6,.52-11.86a42,42,0,0,0,7.25,1.7,32.57,32.57,0,0,0,4.63.34,20.89,20.89,0,0,0,10.05-2.28,10.52,10.52,0,0,0,1.33,1.57.32.32,0,0,1,.1.33l-.3.89a2.2,2.2,0,0,0,4.18,1.38l0-.12a.33.33,0,0,1,.37-.19,6.54,6.54,0,0,0,.89.09.31.31,0,0,1,.28.27l.08.44a2.21,2.21,0,0,0,2.16,1.78h.26a2.2,2.2,0,0,0,1.93-2.44.5.5,0,0,0,0-.12l-.11-.73a.32.32,0,0,1,.16-.32,16.14,16.14,0,0,0,2.25-1.38l.09.05c.52.24.8.69,1,1.66a10.7,10.7,0,0,0,1.67,3.89,2.29,2.29,0,0,1,.43,1.06A16.86,16.86,0,0,1,76.17,47,4.59,4.59,0,0,1,74.77,50L73.61,51.1a1.54,1.54,0,0,0,0,2.18,1.56,1.56,0,0,0,1.09.47l5.48.08h0a2,2,0,0,0,2-2v-.15A6.21,6.21,0,0,0,81.39,49a.75.75,0,0,1-.1-.33,26.76,26.76,0,0,1,.38-6.79,8.55,8.55,0,0,0,0-4,10.91,10.91,0,0,1,0-5.33,8.6,8.6,0,0,1,0,2.15c-.12,1.57-.25,3.34,1.55,6.89a1.05,1.05,0,0,0,1.4.46,1.09,1.09,0,0,0,.27-.21c2.11-2.17,1.84-3.79,1.14-6.19ZM7.25,5a4.05,4.05,0,0,1,2,.94,6,6,0,0,1,.35.72.37.37,0,0,1,0,.29.35.35,0,0,1-.15.17A13.19,13.19,0,0,0,7.25,5ZM69.69,36.58a2.38,2.38,0,0,0-1.28,2.47l.12.75-.25.09-.08-.43a2.41,2.41,0,0,0-2.23-2,4.78,4.78,0,0,1-.65-.07A2.39,2.39,0,0,0,62.68,39l-.06.16a.13.13,0,0,1-.07.08.17.17,0,0,1-.1,0,.12.12,0,0,1-.08-.15l.29-.87A2.43,2.43,0,0,0,62,35.69a8.19,8.19,0,0,1-1-1.14,20.21,20.21,0,0,1,6.15-2.29,11.51,11.51,0,0,0,3.65,3.65C70.48,36.15,70.09,36.38,69.69,36.58Zm14-4.89A13.56,13.56,0,0,0,82.72,29a20,20,0,0,0,1-8.13A27.21,27.21,0,0,0,82,12.76a1,1,0,1,0-1.91.79v0a25.43,25.43,0,0,1,1.57,7.48,18,18,0,0,1-1,7.66c-1,2.69-1.91,6.56-.89,9.76a7.11,7.11,0,0,1-.12,3.1,29.44,29.44,0,0,0-.39,7.26,2.75,2.75,0,0,0,.36,1.2,4.08,4.08,0,0,1,.54,1.73L76,51.7l.24-.23a6.7,6.7,0,0,0,2-4.26,19.3,19.3,0,0,0-.1-3.8,4.44,4.44,0,0,0-.83-2A8.84,8.84,0,0,1,76,38.27a4.09,4.09,0,0,0-2.14-3c-6.94-3.35-5.64-7.81-5.57-8a1,1,0,0,0-2-.66,6.7,6.7,0,0,0,0,3.77,22.16,22.16,0,0,0-7.3,3c-7.3,4.65-18.1,1.55-21.18.51,1.81-8.16-2.77-11.65-3-11.8a1,1,0,0,0-1.24,1.66c.18.14,4.29,3.37,1.74,11.4-2,6.45-1.24,11-.57,13.22a1.23,1.23,0,0,1-.42,1.33l-.2.14a3.34,3.34,0,0,0-1.13,1.54l-.37,1.07H30.06l.66-.62C33,49.63,32.93,44.56,32.91,44a1.1,1.1,0,0,0-.07-.36,10.38,10.38,0,0,1-.68-4.78c.46-2.75-2.38-8.92-2.7-9.61a1,1,0,0,0-1.88.88c.35.74.76,1.68,1.14,2.67a16.44,16.44,0,0,1-5.54-5.68,17.62,17.62,0,0,0-4.91-5.31c-5.57-3.6-12,.46-13.83,1.79a.75.75,0,0,1-.63.13,2.75,2.75,0,0,1-1.69-1.84A.91.91,0,0,1,2.33,21a.76.76,0,0,0,.11-.14l2.5-3.67a1.1,1.1,0,0,0,.18-.58,5.53,5.53,0,0,1,1-3.19,3.55,3.55,0,0,0,.92-2.14c.05-.66,1.13-1.42,3-2.09a2.51,2.51,0,0,0,1.42-1.31,2.41,2.41,0,0,0,0-1.9,10.88,10.88,0,0,0-1.12-2A7.9,7.9,0,0,0,9.27,2.63,5.45,5.45,0,0,1,13.05,7.4a2.06,2.06,0,0,0,2,1.83c2.33.07,8.15.11,11.64-1.19,3.64-1.37,8.85-1,14.28,1.12,2,.79,7.3,1.73,29.23.9,1,0,1.66-.07,2-.07s1-.09,1.81-.18a43.81,43.81,0,0,1,4.44-.37A5.5,5.5,0,0,1,84,14.86a4.28,4.28,0,0,1,0,.62,22.12,22.12,0,0,0,0,5,47.21,47.21,0,0,1-.36,10.54c0,.2,0,.42,0,.64ZM84.39,39a8.25,8.25,0,0,1-.61-4.21V34.7a12.12,12.12,0,0,0,.3,1.48,4.55,4.55,0,0,1,.3,2.84Z"/></g></g></svg>