<svg xmlns="http://www.w3.org/2000/svg" viewBox="0 0 71.42 64.89"><defs><style>.cls-1,.cls-2,.cls-3{fill:none;stroke-linecap:round;}.cls-1{stroke:#efc5d2;stroke-miterlimit:10;stroke-width:2.86px;}.cls-2{stroke:#b5143f;}.cls-2,.cls-3{stroke-linejoin:round;stroke-width:1.5px;}.cls-3{stroke:#00f9ff;}</style></defs><g id="Capa_2" data-name="Capa 2"><g id="Capa_1-2" data-name="Capa 1"><path class="cls-1" d="M2.79,63.46S.92,49.32,4,43.37s15.32-9.31,15.32-9.31"/><path class="cls-2" d="M22.09.75A11.44,11.44,0,0,0,10.65,12.19v6.19a11.44,11.44,0,0,0,22.88,0V12.19A11.44,11.44,0,0,0,22.09.75Z"/><path class="cls-2" d="M10.65,14s6-1.16,8.19-5.56c2.67,4.09,7.85,7.34,14.69,7.34"/><path class="cls-2" d="M31.25,34.63l-4,4.16-5.18-4.56,4.59-1.9L38.35,38.2a10.3,10.3,0,0,1,5.08,8.88V63.46H.75V47.08A10.3,10.3,0,0,1,5.83,38.2L17.5,32.33l4.59,1.9-5.18,4.56-4-4.16"/><polyline class="cls-2" points="25.2 36.97 24.26 39.22 22.09 39.22 19.93 39.22 18.98 36.97"/><line class="cls-2" x1="19.93" y1="39.22" x2="18.61" y2="63.46"/><line class="cls-2" x1="24.26" y1="39.22" x2="25.57" y2="63.46"/><line class="cls-2" x1="17.5" y1="29.23" x2="17.5" y2="32.33"/><line class="cls-2" x1="26.68" y1="32.33" x2="26.68" y2="29.32"/><path class="cls-3" d="M65.49.75h-21A5.18,5.18,0,0,0,39.3,5.93v8.71A5.18,5.18,0,0,0,43,19.59l-3,6.09,9.38-5.86h16.1a5.18,5.18,0,0,0,5.18-5.18V5.93A5.18,5.18,0,0,0,65.49.75Z"/><line class="cls-3" x1="48.72" y1="6.44" x2="61.25" y2="6.44"/><line class="cls-3" x1="48.72" y1="12.49" x2="61.25" y2="12.49"/></g></g></svg>