<svg xmlns="http://www.w3.org/2000/svg" viewBox="0 0 66.35 66.59"><defs><style>.cls-1,.cls-2,.cls-3{fill:none;stroke-linecap:round;}.cls-1{stroke:#efc5d2;stroke-miterlimit:10;stroke-width:3px;}.cls-2{stroke:#b5143f;}.cls-2,.cls-3{stroke-linejoin:round;stroke-width:1.35px;}.cls-3{stroke:#00f9ff;}</style></defs><g id="Capa_2" data-name="Capa 2"><g id="Capa_1-2" data-name="Capa 1"><line class="cls-1" x1="5.28" y1="4.31" x2="4.6" y2="31.34"/><line class="cls-1" x1="43.8" y1="45" x2="43.8" y2="64.68"/><path class="cls-1" d="M2.93,43.58s-1.68,10,2.28,17.84"/><polyline class="cls-1" points="62.28 4.99 35.25 4.31 35.25 20.09"/><polyline class="cls-2" points="32.45 45.92 32.45 63.29 9.49 63.29"/><path class="cls-2" d="M20.68,42.39V36.48h0a6.44,6.44,0,0,1,6,4.15l.72,1.88a5.32,5.32,0,0,0,4.95,3.41h.08"/><path class="cls-2" d="M6.43,47.61H3.29A2.61,2.61,0,0,1,.68,45h0a2.61,2.61,0,0,1,2.61-2.61H22.22"/><path class="cls-2" d="M6.43,52.84H3.29A2.61,2.61,0,0,1,.68,50.23h0a2.61,2.61,0,0,1,2.61-2.62H6.43"/><path class="cls-2" d="M7,58.06H3.87a2.61,2.61,0,0,1-2.62-2.61h0a2.61,2.61,0,0,1,2.62-2.61H6.69"/><path class="cls-2" d="M11.41,63.29H5.21a2.61,2.61,0,0,1-2.62-2.61h0a2.62,2.62,0,0,1,2.62-2.62H7"/><rect class="cls-2" x="26.56" y="51.8" width="17.37" height="5.6" transform="translate(-19.35 89.85) rotate(-90)"/><line class="cls-2" x1="38.05" y1="63.29" x2="42.15" y2="63.29"/><line class="cls-2" x1="38.05" y1="45.92" x2="42.15" y2="45.92"/><polyline class="cls-2" points="20.44 32.45 3.06 32.45 3.06 9.49"/><path class="cls-2" d="M24,20.68h5.91a6.44,6.44,0,0,1-4.15,6l-1.89.72a5.31,5.31,0,0,0-3.4,4.95v.08"/><path class="cls-2" d="M18.74,6.43V3.29A2.61,2.61,0,0,1,21.35.68h0A2.61,2.61,0,0,1,24,3.29V22.22"/><path class="cls-2" d="M13.51,6.43V3.29A2.61,2.61,0,0,1,16.13.68h0a2.61,2.61,0,0,1,2.61,2.61V6.43"/><path class="cls-2" d="M8.29,7V3.87A2.61,2.61,0,0,1,10.9,1.25h0a2.61,2.61,0,0,1,2.61,2.62V6.69"/><path class="cls-2" d="M3.06,11.41V5.21A2.62,2.62,0,0,1,5.68,2.59h0A2.61,2.61,0,0,1,8.29,5.21V7"/><line class="cls-2" x1="3.06" y1="38.05" x2="3.06" y2="42.39"/><line class="cls-2" x1="20.44" y1="38.05" x2="20.44" y2="42.39"/><polyline class="cls-2" points="33.91 20.68 33.91 3.3 56.86 3.3"/><path class="cls-2" d="M45.68,24.2v5.91h0a6.46,6.46,0,0,1-6-4.14l-.72-1.89a5.29,5.29,0,0,0-5-3.4h-.07"/><path class="cls-2" d="M59.93,19h3.13a2.61,2.61,0,0,1,2.62,2.61h0a2.61,2.61,0,0,1-2.62,2.61H44.14"/><path class="cls-2" d="M59.93,13.75h3.13a2.61,2.61,0,0,1,2.62,2.61h0A2.62,2.62,0,0,1,63.06,19H59.93"/><path class="cls-2" d="M59.35,8.53h3.14a2.61,2.61,0,0,1,2.61,2.61h0a2.61,2.61,0,0,1-2.61,2.61H59.67"/><path class="cls-2" d="M54.94,3.3h6.21a2.61,2.61,0,0,1,2.61,2.61h0a2.61,2.61,0,0,1-2.61,2.62h-1.8"/><line class="cls-2" x1="28.3" y1="3.3" x2="23.97" y2="3.3"/><line class="cls-2" x1="28.3" y1="20.68" x2="23.97" y2="20.68"/><polyline class="cls-2" points="45.68 34.14 63.05 34.14 63.05 57.1"/><path class="cls-2" d="M42.15,45.92H36.24a6.45,6.45,0,0,1,4.15-6l1.88-.72a5.31,5.31,0,0,0,3.41-5v-.08"/><path class="cls-2" d="M47.38,60.17V63.3a2.61,2.61,0,0,1-2.62,2.61h0a2.61,2.61,0,0,1-2.61-2.61V44.37"/><path class="cls-2" d="M52.6,60.17V63.3A2.61,2.61,0,0,1,50,65.91h0a2.61,2.61,0,0,1-2.61-2.61V60.17"/><path class="cls-2" d="M57.83,59.59v3.13a2.61,2.61,0,0,1-2.61,2.62h0a2.62,2.62,0,0,1-2.62-2.62V59.9"/><path class="cls-2" d="M63.05,55.18v6.2A2.61,2.61,0,0,1,60.44,64h0a2.61,2.61,0,0,1-2.61-2.62V59.59"/><line class="cls-2" x1="63.05" y1="28.54" x2="63.05" y2="24.2"/><line class="cls-2" x1="45.68" y1="28.54" x2="45.68" y2="24.2"/><rect class="cls-3" x="3.06" y="32.45" width="17.37" height="5.6"/><rect class="cls-3" x="22.42" y="9.19" width="17.37" height="5.6" transform="translate(43.09 -19.12) rotate(90)"/><rect class="cls-3" x="45.68" y="28.54" width="17.37" height="5.6" transform="translate(108.73 62.68) rotate(180)"/></g></g></svg>