<svg xmlns="http://www.w3.org/2000/svg" viewBox="0 0 44.55 60.47"><defs><style>.cls-1,.cls-2,.cls-3{fill:none;stroke-linecap:round;stroke-linejoin:round;}.cls-1{stroke:#efc5d2;stroke-width:2.65px;}.cls-2{stroke:#00f9ff;}.cls-2,.cls-3{stroke-width:1.26px;}.cls-3{stroke:#b5143f;}</style></defs><g id="Capa_2" data-name="Capa 2"><g id="Capa_1-2" data-name="Capa 1"><path class="cls-1" d="M19.76,36.26s.28,3.4-.55,4.36S7.35,43,4.87,44C3,44.75,2.3,45.82,2.3,48.11s-.37,11-.37,11"/><path class="cls-2" d="M11.56,15.76H33A4.2,4.2,0,0,1,37.2,20v0a0,0,0,0,1,0,0H7.35a0,0,0,0,1,0,0v0A4.2,4.2,0,0,1,11.56,15.76Z"/><path class="cls-2" d="M35.39,15.76a13.11,13.11,0,0,0-11-13"/><path class="cls-2" d="M20.21,2.8a13.14,13.14,0,0,0-11,13"/><path class="cls-2" d="M20.2,15.76V2.7A2.08,2.08,0,0,1,22.28.63h0A2.07,2.07,0,0,1,24.35,2.7V15.76"/><line class="cls-2" x1="12.28" y1="7.27" x2="17.57" y2="13.45"/><line class="cls-2" x1="32.28" y1="7.27" x2="26.98" y2="13.45"/><path class="cls-3" d="M18.24,35.36,17.87,39a1.83,1.83,0,0,1-1.66,1.65l-8.49,1A8,8,0,0,0,.63,49.52v9.19"/><path class="cls-3" d="M26.32,35.36,26.68,39a1.84,1.84,0,0,0,1.67,1.65l8.48,1a8,8,0,0,1,7.09,7.94v9.19"/><path class="cls-3" d="M28.35,40.62c0,2.24-2.74,4.72-6.07,4.72s-6-2.48-6-4.72"/><path class="cls-3" d="M36.83,41.58S36,53.34,41.24,58.71"/><path class="cls-3" d="M7.72,41.58s.81,11.76-4.41,17.13"/><line class="cls-3" x1="32.47" y1="41.09" x2="32.47" y2="58.71"/><line class="cls-3" x1="12.09" y1="41.09" x2="12.09" y2="58.71"/><path class="cls-3" d="M27.81,42.42a45.19,45.19,0,0,1-5.49,8.75,44.93,44.93,0,0,1-5.5-8.75"/><line class="cls-3" x1="22.32" y1="51.17" x2="22.32" y2="58.71"/><path class="cls-3" d="M10.6,20v4A11.67,11.67,0,0,0,22.28,35.64h0A11.67,11.67,0,0,0,34,24V20Z"/><path class="cls-3" d="M30.33,20s.26,3.9,3.23,6"/><path class="cls-3" d="M14.22,20s-.25,3.9-3.23,6"/></g></g></svg>