<svg xmlns="http://www.w3.org/2000/svg" viewBox="0 0 66.58 92.45"><defs><style>.cls-1,.cls-2,.cls-3{fill:none;stroke-linecap:round;stroke-linejoin:round;stroke-width:1.58px;}.cls-1{stroke:#efc5d2;}.cls-2{stroke:#b5143f;}.cls-3{stroke:#00f9ff;}</style></defs><g id="Capa_2" data-name="Capa 2"><g id="Capa_1-2" data-name="Capa 1"><path class="cls-1" d="M11.81,46.24s2.15.4-8.07,6.12C.82,54,2.41,64.78,2.41,64.78"/><path class="cls-1" d="M51.69,18.49s2.15.4-8.07,6.12C40.71,26.24,42.29,37,42.29,37"/><path class="cls-1" d="M51.69,72.43s2.15.4-8.07,6.11C40.71,80.17,42.29,91,42.29,91"/><path class="cls-2" d="M53.23.79A6.73,6.73,0,0,0,46.5,7.53v3.64a6.74,6.74,0,0,0,13.47,0V7.53A6.74,6.74,0,0,0,53.23.79Z"/><path class="cls-2" d="M60,10.82a9.1,9.1,0,0,1-2.27-4.1H48.76a9.13,9.13,0,0,1-2.26,4.1"/><path class="cls-2" d="M55.93,19.38l6.87,3.45a6.07,6.07,0,0,1,3,5.23V37.7H40.67V28.06a6.07,6.07,0,0,1,3-5.23l6.87-3.45"/><line class="cls-2" x1="50.53" y1="19.38" x2="50.53" y2="17.55"/><line class="cls-2" x1="55.93" y1="19.38" x2="55.93" y2="17.61"/><path class="cls-2" d="M59.08,21a7.6,7.6,0,0,1-11.74,0"/><path class="cls-2" d="M53.23,54.75a6.73,6.73,0,0,0-6.73,6.74v3.64a6.74,6.74,0,0,0,13.47,0V61.49A6.74,6.74,0,0,0,53.23,54.75Z"/><path class="cls-2" d="M60,64.78a9.1,9.1,0,0,1-2.27-4.1H48.76a9.13,9.13,0,0,1-2.26,4.1"/><path class="cls-2" d="M55.93,73.34l6.87,3.45a6.07,6.07,0,0,1,3,5.23v9.64H40.67V82a6.07,6.07,0,0,1,3-5.23l6.87-3.45"/><line class="cls-2" x1="50.53" y1="73.34" x2="50.53" y2="71.52"/><line class="cls-2" x1="55.93" y1="73.34" x2="55.93" y2="71.57"/><path class="cls-2" d="M59.08,74.94a7.6,7.6,0,0,1-11.74,0"/><path class="cls-2" d="M13.35,28.54a6.73,6.73,0,0,0-6.73,6.73v3.65a6.74,6.74,0,0,0,13.47,0V35.27A6.73,6.73,0,0,0,13.35,28.54Z"/><path class="cls-2" d="M20.09,38.57a9.1,9.1,0,0,1-2.27-4.11H8.88a9.14,9.14,0,0,1-2.26,4.11"/><path class="cls-2" d="M16.05,47.13l6.87,3.45a6.05,6.05,0,0,1,3,5.23v9.64H.79V55.81a6.07,6.07,0,0,1,3-5.23l6.87-3.45"/><line class="cls-2" x1="10.65" y1="47.13" x2="10.65" y2="45.3"/><line class="cls-2" x1="16.05" y1="47.13" x2="16.05" y2="45.36"/><path class="cls-2" d="M19.21,48.73a8,8,0,0,1-5.88,2.76,7.94,7.94,0,0,1-5.87-2.76"/><line class="cls-3" x1="37.08" y1="37.7" x2="24.03" y2="47.13"/><line class="cls-3" x1="53.23" y1="51.49" x2="53.23" y2="40.3"/><line class="cls-3" x1="28.99" y1="65.96" x2="40.67" y2="74.4"/></g></g></svg>