<svg xmlns="http://www.w3.org/2000/svg" viewBox="0 0 41.46 66.15"><defs><style>.cls-1{fill:none;stroke:#efc5d2;stroke-linecap:round;stroke-linejoin:round;stroke-width:3px;}.cls-2{fill:#b5143f;}.cls-3{fill:#00f9ff;}</style></defs><g id="Capa_2" data-name="Capa 2"><g id="Capa_1-2" data-name="Capa 1"><path class="cls-1" d="M11.19,1.87a54.78,54.78,0,0,1-5,28.91C0,43.6,7,64.15,7,64.15"/><path class="cls-2" d="M8.26,17.33A1,1,0,0,0,7.08,18a52.3,52.3,0,0,1-3.89,10.4c-.29.63-.55,1.18-.77,1.68A31.26,31.26,0,0,0,0,43.6C.18,50,1.89,57.38,5.08,65.53a1,1,0,0,0,.9.62.84.84,0,0,0,.35-.07,1,1,0,0,0,.55-1.25C1.38,50.77.48,39.36,4.19,30.9c.21-.48.46-1,.76-1.63A55.07,55.07,0,0,0,9,18.51,1,1,0,0,0,8.26,17.33ZM10.19.87a1,1,0,0,0-1.92.2A50.16,50.16,0,0,1,8,13.69a1,1,0,0,0,.82,1.11h.14a1,1,0,0,0,1-.82A51.79,51.79,0,0,0,10.19.87ZM25.86,42.11a1,1,0,0,0-1.34.29,14.38,14.38,0,0,1-1.94,2.39,14.08,14.08,0,0,1-1.87,1.58,11.47,11.47,0,0,1-2.11-1.76A11.05,11.05,0,0,1,17,42.44a1,1,0,1,0-1.68,1A13.74,13.74,0,0,0,17.19,46a13.08,13.08,0,0,0,2.58,2.11V65.18a1,1,0,1,0,1.93,0V48A16.25,16.25,0,0,0,24,46.16a16.93,16.93,0,0,0,2.2-2.71,1,1,0,0,0-.29-1.34Zm13.46,10.7a1,1,0,0,0-1.16.73,82.49,82.49,0,0,1-3.57,11.29,1,1,0,0,0,.55,1.25.84.84,0,0,0,.35.07,1,1,0,0,0,.9-.62A84.88,84.88,0,0,0,40,54a1,1,0,0,0-.72-1.17Zm-.27-22.69c-.22-.5-.48-1.05-.78-1.68a51.52,51.52,0,0,1-4.4-12.73A50,50,0,0,1,33.2,1.07,1,1,0,0,0,32.33,0a1,1,0,0,0-1.06.86A51.85,51.85,0,0,0,32,16.08a52.66,52.66,0,0,0,4.55,13.19c.29.62.55,1.15.76,1.63C39.49,36,40.07,42.09,39,49.15a1,1,0,0,0,1.92.29c1.13-7.43.5-13.93-1.87-19.32Z"/><path class="cls-3" d="M29.26,26.28a4.19,4.19,0,0,0,.17-1.17,4,4,0,0,0-5.16-3.82A4,4,0,0,0,17.39,21a3.21,3.21,0,0,0-.19.31A3.82,3.82,0,0,0,16,21.11a4,4,0,0,0-2.82,1.18,4,4,0,0,0-1,4,4,4,0,0,0-.31,6.88,3.14,3.14,0,0,0,.31.18A4,4,0,0,0,16,38.51a4.14,4.14,0,0,0,1.17-.17c.06.1.12.21.19.31a4,4,0,0,0,3.34,1.8,4,4,0,0,0,3.54-2.11l.35.09a4.45,4.45,0,0,0,.81.08,4,4,0,0,0,4-4,4.19,4.19,0,0,0-.17-1.17l.31-.18a4,4,0,0,0-.31-6.88Zm-4.85-1.52a4,4,0,0,0,.33-1.58h0a2.06,2.06,0,0,1,2.75,1.94,2.26,2.26,0,0,1-.11.69h0a4,4,0,0,0-1.59.33l-.85.37a5.23,5.23,0,0,0-.89-.87ZM19,22a2,2,0,0,1,1.72-.93,2.12,2.12,0,0,1,2.08,2.07,2,2,0,0,1-.18.82l-.32.74a5.06,5.06,0,0,0-1.51-.22,5.45,5.45,0,0,0-1.63.25L18.84,24A2,2,0,0,1,19,22Zm-4.43,1.62a2,2,0,0,1,2.15-.49,4,4,0,0,0,.33,1.59l.4.94a6,6,0,0,0-.83.84l-.94-.41a4,4,0,0,0-1.59-.33h0A2.05,2.05,0,0,1,14.58,23.66ZM13,31.54A2,2,0,0,1,12,29.81a2.13,2.13,0,0,1,2.07-2.07,2.15,2.15,0,0,1,.82.17l.81.36a5.17,5.17,0,0,0-.23,1.54,5.28,5.28,0,0,0,.23,1.55l-.81.35A2,2,0,0,1,13,31.54Zm4.1,3.32a4,4,0,0,0-.33,1.59,2.05,2.05,0,0,1-2.63-2.63h0a4,4,0,0,0,1.59-.33l.94-.41a6,6,0,0,0,.83.84Zm3.67,3.65A2,2,0,0,1,19,37.58a2,2,0,0,1-.17-1.95l.33-.78a5.15,5.15,0,0,0,1.63.26,5.07,5.07,0,0,0,.55,0l.35.9a4.09,4.09,0,0,0,.9,1.36A2.06,2.06,0,0,1,20.73,38.51Zm.07-5.34a3.36,3.36,0,1,1,3.36-3.36A3.37,3.37,0,0,1,20.8,33.17ZM26.89,36a2.08,2.08,0,0,1-3.39-.7l-.29-.74a5.47,5.47,0,0,0,1.72-1.41l.85.37a4,4,0,0,0,1.59.33h0a2.26,2.26,0,0,1,.11.69A2.07,2.07,0,0,1,26.89,36Zm1.61-4.43a2,2,0,0,1-1.95.17l-.7-.3a5.3,5.3,0,0,0,.25-1.6,5.24,5.24,0,0,0-.25-1.59l.7-.31a2.15,2.15,0,0,1,.82-.17,2.13,2.13,0,0,1,2.07,2.07A2,2,0,0,1,28.5,31.54Z"/><path class="cls-3" d="M20.73,28.84a1,1,0,1,0,1,1A1,1,0,0,0,20.73,28.84Z"/></g></g></svg>