<svg xmlns="http://www.w3.org/2000/svg" viewBox="0 0 59.26 57.22"><defs><style>.cls-1,.cls-2,.cls-3{fill:none;stroke-linecap:round;stroke-linejoin:round;}.cls-1{stroke:#efc5d2;stroke-width:3px;}.cls-2{stroke:#b5143f;}.cls-2,.cls-3{stroke-width:1.36px;}.cls-3{stroke:#00f9ff;}</style></defs><g id="Capa_2" data-name="Capa 2"><g id="Capa_1-2" data-name="Capa 1"><polyline class="cls-1" points="48.91 2.73 9.88 2.73 9.88 54.49"/><path class="cls-2" d="M50.38,52.44V4.78a4.11,4.11,0,0,0-4.1-4.1H4.78a4.11,4.11,0,0,1,4.1,4.1V52.44a4.09,4.09,0,0,0,4.1,4.1h41.5A4.09,4.09,0,0,1,50.38,52.44Z"/><path class="cls-2" d="M8.88,4.78a4.1,4.1,0,0,0-8.2,0Z"/><path class="cls-2" d="M17.07,52.44a4.09,4.09,0,0,1-4.1,4.1H54.48a4.1,4.1,0,0,0,4.1-4.1Z"/><line class="cls-3" x1="12.97" y1="8.16" x2="47.05" y2="8.16"/><line class="cls-3" x1="12.97" y1="14.29" x2="47.05" y2="14.29"/><line class="cls-3" x1="12.97" y1="20.42" x2="47.05" y2="20.42"/><line class="cls-3" x1="12.97" y1="26.55" x2="47.05" y2="26.55"/><line class="cls-3" x1="12.97" y1="32.68" x2="47.05" y2="32.68"/><line class="cls-3" x1="12.97" y1="38.81" x2="47.05" y2="38.81"/><line class="cls-3" x1="12.97" y1="44.94" x2="47.05" y2="44.94"/></g></g></svg>