<svg xmlns="http://www.w3.org/2000/svg" viewBox="0 0 83.78 71.04"><defs><style>.cls-1,.cls-2,.cls-3{fill:none;stroke-linecap:round;stroke-linejoin:round;}.cls-1{stroke:#efc5d2;stroke-width:2.78px;}.cls-2{stroke:#00f9ff;}.cls-2,.cls-3{stroke-width:1.85px;}.cls-3{stroke:#b5143f;}</style></defs><g id="Capa_2" data-name="Capa 2"><g id="Capa_1-2" data-name="Capa 1"><line class="cls-1" x1="43.74" y1="2.78" x2="6.62" y2="18.32"/><polyline class="cls-1" points="76.69 61.59 7.91 61.59 7.91 66.53 2.62 66.53 2.62 69.19"/><rect class="cls-2" x="36.8" y="18.92" width="9.88" height="35.89"/><path class="cls-2" d="M47,54.81H36.5a3.09,3.09,0,0,0-3.1,3.09V60H50.08V57.9A3.09,3.09,0,0,0,47,54.81Z"/><rect class="cls-2" x="14.03" y="18.92" width="9.88" height="35.89"/><path class="cls-2" d="M24.21,54.81H13.74a3.09,3.09,0,0,0-3.1,3.09V60H27.31V57.9A3.09,3.09,0,0,0,24.21,54.81Z"/><rect class="cls-2" x="59.87" y="18.92" width="9.88" height="35.89" transform="translate(129.61 73.72) rotate(180)"/><path class="cls-2" d="M59.57,54.81H70.05a3.09,3.09,0,0,1,3.09,3.09V60H56.47V57.9A3.09,3.09,0,0,1,59.57,54.81Z"/><polygon class="cls-3" points="41.89 0.93 2.94 18.92 80.84 18.92 41.89 0.93"/><rect class="cls-3" x="6.14" y="59.97" width="71.5" height="5.07"/><rect class="cls-3" x="0.93" y="65.05" width="81.93" height="5.07"/><path class="cls-3" d="M41.89,5.64a8.87,8.87,0,0,1-4.22,1.44s.22,5.59,4.22,8.39c4-2.8,4.22-8.39,4.22-8.39A8.87,8.87,0,0,1,41.89,5.64Z"/></g></g></svg>