<svg xmlns="http://www.w3.org/2000/svg" viewBox="0 0 61.16 68.6"><defs><style>.cls-1,.cls-2,.cls-3{fill:none;stroke-linecap:round;stroke-linejoin:round;}.cls-1{stroke:#efc5d2;stroke-width:3px;}.cls-2{stroke:#00f9ff;}.cls-2,.cls-3{stroke-width:1.37px;}.cls-3{stroke:#b5143f;}</style></defs><g id="Capa_2" data-name="Capa 2"><g id="Capa_1-2" data-name="Capa 1"><path class="cls-1" d="M21,7.79h-3.2s.73,9.9,0,11.07S11.55,23.67,11.11,27s.5,8.47,6,10.49"/><line class="cls-2" x1="48.5" y1="15.42" x2="48.5" y2="64.55"/><line class="cls-2" x1="48.5" y1="0.68" x2="48.5" y2="7.79"/><line class="cls-3" x1="60.47" y1="67.92" x2="0.68" y2="67.92"/><rect class="cls-2" x="41.53" y="64.55" width="13.95" height="3.26"/><path class="cls-2" d="M52.32,11.61A3.82,3.82,0,1,1,48.5,7.79,3.82,3.82,0,0,1,52.32,11.61Z"/><path class="cls-3" d="M21.84,16.72V6.48H16.37V16.72A4.78,4.78,0,0,1,14,20.8a9.86,9.86,0,0,0-4.8,8.85A9.9,9.9,0,0,0,29,29.29a9.88,9.88,0,0,0-4.83-8.5A4.74,4.74,0,0,1,21.84,16.72Z"/><line class="cls-2" x1="44.69" y1="11.61" x2="14.24" y2="11.61"/><path class="cls-3" d="M27.79,24.53H24a2.2,2.2,0,0,0-4.28,0H10.42a9.82,9.82,0,0,0-1.21,5.12A9.9,9.9,0,0,0,29,29.29,9.79,9.79,0,0,0,27.79,24.53Z"/><circle class="cls-3" cx="17.12" cy="29.48" r="1.36"/><path class="cls-3" d="M23.23,34.72A1.69,1.69,0,1,1,21.54,33,1.69,1.69,0,0,1,23.23,34.72Z"/><rect class="cls-3" x="9.63" y="59.16" width="18.95" height="8.65"/><line class="cls-3" x1="19.11" y1="55.28" x2="19.11" y2="62.99"/><path class="cls-2" d="M19.11,43.76s-7.26,9.56,0,11.52C26.36,53.32,19.11,43.76,19.11,43.76Z"/><line class="cls-3" x1="9.63" y1="63.49" x2="28.58" y2="63.49"/></g></g></svg>