<svg xmlns="http://www.w3.org/2000/svg" viewBox="0 0 45.23 63.98"><defs><style>.cls-1,.cls-2,.cls-3,.cls-4{fill:none;stroke-linecap:round;stroke-linejoin:round;}.cls-1,.cls-2{stroke:#efc5d2;}.cls-1{stroke-width:3px;}.cls-2{stroke-width:2.75px;}.cls-3{stroke:#b5143f;}.cls-3,.cls-4{stroke-width:1.19px;}.cls-4{stroke:#00f9ff;}</style></defs><g id="Capa_2" data-name="Capa 2"><g id="Capa_1-2" data-name="Capa 1"><line class="cls-1" x1="35.09" y1="2.59" x2="20.91" y2="16.77"/><path class="cls-1" d="M22.61,43.76c-.31,2.23,0,12.61,0,12.61"/><path class="cls-1" d="M41.16,59.23s-29.35-1.06-30.52,0a16.75,16.75,0,0,0-2.17,2.55"/><line class="cls-2" x1="6.84" y1="45.64" x2="20.91" y2="45.64"/><rect class="cls-3" x="24.54" y="1.21" width="11.04" height="22.41" transform="translate(17.59 -17.62) rotate(45)"/><rect class="cls-3" x="22.22" y="6.83" width="11.04" height="15.84" transform="translate(18.55 -15.3) rotate(45)"/><rect class="cls-4" x="17.3" y="19.84" width="7.23" height="3.48" transform="translate(21.38 -8.47) rotate(45)"/><path class="cls-3" d="M21.25,43.91V58H36L24.93,42.72A2,2,0,0,0,21.25,43.91Z"/><path class="cls-3" d="M39.22,58h-27a5.42,5.42,0,0,0-5.41,5.42H44.63A5.42,5.42,0,0,0,39.22,58Z"/><path class="cls-3" d="M26.46,44.82l3.71,5.11A22.21,22.21,0,0,0,36,14.32l-4.39,4.39a16,16,0,0,1-5.13,26.11Z"/><rect class="cls-4" x="0.59" y="41.88" width="18" height="2.51"/><path class="cls-3" d="M5.83,44.39h0a5.54,5.54,0,0,0,5.55,5.54h9.87V44.39Z"/></g></g></svg>