<svg xmlns="http://www.w3.org/2000/svg" viewBox="0 0 100.47 80.57"><defs><style>.cls-1,.cls-2,.cls-3,.cls-4{fill:none;stroke-linecap:round;stroke-linejoin:round;}.cls-1,.cls-2{stroke:#efc5d2;}.cls-1{stroke-width:2.97px;}.cls-2{stroke-width:2.96px;}.cls-3{stroke:#b5143f;}.cls-3,.cls-4{stroke-width:2px;}.cls-4{stroke:#00f9ff;}</style></defs><g id="Capa_2" data-name="Capa 2"><g id="Capa_1-2" data-name="Capa 1"><polyline class="cls-1" points="91.01 24.49 61.79 24.49 61.79 31.76"/><polyline class="cls-1" points="38.34 24.49 10.2 24.49 3.51 33.69"/><line class="cls-1" x1="7.28" y1="35.22" x2="7.28" y2="78.83"/><line class="cls-2" x1="49.97" y1="3.82" x2="43.08" y2="12.7"/><rect class="cls-3" x="37.21" y="31.76" width="24.58" height="47.81"/><rect class="cls-3" x="39.25" y="13.97" width="20.5" height="17.79"/><polygon class="cls-3" points="49.5 1 39.25 13.97 59.75 13.97 49.5 1"/><rect class="cls-3" x="5.52" y="34.66" width="31.76" height="44.92"/><path class="cls-4" d="M54.8,22.87a5.3,5.3,0,1,1-5.3-5.3A5.29,5.29,0,0,1,54.8,22.87Z"/><path class="cls-4" d="M49.25,55.67H50.4a5.45,5.45,0,0,1,5.45,5.45V79.57a0,0,0,0,1,0,0H43.8a0,0,0,0,1,0,0V61.12A5.45,5.45,0,0,1,49.25,55.67Z"/><path class="cls-3" d="M14.93,40.68a3.71,3.71,0,0,0-3.71,3.71v5.9h7.43v-5.9A3.71,3.71,0,0,0,14.93,40.68Z"/><path class="cls-3" d="M27.86,40.68a3.71,3.71,0,0,0-3.71,3.71v5.9h7.43v-5.9A3.72,3.72,0,0,0,27.86,40.68Z"/><path class="cls-3" d="M49.5,40.43a3.71,3.71,0,0,0-3.71,3.71V50h7.42v-5.9A3.71,3.71,0,0,0,49.5,40.43Z"/><path class="cls-3" d="M14.93,55.92a3.71,3.71,0,0,0-3.71,3.71v5.9h7.43v-5.9A3.71,3.71,0,0,0,14.93,55.92Z"/><path class="cls-3" d="M27.86,55.92a3.71,3.71,0,0,0-3.71,3.71v5.9h7.43v-5.9A3.72,3.72,0,0,0,27.86,55.92Z"/><rect class="cls-3" x="61.72" y="34.66" width="31.76" height="44.92" transform="translate(155.21 114.23) rotate(180)"/><path class="cls-3" d="M84.07,40.68a3.71,3.71,0,0,1,3.71,3.71v5.9H80.36v-5.9A3.71,3.71,0,0,1,84.07,40.68Z"/><path class="cls-3" d="M71.14,40.68a3.71,3.71,0,0,1,3.71,3.71v5.9H67.43v-5.9A3.71,3.71,0,0,1,71.14,40.68Z"/><path class="cls-3" d="M84.07,55.92a3.71,3.71,0,0,1,3.71,3.71v5.9H80.36v-5.9A3.71,3.71,0,0,1,84.07,55.92Z"/><path class="cls-3" d="M71.14,55.92a3.71,3.71,0,0,1,3.71,3.71v5.9H67.43v-5.9A3.71,3.71,0,0,1,71.14,55.92Z"/><polyline class="cls-3" points="39.26 22.87 9.53 22.87 1 34.66 5.52 34.66 37.21 34.66 37.28 34.66"/><polyline class="cls-3" points="61.73 34.66 61.79 34.66 93.48 34.66 99.47 34.66 90.94 22.87 59.75 22.87"/><polyline class="cls-4" points="47.88 24.49 49.5 22.87 49.5 20.7"/></g></g></svg>