<svg xmlns="http://www.w3.org/2000/svg" viewBox="0 0 65.2 70.48"><defs><style>.cls-1,.cls-2,.cls-3{fill:none;stroke-linecap:round;stroke-linejoin:round;}.cls-1{stroke:#efc5d2;stroke-width:2.65px;}.cls-2{stroke:#b5143f;stroke-width:1.43px;}.cls-3{stroke:#00f9ff;stroke-width:1.53px;}</style></defs><g id="Capa_2" data-name="Capa 2"><g id="Capa_1-2" data-name="Capa 1"><path class="cls-1" d="M10,2.8S3.54-.12,2.87,6.32V46.45"/><path class="cls-2" d="M11.89,11.83H64.48V57.37H6.3a5.59,5.59,0,1,1,5.59-5.59V6.3A5.59,5.59,0,0,0,.72,6.3V51.78"/><circle class="cls-3" cx="40.87" cy="29.94" r="17.19" transform="translate(-9.01 38.78) rotate(-46.27)"/><circle class="cls-3" cx="40.87" cy="29.94" r="14.41" transform="translate(-5.47 9.47) rotate(-12.4)"/><path class="cls-3" d="M48.66,49.5l10.17,19A2.37,2.37,0,1,0,63,66.22l-10.16-19Z"/><rect class="cls-3" x="46.08" y="44.87" width="7.5" height="3.54" transform="translate(-16.12 29.07) rotate(-28.19)"/></g></g></svg>