<svg xmlns="http://www.w3.org/2000/svg" viewBox="0 0 47.41 53.52"><defs><style>.cls-1{fill:none;stroke:#efc5d2;stroke-linecap:round;stroke-linejoin:round;stroke-width:2.57px;}.cls-2{fill:#b5143f;}.cls-3{fill:#00f9ff;}</style></defs><g id="Capa_2" data-name="Capa 2"><g id="Capa_1-2" data-name="Capa 1"><path class="cls-1" d="M45.11,3.07h-36s-5.4,1-5.61,4.62-.21,34.44-.21,34.44"/><path class="cls-2" d="M46.31,51.33H44.74v-9.9a1.1,1.1,0,0,0-1.1-1.1H6.51A6.52,6.52,0,0,0,0,46.84V47a6.52,6.52,0,0,0,6.51,6.51h39.8a1.1,1.1,0,1,0,0-2.19Zm-11,0H6.51A4.32,4.32,0,0,1,2.2,47v-.17a4.32,4.32,0,0,1,4.31-4.31h36v3.24H11.13a1.29,1.29,0,0,0,0,2.55H42.54v3Z"/><path class="cls-2" d="M1.1,47.94A1.1,1.1,0,0,1,0,46.84V8.54A8.55,8.55,0,0,1,8.54,0H45.11a2.21,2.21,0,0,1,2.2,2.2V40.33a2.21,2.21,0,0,1-2.2,2.2H6.51a1.1,1.1,0,1,1,0-2.2h38.6V2.2H8.54A6.34,6.34,0,0,0,2.2,8.54v38.3A1.1,1.1,0,0,1,1.1,47.94Z"/><path class="cls-2" d="M8.79,42.13c-.6,0-.63-.49-.63-1.1V1.46c0-.61,0-1.1.63-1.1s.64.49.64,1.1V41C9.43,41.64,9.4,42.13,8.79,42.13Z"/><path class="cls-3" d="M38,20H17.62a2.19,2.19,0,0,1-2.19-2.2V10.65a2.19,2.19,0,0,1,2.19-2.2H38a2.19,2.19,0,0,1,2.2,2.2v7.14A2.19,2.19,0,0,1,38,20ZM17.62,10.65v7.14H38V10.65Z"/></g></g></svg>