<svg xmlns="http://www.w3.org/2000/svg" viewBox="0 0 75.78 81.25"><defs><style>.cls-1,.cls-2,.cls-3,.cls-4,.cls-5{fill:none;}.cls-1{stroke:#efc5d2;stroke-miterlimit:10;stroke-width:3px;}.cls-2,.cls-3,.cls-5{stroke:#b5143f;}.cls-2,.cls-3,.cls-4,.cls-5{stroke-linecap:round;stroke-linejoin:round;}.cls-2{stroke-width:1.48px;}.cls-3{stroke-width:1.75px;}.cls-4{stroke:#00f9ff;stroke-width:2px;}.cls-5{stroke-width:1.68px;}</style></defs><g id="Capa_2" data-name="Capa 2"><g id="Capa_1-2" data-name="Capa 1"><polyline class="cls-1" points="69.37 17.95 57.04 17.95 57.04 60.42"/><path class="cls-1" d="M2.75,80.1s-1.12-42.06.89-44c3.06-2.89,8.21-6.71,8.21-8.23,0-3,.46-9.95.46-9.95"/><rect class="cls-2" x="7.79" y="5.88" width="26.55" height="12.07"/><line class="cls-2" x1="12.31" y1="5.88" x2="12.31" y2="17.95"/><line class="cls-2" x1="16.69" y1="5.88" x2="16.69" y2="17.95"/><line class="cls-2" x1="21.06" y1="5.88" x2="21.06" y2="17.95"/><line class="cls-2" x1="25.44" y1="5.88" x2="25.44" y2="17.95"/><line class="cls-2" x1="29.82" y1="5.88" x2="29.82" y2="17.95"/><path class="cls-2" d="M32.1,24.9V18H10v7a6.25,6.25,0,0,1-2,4.8L2.77,34a6.24,6.24,0,0,0-2,4.8V76.75c0,2.08,1.3,3.77,2.9,3.77H38.48c1.61,0,2.91-1.69,2.91-3.77V38.81a6.25,6.25,0,0,0-2-4.8L34.13,29.7A6.21,6.21,0,0,1,32.1,24.9Z"/><rect class="cls-3" x="4.33" y="39.85" width="33.46" height="33.46"/><line class="cls-2" x1="32.1" y1="21.24" x2="10.03" y2="21.24"/><path class="cls-4" d="M24.92,56.86a1.65,1.65,0,0,0,0-.32c0-1.3-1.65-2.36-3.68-2.36s-3.69,1.06-3.69,2.36a1.65,1.65,0,0,0,0,.32c-2.71.65-4.58,2-4.58,3.52,0,2.17,3.68,3.92,8.23,3.92s8.22-1.75,8.22-3.92C29.5,58.84,27.63,57.51,24.92,56.86Z"/><ellipse class="cls-4" cx="21.28" cy="49.83" rx="1.72" ry="2.95"/><ellipse class="cls-4" cx="28.57" cy="53.12" rx="1.72" ry="2.95"/><ellipse class="cls-4" cx="14.31" cy="53.12" rx="1.72" ry="2.95"/><rect class="cls-5" x="55.84" y="16.53" width="14.46" height="44.77"/><rect class="cls-5" x="51.2" y="61.31" width="23.75" height="2.93"/><rect class="cls-5" x="55.84" y="77" width="14.46" height="2.93"/><line class="cls-5" x1="63.07" y1="77" x2="63.07" y2="64.23"/><line class="cls-5" x1="63.07" y1="16.53" x2="63.07" y2="0.84"/><line class="cls-5" x1="66.03" y1="21.34" x2="70.3" y2="21.34"/><line class="cls-5" x1="66.03" y1="26.27" x2="70.3" y2="26.27"/><line class="cls-5" x1="66.03" y1="31.2" x2="70.3" y2="31.2"/><line class="cls-5" x1="66.03" y1="36.13" x2="70.3" y2="36.13"/><line class="cls-5" x1="66.03" y1="41.06" x2="70.3" y2="41.06"/><line class="cls-5" x1="66.03" y1="45.99" x2="70.3" y2="45.99"/><line class="cls-5" x1="66.03" y1="50.92" x2="70.3" y2="50.92"/><line class="cls-5" x1="66.03" y1="55.85" x2="70.3" y2="55.85"/></g></g></svg>