<svg xmlns="http://www.w3.org/2000/svg" viewBox="0 0 75.8 75.8"><defs><style>.cls-1{fill:none;stroke:#efc5d2;stroke-linecap:round;stroke-linejoin:round;stroke-width:2.93px;}.cls-2{fill:#00f9ff;}.cls-3{fill:#b5143f;}</style></defs><g id="Capa_2" data-name="Capa 2"><g id="Capa_1-2" data-name="Capa 1"><path class="cls-1" d="M46.68,22.44s-19.1-5-24.3,9.79,10.14,24.5,15.93,23.44"/><path class="cls-2" d="M75.19,36.86h0l-7.27-4.2-.07,0-6.77-3.9L61,28.43a.45.45,0,0,1,0-.08c0-.09-.08-.17-.11-.26l0-.08L65,12.26a1.3,1.3,0,0,0,0-.62,1.2,1.2,0,0,0-1.47-.85L47.79,15l-.35-.15-.26-.11-.09,0L38.94.6a1.21,1.21,0,0,0-2.08,0l-4.2,7.27a.28.28,0,0,1,0,.08l-3.9,6.77-.09,0-.26.11L28,15,12.26,10.79a1.09,1.09,0,0,0-.62,0,1.19,1.19,0,0,0-.85,1.47L15,28l0,.08-.11.27c0,.08-.07.17-.11.26l0,.09L.6,36.86a1.16,1.16,0,0,0-.44.44A1.21,1.21,0,0,0,.6,38.94l7.27,4.19.08,0,6.77,3.91.11.28,0,.08.15.34L10.79,63.53a1.12,1.12,0,0,0,0,.63,1.2,1.2,0,0,0,1.47.85L28,60.79l.35.15.26.1.09,0,8.15,14.11a1.27,1.27,0,0,0,.44.45,1.2,1.2,0,0,0,1.64-.45l4.19-7.27a.23.23,0,0,0,0-.07l3.91-6.77.28-.12.07,0,.26-.11.09,0L63.53,65a1.34,1.34,0,0,0,.63,0A1.2,1.2,0,0,0,65,63.54L60.79,47.79l.29-.71,14.11-8.14a1.21,1.21,0,0,0,.45-.45,1.14,1.14,0,0,0,.11-.9A1.18,1.18,0,0,0,75.19,36.86ZM59.51,45.22a1.22,1.22,0,0,0-.52.62l-.1.26h0c-.06.13-.11.27-.17.42s-.19.44-.3.67a1.25,1.25,0,0,0-.06.81l.06.21h0l3.73,13.94L48,58.36a1.22,1.22,0,0,0-.82.07l-.66.29-.05,0-.63.25a1.22,1.22,0,0,0-.62.52L41.1,66.64l0,.07L37.9,72.2,30.57,59.51A1.2,1.2,0,0,0,30,59l-.24-.09h0l-.44-.18-.68-.3a1.22,1.22,0,0,0-.8-.06L13.65,62.15,17.44,48a1.22,1.22,0,0,0-.08-.82l-.28-.66,0-.06c-.08-.19-.16-.4-.24-.62a1.24,1.24,0,0,0-.53-.62l-.3-.17h0L9.15,41.1l-.07,0L3.59,37.9l5.8-3.35h0l6.9-4a1.2,1.2,0,0,0,.52-.61c.08-.22.17-.44.27-.68l.29-.68a1.23,1.23,0,0,0,.07-.8L13.65,13.65,27.8,17.44a1.23,1.23,0,0,0,.82-.08l.66-.28.68-.27a1.29,1.29,0,0,0,.61-.52l4.12-7.14a.43.43,0,0,0,0-.07L37.9,3.59l3.34,5.79h0l4,6.91a1.22,1.22,0,0,0,.62.52l.68.27.67.29a1.19,1.19,0,0,0,.81.07l.1,0h0l14-3.76L58.36,27.79a1.25,1.25,0,0,0,.07.83c.11.22.2.44.29.65,0,0,0,0,0,.06L59,30a1.2,1.2,0,0,0,.52.61l7.13,4.12.07,0L72.2,37.9Z"/><path class="cls-3" d="M37.9,17.71a20.2,20.2,0,1,0,14.27,5.92A20,20,0,0,0,37.9,17.71ZM50.47,50.47a17.79,17.79,0,1,1,5.2-12.57A17.69,17.69,0,0,1,50.47,50.47Z"/></g></g></svg>