<svg xmlns="http://www.w3.org/2000/svg" viewBox="0 0 61.91 60.51"><defs><style>.cls-1,.cls-2,.cls-3{fill:none;stroke-linecap:round;stroke-linejoin:round;}.cls-1{stroke:#efc5d2;stroke-width:2.65px;}.cls-2{stroke:#b5143f;}.cls-2,.cls-3{stroke-width:1.41px;}.cls-3{stroke:#00f9ff;}</style></defs><g id="Capa_2" data-name="Capa 2"><g id="Capa_1-2" data-name="Capa 1"><polyline class="cls-1" points="39.93 2.6 23.31 15.07 23.31 23.14"/><polyline class="cls-1" points="22.29 25.04 5.67 37.51 5.67 58.36"/><polyline class="cls-2" points="21.96 59.8 39.95 59.8 57.94 59.8 57.94 13.89 39.95 0.71 21.96 13.89 21.96 21.28"/><polyline class="cls-2" points="61.2 16.29 39.95 0.71 18.69 16.29"/><rect class="cls-3" x="45.8" y="14" width="4.58" height="4.58"/><rect class="cls-3" x="29.52" y="14" width="4.58" height="4.58"/><polyline class="cls-3" points="6.06 34.79 6.06 18.57 13.82 18.57 13.82 26.05"/><polygon class="cls-2" points="21.96 23.14 3.97 36.33 3.97 59.8 21.96 59.8 39.95 59.8 39.95 36.33 21.96 23.14"/><polyline class="cls-2" points="43.22 38.72 21.96 23.14 0.71 38.72"/><rect class="cls-2" x="16.27" y="48.42" width="11.38" height="11.38"/><rect class="cls-3" x="13.98" y="45.58" width="15.96" height="2.85"/><rect class="cls-3" x="27.81" y="36.85" width="4.58" height="4.58"/><rect class="cls-3" x="11.53" y="36.85" width="4.58" height="4.58"/></g></g></svg>