<svg xmlns="http://www.w3.org/2000/svg" viewBox="0 0 49.59 70.51"><defs><style>.cls-1,.cls-2,.cls-3,.cls-4{fill:none;stroke-linecap:round;stroke-linejoin:round;}.cls-1{stroke:#efc5d2;stroke-width:3px;}.cls-2{stroke:#b5143f;stroke-width:1.84px;}.cls-3,.cls-4{stroke:#00f9ff;}.cls-3{stroke-width:1.1px;}.cls-4{stroke-width:1.39px;}</style></defs><g id="Capa_2" data-name="Capa 2"><g id="Capa_1-2" data-name="Capa 1"><path class="cls-1" d="M26.65,6.62S11.74,2.84,7.08,17.46,18.5,39,24.44,37.09"/><polyline class="cls-1" points="36.05 45.32 32.9 46.56 44.91 68.48"/><circle class="cls-2" cx="21.64" cy="21.64" r="20.72" transform="translate(-8.96 22.32) rotate(-46.27)"/><circle class="cls-2" cx="21.64" cy="21.64" r="17.37" transform="matrix(0.98, -0.21, 0.21, 0.98, -4.14, 5.15)"/><path class="cls-2" d="M31,45.22,43.28,68.08a2.86,2.86,0,0,0,5-2.7L36.08,42.51Z"/><rect class="cls-2" x="27.92" y="39.64" width="9.04" height="4.27" transform="translate(-15.89 20.28) rotate(-28.19)"/><line class="cls-3" x1="25.57" y1="34.98" x2="20.25" y2="16.2"/><path class="cls-4" d="M18.25,9.15S13.15,21.06,22.19,23C28.84,16.61,18.25,9.15,18.25,9.15Z"/><path class="cls-4" d="M31.89,17.46s-9,3.6-5.26,9.43C33.55,27,31.89,17.46,31.89,17.46Z"/><line class="cls-4" x1="24.44" y1="30.97" x2="28.87" y2="23.03"/><path class="cls-4" d="M11,23.38s9.55-1.66,9.43,5.26C14.6,32.38,11,23.38,11,23.38Z"/><line class="cls-4" x1="24.44" y1="30.97" x2="16.5" y2="26.54"/></g></g></svg>