<svg xmlns="http://www.w3.org/2000/svg" viewBox="0 0 59.1 52.2"><defs><style>.cls-1{fill:none;stroke:#efc5d2;stroke-linecap:round;stroke-linejoin:round;stroke-width:3px;}.cls-2{fill:#b5143f;}.cls-3{fill:#00f9ff;}</style></defs><g id="Capa_2" data-name="Capa 2"><g id="Capa_1-2" data-name="Capa 1"><path class="cls-1" d="M28.63,10.8S21.86-2.14,8,6.18C-3.61,13.12,5.74,34.06,29.55,50.1"/><path class="cls-2" d="M11.93,39.72A71.87,71.87,0,0,0,29.09,52.08a.94.94,0,0,0,.92,0A71.87,71.87,0,0,0,47.17,39.72,45.39,45.39,0,0,0,55.79,28c3.43-6.85,3.32-11.82,3.3-12.28A15.76,15.76,0,0,0,29.55,8.12,15.77,15.77,0,0,0,0,15.74C0,16.2-.12,21.17,3.31,28a45.39,45.39,0,0,0,8.62,11.7ZM2,15.81v-.05a13.79,13.79,0,0,1,26.66-5,1,1,0,0,0,1.84,0,13.79,13.79,0,0,1,26.66,5v.05s.19,4.74-3.1,11.33a43.56,43.56,0,0,1-8.25,11.19A69.91,69.91,0,0,1,29.55,50.1,69.89,69.89,0,0,1,13.4,38.41,43.39,43.39,0,0,1,5.14,27.27,26.41,26.41,0,0,1,2,15.81Z"/><path class="cls-3" d="M49.54,12a9.55,9.55,0,0,0-8.37-2.16,6.65,6.65,0,0,0-5,4.43A10.52,10.52,0,0,0,35.5,17a3.87,3.87,0,0,0-2,1.82,5.4,5.4,0,0,0-.45,3L29.41,20l-.35-1.38a3.88,3.88,0,0,0,.49-1.88,4,4,0,0,0-1.25-2.88,3.91,3.91,0,0,0-2.95-1.06,4,4,0,0,0-3.68,3.75,3.92,3.92,0,0,0,1.57,3.33l.41,2.9a1,1,0,0,0,.27.56l.94.94a8.92,8.92,0,0,0-1.8,1.25A6.45,6.45,0,0,0,18.6,22a10.73,10.73,0,0,0-3.14-.33l-.12-.38A3.1,3.1,0,0,0,9.4,23l1.15,4.58a3,3,0,0,0,2.38,2.2l3.67.61A9.81,9.81,0,0,0,19,38.12a11,11,0,0,0,7.81,2.71,18.61,18.61,0,0,0,4.92-.69c5.05-1.4,8.64-4.54,9.6-8.38.84-3.37,2.8-4,5.06-4.7,2.45-.77,5.22-1.65,5.8-6.25S51.07,13.46,49.54,12ZM39.42,31.28c-.78,3.15-3.86,5.75-8.21,7s-8.71.6-10.81-1.51a6.59,6.59,0,0,1-1.19-1.88,8.29,8.29,0,0,1-.52-5.11,1,1,0,0,0-.77-1.16h0l-4.64-.78a1,1,0,0,1-.79-.73l-1.14-4.58a1.12,1.12,0,0,1,2.15-.63L13.84,23a1,1,0,0,0,1.07.66,8.79,8.79,0,0,1,3.23.24,4.48,4.48,0,0,1,3.53,3.8v3.85a1,1,0,0,0,2,0V27.85a6,6,0,0,1,2.82-2.13c.9.58,3,2,4.62,2.74A1,1,0,0,0,32,26.7h0c-1.72-.86-4.26-2.52-4.74-2.84l-1.67-1.67-.42-3a1,1,0,0,0-.5-.72,2,2,0,1,1,2.58-.57,1,1,0,0,0-.16.81l.56,2.22a1,1,0,0,0,.51.65L34,24.52s1.2.63.49,2.75a1,1,0,0,0,1.87.62c.87-2.61-.19-4.22-1.11-4.9a4.9,4.9,0,0,1,0-3.28,2,2,0,0,1,1.44-1,1,1,0,0,0,.74-1A7.34,7.34,0,0,1,39.3,13c.27,3.38,1.47,4.91,2.5,5.6s1.46,1.28,1.43,1.81-.54,1-1.32,1.41-1.33,1.09-1,2.95a13.26,13.26,0,0,0,.76,2.54,7.82,7.82,0,0,0-2.23,4ZM50.23,20.56c-.41,3.36-2.1,3.89-4.44,4.63a15.54,15.54,0,0,0-2.46.93c-.69-1.86-.54-2.49-.5-2.6a3.84,3.84,0,0,0,2.36-3c.06-.89-.3-2.24-2.3-3.57-1-.68-1.61-2.49-1.68-5l.35-.08a7.67,7.67,0,0,1,6.64,1.67C49.91,15.07,50.62,17.52,50.23,20.56Z"/></g></g></svg>