<svg xmlns="http://www.w3.org/2000/svg" viewBox="0 0 63.75 70.93"><defs><style>.cls-1,.cls-2,.cls-3{fill:none;stroke-linecap:round;stroke-linejoin:round;}.cls-1{stroke:#efc5d2;stroke-width:3px;}.cls-2{stroke:#b5143f;}.cls-2,.cls-3{stroke-width:1.36px;}.cls-3{stroke:#00f9ff;}</style></defs><g id="Capa_2" data-name="Capa 2"><g id="Capa_1-2" data-name="Capa 1"><path class="cls-1" d="M31.59,16.08s-1.88-.4-4.76,2.11c-1.11,1,1,46.58,1,46.58"/><path class="cls-2" d="M31.88.68A5.32,5.32,0,0,0,26.55,6V8.88a5.33,5.33,0,1,0,10.65,0V6A5.32,5.32,0,0,0,31.88.68Z"/><polyline class="cls-2" points="26.55 7.21 33.72 4.53 37.2 6.87"/><line class="cls-2" x1="29.74" y1="15.38" x2="29.74" y2="13.93"/><line class="cls-2" x1="34.01" y1="15.38" x2="34.01" y2="13.98"/><polyline class="cls-2" points="38.6 37.41 37.33 65.95 31.88 65.95 26.42 65.95 25.15 37.41"/><line class="cls-2" x1="31.88" y1="70.25" x2="31.88" y2="43.68"/><polyline class="cls-2" points="36.11 65.95 39.48 68.99 39.48 70.25 31.88 70.25 24.27 70.25 24.27 68.99 27.64 65.95"/><polygon class="cls-2" points="34.01 15.38 38.6 17.64 38.6 28.14 38.6 37.41 31.88 37.41 25.15 37.41 25.15 28.14 25.15 17.64 29.74 15.38 31.88 16.6 34.01 15.38"/><path class="cls-2" d="M27.67,16.39l-4.87,2.4a2.32,2.32,0,0,0-1.3,2.09v5.51h3.65"/><polyline class="cls-2" points="22.46 26.39 22.46 30.31 14.97 30.31 14.97 33.53 25.15 33.53"/><polygon class="cls-3" points="18.4 19.11 6.84 19.11 6.84 15.97 0.68 22.94 6.84 29.91 6.84 26.77 18.4 26.77 18.4 19.11"/><path class="cls-2" d="M13.36,30.31a1.61,1.61,0,1,0,0,3.22H15V30.31Z"/><line class="cls-3" x1="13.36" y1="30.31" x2="13.36" y2="26.77"/><path class="cls-2" d="M36.08,16.39,41,18.79a2.32,2.32,0,0,1,1.3,2.09v5.51H38.6"/><polyline class="cls-2" points="41.29 26.39 41.29 30.31 48.78 30.31 48.78 33.53 38.6 33.53"/><polygon class="cls-3" points="45.35 19.11 56.91 19.11 56.91 15.97 63.07 22.94 56.91 29.91 56.91 26.77 45.35 26.77 45.35 19.11"/><path class="cls-2" d="M50.4,30.31a1.61,1.61,0,0,1,0,3.22H48.79V30.31Z"/><line class="cls-3" x1="50.4" y1="30.31" x2="50.4" y2="26.77"/></g></g></svg>