<svg xmlns="http://www.w3.org/2000/svg" viewBox="0 0 71.98 73.82"><defs><style>.cls-1,.cls-2,.cls-3,.cls-4,.cls-5,.cls-6,.cls-7{fill:none;stroke-linecap:round;stroke-linejoin:round;}.cls-1,.cls-2,.cls-3,.cls-4,.cls-5{stroke:#00f9ff;}.cls-1,.cls-2,.cls-3,.cls-4,.cls-5,.cls-7{stroke-width:1.5px;}.cls-2{stroke-dasharray:3.95 5.53;}.cls-3{stroke-dasharray:3.96 5.54;}.cls-4{stroke-dasharray:3.96 5.54;}.cls-5{stroke-dasharray:3.85 5.4;}.cls-6{stroke:#efc5d2;stroke-width:3px;}.cls-7{stroke:#b5143f;}</style></defs><g id="Capa_2" data-name="Capa 2"><g id="Capa_1-2" data-name="Capa 1"><path class="cls-1" d="M23,64.58c-.56-.28-1.11-.57-1.65-.89"/><path class="cls-2" d="M16.84,60.47a29.48,29.48,0,0,1-4.51-5"/><path class="cls-1" d="M10.82,53.19c-.31-.54-.61-1.09-.89-1.65"/><path class="cls-1" d="M62.06,51.51c-.28.56-.58,1.11-.89,1.65"/><path class="cls-3" d="M57.94,57.66a29.15,29.15,0,0,1-5,4.52"/><path class="cls-1" d="M50.65,63.69c-.53.32-1.08.61-1.64.89"/><path class="cls-1" d="M49,12.47c.56.28,1.11.58,1.65.89"/><path class="cls-4" d="M55.15,16.6a29.2,29.2,0,0,1,4.51,5"/><path class="cls-1" d="M61.17,23.89c.31.54.61,1.09.89,1.65"/><path class="cls-1" d="M10.09,25.19c.29-.55.6-1.1.92-1.64"/><path class="cls-5" d="M14.2,19.21a29.76,29.76,0,0,1,4.86-4.38"/><path class="cls-1" d="M21.32,13.36c.54-.31,1.09-.61,1.65-.89"/><polyline class="cls-6" points="34.34 12.47 30.05 14.38 30.05 18.83"/><polyline class="cls-6" points="6.62 40.23 2.33 42.13 2.33 46.59"/><polyline class="cls-6" points="34.5 40.23 30.22 42.13 30.22 46.59"/><polyline class="cls-6" points="62.43 40.51 58.14 42.41 58.14 46.87"/><polyline class="cls-6" points="35.11 65.89 30.82 67.79 30.82 72.25"/><path class="cls-7" d="M36,.75a3.63,3.63,0,0,0-3.63,3.63V6.43a3.63,3.63,0,1,0,7.26,0v-2A3.63,3.63,0,0,0,36,.75Z"/><path class="cls-7" d="M36,10.06a3.5,3.5,0,0,1-1.65-.4v1.09a1.55,1.55,0,1,0,3.09,0v-1A3.64,3.64,0,0,1,36,10.06Z"/><path class="cls-7" d="M41.87,12.69l-4.51-1.48a1.54,1.54,0,0,1-2.93.06L30.1,12.69a2.13,2.13,0,0,0-1.47,2V19.2H43.34V14.71A2.12,2.12,0,0,0,41.87,12.69Z"/><path class="cls-7" d="M36,29a3.64,3.64,0,0,0-3.63,3.63v2.06a3.63,3.63,0,0,0,7.26,0V32.58A3.64,3.64,0,0,0,36,29Z"/><path class="cls-7" d="M36,38.26a3.5,3.5,0,0,1-1.65-.4V39a1.55,1.55,0,0,0,3.09,0V38A3.64,3.64,0,0,1,36,38.26Z"/><path class="cls-7" d="M41.87,40.89l-4.51-1.48a1.54,1.54,0,0,1-2.93.06L30.1,40.89a2.13,2.13,0,0,0-1.47,2v4.49H43.34V42.92A2.12,2.12,0,0,0,41.87,40.89Z"/><path class="cls-7" d="M8.1,29a3.63,3.63,0,0,0-3.62,3.63v2.06a3.63,3.63,0,0,0,7.25,0V32.58A3.63,3.63,0,0,0,8.1,29Z"/><path class="cls-7" d="M8.1,38.26a3.56,3.56,0,0,1-1.65-.4V39a1.55,1.55,0,0,0,3.1,0V38A3.65,3.65,0,0,1,8.1,38.26Z"/><path class="cls-7" d="M14,40.89,9.47,39.41a1.54,1.54,0,0,1-2.92.06L2.22,40.89a2.12,2.12,0,0,0-1.47,2v4.49H15.46V42.92A2.13,2.13,0,0,0,14,40.89Z"/><path class="cls-7" d="M63.87,29a3.63,3.63,0,0,1,3.63,3.63v2.06a3.63,3.63,0,0,1-7.25,0V32.58A3.63,3.63,0,0,1,63.87,29Z"/><path class="cls-7" d="M63.87,38.26a3.5,3.5,0,0,0,1.65-.4V39a1.55,1.55,0,0,1-3.09,0V38A3.64,3.64,0,0,0,63.87,38.26Z"/><path class="cls-7" d="M58,40.89l4.51-1.48a1.54,1.54,0,0,0,2.93.06l4.33,1.42a2.13,2.13,0,0,1,1.47,2v4.49H56.52V42.92A2.12,2.12,0,0,1,58,40.89Z"/><path class="cls-7" d="M36,54.61a3.64,3.64,0,0,0-3.63,3.63V60.3a3.63,3.63,0,0,0,7.26,0V58.24A3.64,3.64,0,0,0,36,54.61Z"/><path class="cls-7" d="M36,63.93a3.62,3.62,0,0,1-1.65-.4v1.09a1.55,1.55,0,1,0,3.09,0v-1A3.48,3.48,0,0,1,36,63.93Z"/><path class="cls-7" d="M41.87,66.55l-4.51-1.48a1.54,1.54,0,0,1-2.93.06L30.1,66.55a2.15,2.15,0,0,0-1.47,2v4.49H43.34V68.58A2.14,2.14,0,0,0,41.87,66.55Z"/></g></g></svg>