<svg xmlns="http://www.w3.org/2000/svg" viewBox="0 0 36.6 59.84"><defs><style>.cls-1,.cls-2,.cls-3{fill:none;stroke-linecap:round;stroke-linejoin:round;}.cls-1{stroke:#efc5d2;stroke-width:3px;}.cls-2{stroke:#b5143f;}.cls-2,.cls-3{stroke-width:1.27px;}.cls-3{stroke:#00f9ff;}</style></defs><g id="Capa_2" data-name="Capa 2"><g id="Capa_1-2" data-name="Capa 1"><path class="cls-1" d="M25,3.93S15-2.54,8.77,7s3.77,17.63,8,17.55"/><circle class="cls-2" cx="17.59" cy="13.11" r="12.47"/><path class="cls-2" d="M17.84,25.57A12.47,12.47,0,0,0,5.12,12.86"/><path class="cls-2" d="M30.05,13.35A12.38,12.38,0,0,1,21,9.71,12.45,12.45,0,0,1,17.34.64"/><line class="cls-2" x1="8.77" y1="4.29" x2="26.4" y2="21.92"/><line class="cls-2" x1="8.77" y1="21.92" x2="26.4" y2="4.29"/><path class="cls-3" d="M2.39,29.09a59.49,59.49,0,0,1,8.3,30.12"/><path class="cls-3" d="M10.31,29.09a98.93,98.93,0,0,1,4.46,30.12"/><path class="cls-3" d="M34.21,29.09a59.49,59.49,0,0,0-8.3,30.12"/><path class="cls-3" d="M26.29,29.09a98.93,98.93,0,0,0-4.46,30.12"/><line class="cls-3" x1="18.3" y1="29.09" x2="18.3" y2="59.21"/><line class="cls-3" x1="6" y1="36.22" x2="30.6" y2="36.22"/><line class="cls-3" x1="8.92" y1="45.05" x2="27.68" y2="45.05"/><line class="cls-3" x1="10.31" y1="52.67" x2="26.29" y2="52.67"/><path class="cls-2" d="M34.21,25.58H2.39a1.76,1.76,0,0,0,0,3.51H34.21a1.76,1.76,0,0,0,0-3.51Z"/></g></g></svg>