<svg xmlns="http://www.w3.org/2000/svg" viewBox="0 0 68.42 63.81"><defs><style>.cls-1,.cls-2,.cls-3{fill:none;stroke-linecap:round;stroke-linejoin:round;}.cls-1{stroke:#efc5d2;stroke-width:2.57px;}.cls-2{stroke:#b5143f;}.cls-2,.cls-3{stroke-width:2px;}.cls-3{stroke:#00f9ff;}</style></defs><g id="Capa_2" data-name="Capa 2"><g id="Capa_1-2" data-name="Capa 1"><path class="cls-1" d="M58.53,5.36s-6.82.37-8.89,0S33.74,2.75,31.35,3.1C27.56,3.67,13,14,13,14"/><path class="cls-1" d="M38.23,42.89s-11.49-.87-13,0-8.7,4.46-10.07,4.46a37.61,37.61,0,0,0-4,.39v9"/><rect class="cls-2" x="1" y="42.93" width="8.89" height="19.88"/><path class="cls-2" d="M9.89,45.62H10a21.47,21.47,0,0,0,10.29-2.73A17.32,17.32,0,0,1,28.71,41h8.65a1.87,1.87,0,0,1,1.87,1.87h0A1.86,1.86,0,0,1,37.8,44.7L28,47.06a1.4,1.4,0,0,0-1.07,1.41h0a1.4,1.4,0,0,0,1.17,1.34l12,2,12.8-6.15a2.34,2.34,0,0,1,2.62.39h0a2.35,2.35,0,0,1-.22,3.62l-12.37,9a11.85,11.85,0,0,1-8.69,2.11L19.3,58.51H10.19"/><path class="cls-2" d="M6.76,59.55a1.32,1.32,0,1,1-1.31-1.31A1.32,1.32,0,0,1,6.76,59.55Z"/><rect class="cls-2" x="58.53" y="1" width="8.89" height="19.88" transform="translate(125.95 21.88) rotate(180)"/><path class="cls-2" d="M58.53,16.27h-.11A21.46,21.46,0,0,0,48.14,19a17.32,17.32,0,0,1-8.43,1.87H31.06A1.87,1.87,0,0,1,29.19,19h0a1.88,1.88,0,0,1,1.43-1.82l9.83-2.36a1.4,1.4,0,0,0,1.07-1.4h0a1.4,1.4,0,0,0-1.17-1.34l-12-2L15.59,16.24a2.33,2.33,0,0,1-2.61-.4h0a2.35,2.35,0,0,1,.22-3.62l12.37-9a11.81,11.81,0,0,1,8.69-2.12L49.12,3.38h9.11"/><path class="cls-2" d="M61.65,17.62A1.32,1.32,0,1,0,63,16.31,1.32,1.32,0,0,0,61.65,17.62Z"/><line class="cls-3" x1="42.48" y1="25.53" x2="42.48" y2="36.62"/><line class="cls-3" x1="45.74" y1="33.49" x2="42.48" y2="36.62"/><line class="cls-3" x1="39.23" y1="33.49" x2="42.48" y2="36.62"/><line class="cls-3" x1="25.94" y1="36.62" x2="25.94" y2="25.53"/><line class="cls-3" x1="22.68" y1="28.67" x2="25.94" y2="25.53"/><line class="cls-3" x1="29.19" y1="28.67" x2="25.94" y2="25.53"/></g></g></svg>