<svg xmlns="http://www.w3.org/2000/svg" viewBox="0 0 70.88 66.89"><defs><style>.cls-1,.cls-2,.cls-3{fill:none;stroke-linecap:round;stroke-linejoin:round;}.cls-1{stroke:#efc5d2;stroke-width:3px;}.cls-2{stroke:#00f9ff;}.cls-2,.cls-3{stroke-width:1.5px;}.cls-3{stroke:#b5143f;}</style></defs><g id="Capa_2" data-name="Capa 2"><g id="Capa_1-2" data-name="Capa 1"><polyline class="cls-1" points="62.39 20.72 9.02 20.72 2.47 51.13"/><line class="cls-2" x1="31.82" y1="52.13" x2="28.86" y2="66.14"/><line class="cls-2" x1="39.05" y1="52.13" x2="42.02" y2="66.14"/><polyline class="cls-2" points="47.68 66.14 35.44 66.14 23.2 66.14"/><polygon class="cls-3" points="0.75 52.13 35.44 52.13 35.44 19.27 7.48 19.27 0.75 52.13"/><polygon class="cls-3" points="70.13 52.13 35.44 52.13 35.44 19.27 63.39 19.27 70.13 52.13"/><line class="cls-3" x1="21.48" y1="19.27" x2="18.09" y2="52.13"/><line class="cls-3" x1="49.39" y1="19.27" x2="52.78" y2="52.13"/><line class="cls-3" x1="5.36" y1="29.65" x2="65.52" y2="29.65"/><line class="cls-3" x1="3.05" y1="40.89" x2="67.82" y2="40.89"/><path class="cls-3" d="M26,19.27a9.33,9.33,0,0,1,18.35-2.36"/><line class="cls-3" x1="35.28" y1="0.75" x2="35.28" y2="5.88"/><line class="cls-3" x1="26.05" y1="3.31" x2="28.61" y2="7.75"/><line class="cls-3" x1="19.33" y1="10.14" x2="23.77" y2="12.71"/><line class="cls-3" x1="44.52" y1="3.31" x2="41.96" y2="7.75"/><line class="cls-3" x1="51.24" y1="10.14" x2="46.8" y2="12.71"/></g></g></svg>