<svg xmlns="http://www.w3.org/2000/svg" viewBox="0 0 94.97 40.09"><defs><style>.cls-1,.cls-2{fill:none;stroke-linecap:round;stroke-linejoin:round;stroke-width:2px;}.cls-1{stroke:#b5143f;}.cls-2{stroke:#00f9ff;}</style></defs><g id="Capa_2" data-name="Capa 2"><g id="Capa_1-2" data-name="Capa 1"><path class="cls-1" d="M6.21,29.71,2.8,31.41A3.25,3.25,0,0,0,1,34.32a3.16,3.16,0,0,0,.35,1.45,3.24,3.24,0,0,0,4.36,1.46l5.11-2.55"/><path class="cls-1" d="M84.15,34.68l5.1,2.55a3.25,3.25,0,0,0,4.37-1.46,3.23,3.23,0,0,0-1.46-4.36l-3.4-1.7"/><line class="cls-1" x1="50.06" y1="14.25" x2="44.85" y2="14.25"/><line class="cls-1" x1="53.99" y1="7.38" x2="41.32" y2="7.38"/><path class="cls-1" d="M6.45,7.38H4.9a2.55,2.55,0,1,1,0-5.09h9.8"/><path class="cls-1" d="M80.21,2.29H90a2.55,2.55,0,0,1,0,5.09H88.46"/><line class="cls-2" x1="22.1" y1="11.78" x2="15" y2="26.73"/><line class="cls-2" x1="32.43" y1="11.78" x2="25.33" y2="26.73"/><line class="cls-2" x1="69.7" y1="11.78" x2="62.6" y2="26.73"/><line class="cls-2" x1="80.02" y1="11.78" x2="72.92" y2="26.73"/><path class="cls-2" d="M44.73,18.08a21,21,0,0,1-42,0C2.7,6.47,12.11,1,23.72,1S44.73,6.47,44.73,18.08Z"/><path class="cls-2" d="M50.23,18.08a21,21,0,0,0,42,0C92.27,6.47,82.86,1,71.25,1S50.23,6.47,50.23,18.08Z"/></g></g></svg>