<svg xmlns="http://www.w3.org/2000/svg" viewBox="0 0 65.66 65.46"><defs><style>.cls-1,.cls-2,.cls-3{fill:none;stroke-linecap:round;stroke-linejoin:round;}.cls-1{stroke:#efc5d2;stroke-width:3px;}.cls-2{stroke:#b5143f;}.cls-2,.cls-3{stroke-width:1.46px;}.cls-3{stroke:#00f9ff;}</style></defs><g id="Capa_2" data-name="Capa 2"><g id="Capa_1-2" data-name="Capa 1"><path class="cls-1" d="M43.41,14.53S23.84,4.44,13.16,23C3.45,39.91,20.19,58,33,55.71"/><circle class="cls-2" cx="31.89" cy="33.57" r="23.73" transform="translate(-14.09 28.11) rotate(-39.7)"/><path class="cls-2" d="M40.81,32a4,4,0,0,1-1.63.75,4.49,4.49,0,0,0-1.64.72A1.5,1.5,0,0,0,37,35c.3.76,1.29.93,2.11,1l4.47.26a3.1,3.1,0,0,0,1.36-.12,2.3,2.3,0,0,0,1-1.06,3.78,3.78,0,0,0,.36-2.92,4.06,4.06,0,0,0-2.58-2.44C42.17,29.5,41.74,31.15,40.81,32Z"/><path class="cls-2" d="M12.23,20.28c1.28.32,2.67.36,3.69,1.18a4.42,4.42,0,0,1,1.32,3.71c-.07,1.36-.47,2.69-.58,4a11.91,11.91,0,0,0,3.76,9.19,21.4,21.4,0,0,0,8.89,4.89,2.68,2.68,0,0,0,1.6.14c1.11-.36,1.31-1.92.83-3-.81-1.83-2.77-2.8-4.5-3.79a16.68,16.68,0,0,1-6.11-5.4,8.43,8.43,0,0,1-.81-7.86c1.16-2.48,4.24-4.08,6.8-3.11,1.59.6,2.72,2,4.14,2.92s3.61,1.21,4.6-.17c.79-1.1.36-2.66-.29-3.85S34.05,16.83,34,15.47s.67-2.44.85-3.69A5,5,0,0,0,34.78,10a25.05,25.05,0,0,0-2.89-.18A23.71,23.71,0,0,0,12.23,20.28Z"/><path class="cls-2" d="M55,39.1c-1.84-1.22-3.83-2.24-6-1.08-.67.35-1.24.9-1.94,1.19-1.53.63-3.26-.1-4.91,0a4.91,4.91,0,0,0-4.29,5.41c.19,1.18.82,2.34.57,3.51a3.36,3.36,0,0,1-3.16,2.32,10.83,10.83,0,0,1-4.09-.86A8.26,8.26,0,0,0,27,49a5.19,5.19,0,0,0-3.87,5.15,6,6,0,0,0,.24,1.52A23.74,23.74,0,0,0,55,39.1Z"/><path class="cls-3" d="M1.76,41.48c.22.82.47,1.64.75,2.45"/><path class="cls-3" d="M.87,30.53a31.63,31.63,0,0,0,0,6.38"/><path class="cls-3" d="M25,3.18A31.18,31.18,0,0,0,1.31,27.58"/><polyline class="cls-3" points="24.08 6.47 25.96 2.97 22.69 0.73"/><path class="cls-3" d="M53.8,55.71c.61-.6,1.2-1.23,1.75-1.88"/><path class="cls-3" d="M44.76,62a30.6,30.6,0,0,0,5.51-3.23"/><path class="cls-3" d="M9,54.71a31.2,31.2,0,0,0,33,8.34"/><polyline class="cls-3" points="12.33 53.88 8.36 54 8.05 57.95"/><path class="cls-3" d="M40.11,3.52c-.83-.23-1.66-.42-2.51-.58"/><path class="cls-3" d="M50,8.23a30.87,30.87,0,0,0-5.55-3.16"/><path class="cls-3" d="M61.64,42.81a31.23,31.23,0,0,0-9.27-32.74"/><polyline class="cls-3" points="59.26 40.35 61.35 43.73 64.93 42.02"/></g></g></svg>