<svg xmlns="http://www.w3.org/2000/svg" viewBox="0 0 67 54.63"><defs><style>.cls-1,.cls-2,.cls-3{fill:none;stroke-linecap:round;stroke-linejoin:round;}.cls-1{stroke:#efc5d2;stroke-width:3px;}.cls-2{stroke:#b5143f;}.cls-2,.cls-3{stroke-width:2px;}.cls-3{stroke:#00f9ff;}</style></defs><g id="Capa_2" data-name="Capa 2"><g id="Capa_1-2" data-name="Capa 1"><line class="cls-1" x1="9.4" y1="12.09" x2="2.82" y2="31.53"/><line class="cls-1" x1="58.97" y1="12.09" x2="52.39" y2="31.53"/><line class="cls-2" x1="33.5" y1="10.14" x2="33.5" y2="45.19"/><path class="cls-2" d="M41.56,49.55H25.44a4.08,4.08,0,0,0-4.08,4.08H45.64A4.08,4.08,0,0,0,41.56,49.55Z"/><path class="cls-2" d="M35.49,45.19h-4a4.08,4.08,0,0,0-4.08,4.08H39.57A4.08,4.08,0,0,0,35.49,45.19Z"/><line class="cls-2" x1="35.84" y1="7.8" x2="58.33" y2="7.8"/><line class="cls-2" x1="8.67" y1="7.8" x2="31.16" y2="7.8"/><polyline class="cls-2" points="16.34 32.49 8.67 7.8 1 32.49"/><path class="cls-3" d="M1,32.5c0,3.83,3.43,6.93,7.67,6.93s7.67-3.1,7.67-6.93Z"/><polyline class="cls-2" points="66 32.49 58.33 7.8 50.66 32.49"/><path class="cls-3" d="M50.66,32.5c0,3.83,3.43,6.93,7.67,6.93S66,36.33,66,32.5Z"/><circle class="cls-2" cx="33.5" cy="7.8" r="2.34"/><line class="cls-2" x1="33.5" y1="5.46" x2="33.5" y2="1"/></g></g></svg>