<svg xmlns="http://www.w3.org/2000/svg" viewBox="0 0 51.93 51.93"><defs><style>.cls-1{fill:none;stroke:#efc5d2;stroke-linecap:round;stroke-linejoin:round;stroke-width:3px;}.cls-2{fill:#b5143f;}.cls-3{fill:#00f9ff;}</style></defs><g id="Capa_2" data-name="Capa 2"><g id="Capa_1-2" data-name="Capa 1"><line class="cls-1" x1="2.87" y1="2.16" x2="2.87" y2="40.25"/><path class="cls-2" d="M1.73,37.59A1,1,0,0,0,1,37.3a1,1,0,0,0-.71.29A1,1,0,0,0,1,39.33a1,1,0,0,0,.72-1.74Z"/><path class="cls-2" d="M32.28,27.92a1,1,0,0,0-1.42.18l-.06.07A1,1,0,0,0,31,29.6a1.06,1.06,0,0,0,.63.21,1,1,0,0,0,.8-.39l.05-.07A1,1,0,0,0,32.28,27.92Z"/><path class="cls-3" d="M26,5.82a8.52,8.52,0,1,0,8.52,8.52A8.53,8.53,0,0,0,26,5.82Zm0,15a6.5,6.5,0,1,1,6.49-6.5A6.5,6.5,0,0,1,26,20.84Z"/><path class="cls-2" d="M46.05,0a1,1,0,0,0-1,1v6.9H38.79a14.34,14.34,0,0,0-25.64,0H6.9V1a1,1,0,0,0-1-1A5.89,5.89,0,0,0,0,5.88V34.31a1,1,0,1,0,2,0V5.88A3.86,3.86,0,0,1,4.87,2.16V40.25a5.88,5.88,0,0,0,1,11.68H46.05a5.88,5.88,0,0,0,5.88-5.88V5.88A5.88,5.88,0,0,0,46.05,0ZM5.88,49.9a3.85,3.85,0,0,1,0-7.7,1,1,0,0,0,1-1V33.26l5.76-6.08a1,1,0,0,0-1.47-1.4L6.9,30.31V9.94h5.42a14.29,14.29,0,0,0,2.5,13.43h0L25.17,36.63A1,1,0,0,0,26,37h0a1,1,0,0,0,.8-.39l2.75-3.52a1,1,0,1,0-1.6-1.25l-2,2.5-9.52-12.2,0,0a12.31,12.31,0,1,1,19,.06l-.08.11L33.58,24.6A1,1,0,0,0,33.76,26a1,1,0,0,0,1.42-.18l1.88-2.4,0-.07A14.37,14.37,0,0,0,39.62,9.94H45V27.58h-1.4a9.86,9.86,0,0,0-8.13,4.28l-4,5.87a7.81,7.81,0,0,1-6.45,3.4,9.88,9.88,0,0,0-7.14,3.07l-5.4,5.7Zm40.17,0H15.31l4.08-4.3a7.84,7.84,0,0,1,5.67-2.44,9.81,9.81,0,0,0,8.12-4.29l4-5.86a7.81,7.81,0,0,1,6.45-3.4H45V41.18a1,1,0,0,0,1,1,3.85,3.85,0,1,1,0,7.7Zm3.86-8.29a5.93,5.93,0,0,0-2.84-1.36V2.16a3.88,3.88,0,0,1,2.84,3.72Z"/></g></g></svg>