<svg xmlns="http://www.w3.org/2000/svg" viewBox="0 0 69.74 74.65"><defs><style>.cls-1,.cls-2,.cls-3{fill:none;stroke-linecap:round;stroke-linejoin:round;}.cls-1{stroke:#efc5d2;stroke-width:3px;}.cls-2{stroke:#b5143f;}.cls-2,.cls-3{stroke-width:1.55px;}.cls-3{stroke:#00f9ff;}</style></defs><g id="Capa_2" data-name="Capa 2"><g id="Capa_1-2" data-name="Capa 1"><polyline class="cls-1" points="37.29 12.43 12.32 12.43 12.32 71.53"/><path class="cls-2" d="M39.29,10.09H5.46a4.69,4.69,0,0,1,4.68,4.68V69.19a4.67,4.67,0,0,0,4.67,4.68H62.2a4.68,4.68,0,0,1-4.68-4.68V31.66"/><path class="cls-2" d="M10.14,14.77a4.68,4.68,0,0,0-9.36,0Z"/><path class="cls-2" d="M19.49,69.19a4.67,4.67,0,0,1-4.68,4.68H62.2a4.68,4.68,0,0,0,4.68-4.68Z"/><circle class="cls-3" cx="53.5" cy="16.24" r="15.46" transform="translate(25.5 64.63) rotate(-76.83)"/><path class="cls-3" d="M49.76,23.24h5.18a3.5,3.5,0,0,0,0-7H52.49a3.5,3.5,0,0,1,0-7h4.42"/><line class="cls-3" x1="53.72" y1="6.59" x2="53.72" y2="25.87"/><line class="cls-2" x1="14.81" y1="18.63" x2="33.31" y2="18.63"/><line class="cls-2" x1="14.81" y1="25.63" x2="33.31" y2="25.63"/><line class="cls-2" x1="14.81" y1="32.63" x2="38.69" y2="32.63"/><line class="cls-2" x1="14.81" y1="39.62" x2="53.72" y2="39.62"/><line class="cls-2" x1="14.81" y1="46.62" x2="53.72" y2="46.62"/><line class="cls-2" x1="14.81" y1="53.62" x2="53.72" y2="53.62"/><line class="cls-2" x1="14.81" y1="60.62" x2="53.72" y2="60.62"/></g></g></svg>