<?xml version="1.0" standalone="no"?>
<!DOCTYPE svg PUBLIC "-//W3C//DTD SVG 20010904//EN"
 "http://www.w3.org/TR/2001/REC-SVG-20010904/DTD/svg10.dtd">
<svg version="1.0" xmlns="http://www.w3.org/2000/svg"
 width="200.000000pt" height="200.000000pt" viewBox="0 0 200.000000 200.000000"
 preserveAspectRatio="xMidYMid meet">
<metadata>
Created by potrace 1.11, written by Peter Selinger 2001-2013
</metadata>
<g transform="translate(0.000000,200.000000) scale(0.100000,-0.100000)"
fill="#000000" stroke="none">
<path d="M305 1438 c-12 -34 -152 -439 -222 -643 -75 -219 -78 -230 -58 -235
20 -6 105 -4 109 2 4 5 199 602 202 616 1 8 4 16 7 18 4 4 68 -169 179 -481
27 -77 56 -145 64 -151 22 -17 51 -6 63 24 5 15 58 157 117 315 72 191 110
283 116 274 8 -15 123 -362 173 -524 17 -53 35 -93 42 -94 17 -1 100 -1 112 0
6 1 4 16 -4 35 -14 33 -12 42 61 253 42 120 87 251 101 291 14 40 27 72 29 70
3 -4 83 -226 180 -502 50 -140 63 -160 105 -149 9 3 24 24 32 46 22 59 287
837 287 843 0 2 -29 4 -64 4 l-63 0 -58 -177 c-122 -380 -153 -468 -159 -453
-3 8 -53 143 -111 300 -133 361 -119 330 -152 330 -28 0 -30 -5 -143 -319 -72
-200 -118 -315 -122 -306 -5 7 -37 98 -72 202 -35 103 -82 240 -103 303 l-40
115 -35 3 -34 3 -36 -103 c-20 -57 -57 -161 -83 -233 -25 -71 -60 -172 -78
-222 -17 -51 -35 -89 -39 -85 -5 6 -86 229 -215 600 -14 38 -18 42 -49 42 -19
0 -37 -6 -39 -12z"/>
</g>
</svg>
